WantedSans-Split-Hangul.glyphspackage
{
glyphname = uni3131;
layers = (
{
layerId = m01;
shapes = (
{
closed = 1;
nodes = (
(329,1185,l),
(329,1055,l),
(1286,1055,l),
(1286,259,l),
(1442,259,l),
(1442,1185,l)
);
}
);
width = 1770;
},
{
layerId = "94F54C43-8AEE-4ED6-B3C2-2A9D33534E61";
shapes = (
{
closed = 1;
nodes = (
(280,1264,l),
(280,986,l),
(1139,986,l),
(1139,235,l),
(1489,235,l),
(1489,1264,l)
);
}
);
width = 1770;
}
);
unicode = (12593,65441);
}
{
glyphname = uni3132;
layers = (
{
layerId = m01;
shapes = (
{
closed = 1;
nodes = (
(251,1185,l),
(251,1055,l),
(713,1055,l),
(713,259,l),
(867,259,l),
(867,1185,l)
);
},
{
closed = 1;
nodes = (
(971,1187,l),
(971,1057,l),
(1425,1057,l),
(1425,260,l),
(1581,260,l),
(1581,1187,l)
);
}
);
width = 1770;
},
{
layerId = "94F54C43-8AEE-4ED6-B3C2-2A9D33534E61";
shapes = (
{
closed = 1;
nodes = (
(125,1266,l),
(125,984,l),
(501,984,l),
(501,235,l),
(855,235,l),
(855,1266,l)
);
},
{
closed = 1;
nodes = (
(925,1266,l),
(925,983,l),
(1244,983,l),
(1244,234,l),
(1600,234,l),
(1600,1266,l)
);
}
);
width = 1770;
}
);
unicode = (12594,65442);
}
{
glyphname = uni3133;
layers = (
{
layerId = m01;
shapes = (
{
closed = 1;
nodes = (
(239,1182,l),
(239,1052,l),
(646,1052,l),
(646,259,l),
(802,259,l),
(802,1182,l)
);
},
{
closed = 1;
nodes = (
(1162,1200,l),
(1162,868,ls),
(1162,666,o),
(1061,452,o),
(837,361,c),
(922,245,l),
(1173,354,o),
(1284,607,o),
(1284,868,cs),
(1284,1200,l)
);
},
{
closed = 1;
nodes = (
(1192,1200,l),
(1192,868,ls),
(1192,607,o),
(1301,354,o),
(1554,245,c),
(1639,361,l),
(1414,452,o),
(1313,666,o),
(1313,868,cs),
(1313,1200,l)
);
}
);
width = 1770;
},
{
layerId = "94F54C43-8AEE-4ED6-B3C2-2A9D33534E61";
shapes = (
{
closed = 1;
nodes = (
(147,1258,l),
(147,975,l),
(474,975,l),
(474,235,l),
(823,235,l),
(823,1258,l)
);
},
{
closed = 1;
nodes = (
(1046,1270,l),
(1046,957,ls),
(1046,734,o),
(978,545,o),
(719,465,c),
(897,212,l),
(1215,324,o),
(1307,599,o),
(1307,957,cs),
(1307,1270,l)
);
},
{
closed = 1;
nodes = (
(1120,1270,l),
(1120,957,ls),
(1120,599,o),
(1211,324,o),
(1529,212,c),
(1707,465,l),
(1448,545,o),
(1381,734,o),
(1381,957,cs),
(1381,1270,l)
);
}
);
width = 1770;
}
);
unicode = (12595,65443);
}
{
glyphname = uni3134;
layers = (
{
layerId = m01;
shapes = (
{
closed = 1;
nodes = (
(341,402,l),
(341,273,l),
(1474,273,l),
(1474,402,l)
);
},
{
closed = 1;
nodes = (
(341,1185,l),
(341,354,l),
(497,354,l),
(497,1185,l)
);
}
);
width = 1771;
},
{
layerId = "94F54C43-8AEE-4ED6-B3C2-2A9D33534E61";
shapes = (
{
closed = 1;
nodes = (
(273,555,l),
(273,275,l),
(1498,275,l),
(1498,555,l)
);
},
{
closed = 1;
nodes = (
(273,1264,l),
(273,449,l),
(631,449,l),
(631,1264,l)
);
}
);
width = 1771;
}
);
unicode = (12596,65444);
}
{
glyphname = uni3135;
layers = (
{
layerId = m01;
shapes = (
{
closed = 1;
nodes = (
(288,1192,l),
(288,342,l),
(446,342,l),
(446,1192,l)
);
},
{
closed = 1;
nodes = (
(1103,1136,l),
(1103,895,ls),
(1103,672,o),
(1005,448,o),
(788,349,c),
(877,233,l),
(1124,351,o),
(1223,622,o),
(1223,895,cs),
(1223,1136,l)
);
},
{
closed = 1;
nodes = (
(1130,1136,l),
(1130,895,ls),
(1130,621,o),
(1233,351,o),
(1483,232,c),
(1572,349,l),
(1351,448,o),
(1254,674,o),
(1254,895,cs),
(1254,1136,l)
);
},
{
closed = 1;
nodes = (
(839,1180,l),
(839,1051,l),
(1519,1051,l),
(1519,1180,l)
);
},
{
closed = 1;
nodes = (
(288,371,l),
(288,243,l),
(372,243,ls),
(528,243,o),
(671,246,o),
(827,292,c),
(806,422,l),
(664,376,o),
(519,371,o),
(372,371,cs)
);
}
);
width = 1770;
},
{
layerId = "94F54C43-8AEE-4ED6-B3C2-2A9D33534E61";
shapes = (
{
closed = 1;
nodes = (
(138,1264,l),
(138,452,l),
(500,452,l),
(500,1264,l)
);
},
{
closed = 1;
nodes = (
(1002,1211,l),
(1002,1040,ls),
(1002,755,o),
(931,546,o),
(688,450,c),
(884,194,l),
(1187,329,o),
(1265,642,o),
(1265,1040,cs),
(1265,1211,l)
);
},
{
closed = 1;
nodes = (
(1074,1211,l),
(1074,1040,ls),
(1074,640,o),
(1158,327,o),
(1474,192,c),
(1666,450,l),
(1410,548,o),
(1341,762,o),
(1341,1040,cs),
(1341,1211,l)
);
},
{
closed = 1;
nodes = (
(770,1267,l),
(770,985,l),
(1577,985,l),
(1577,1267,l)
);
},
{
closed = 1;
nodes = (
(138,487,l),
(138,201,l),
(261,201,ls),
(505,201,o),
(635,205,o),
(797,235,c),
(768,516,l),
(611,490,o),
(489,487,o),
(261,487,cs)
);
}
);
width = 1770;
}
);
unicode = (12597,65445);
}
{
glyphname = uni3136;
layers = (
{
layerId = m01;
shapes = (
{
closed = 1;
nodes = (
(287,1156,l),
(287,334,l),
(443,334,l),
(443,1156,l)
);
},
{
closed = 1;
nodes = (
(287,380,l),
(287,252,l),
(372,252,ls),
(519,252,o),
(670,254,o),
(828,303,c),
(807,432,l),
(665,385,o),
(520,380,o),
(372,380,cs)
);
},
{
closed = 1;
nodes = (
(818,1035,l),
(818,905,l),
(1518,905,l),
(1518,1035,l)
);
},
{
closed = 1;
nodes = (
(999,837,o),
(869,709,o),
(869,525,cs),
(869,343,o),
(999,216,o),
(1168,216,cs),
(1338,216,o),
(1469,343,o),
(1469,525,cs),
(1469,709,o),
(1338,837,o),
(1168,837,cs)
);
},
{
closed = 1;
nodes = (
(1267,713,o),
(1334,636,o),
(1334,525,cs),
(1334,416,o),
(1267,339,o),
(1168,339,cs),
(1073,339,o),
(1003,416,o),
(1003,525,cs),
(1003,636,o),
(1073,713,o),
(1168,713,cs)
);
},
{
closed = 1;
nodes = (
(1099,1213,l),
(1099,930,l),
(1252,930,l),
(1252,1213,l)
);
}
);
width = 1770;
},
{
layerId = "94F54C43-8AEE-4ED6-B3C2-2A9D33534E61";
shapes = (
{
closed = 1;
nodes = (
(138,1246,l),
(138,427,l),
(488,427,l),
(488,1246,l)
);
},
{
closed = 1;
nodes = (
(138,503,l),
(138,225,l),
(259,225,ls),
(490,225,o),
(636,228,o),
(799,259,c),
(770,535,l),
(612,508,o),
(491,503,o),
(259,503,cs)
);
},
{
closed = 1;
nodes = (
(741,1156,l),
(741,874,l),
(1608,874,l),
(1608,1156,l)
);
},
{
closed = 1;
nodes = (
(974,851,o),
(814,702,o),
(814,507,cs),
(814,310,o),
(974,164,o),
(1179,164,cs),
(1384,164,o),
(1545,310,o),
(1545,507,cs),
(1545,702,o),
(1384,851,o),
(1179,851,cs)
);
},
{
closed = 1;
nodes = (
(1218,580,o),
(1249,564,o),
(1249,507,cs),
(1249,449,o),
(1218,433,o),
(1179,433,cs),
(1142,433,o),
(1109,449,o),
(1109,507,cs),
(1109,564,o),
(1142,580,o),
(1179,580,cs)
);
},
{
closed = 1;
nodes = (
(1021,1289,l),
(1021,907,l),
(1364,907,l),
(1364,1289,l)
);
}
);
width = 1770;
}
);
unicode = (12598,65446);
}
{
glyphname = uni3137;
layers = (
{
layerId = m01;
shapes = (
{
closed = 1;
nodes = (
(344,1193,l),
(344,344,l),
(501,344,l),
(501,1064,l),
(1437,1064,l),
(1437,1193,l)
);
},
{
closed = 1;
nodes = (
(344,390,l),
(344,261,l),
(1454,261,l),
(1454,390,l)
);
}
);
width = 1770;
},
{
layerId = "94F54C43-8AEE-4ED6-B3C2-2A9D33534E61";
shapes = (
{
closed = 1;
nodes = (
(282,1268,l),
(282,430,l),
(640,430,l),
(640,987,l),
(1477,987,l),
(1477,1268,l)
);
},
{
closed = 1;
nodes = (
(282,512,l),
(282,232,l),
(1490,232,l),
(1490,512,l)
);
}
);
width = 1770;
}
);
unicode = (12599,65447);
}
{
glyphname = uni3138;
layers = (
{
layerId = m01;
shapes = (
{
closed = 1;
nodes = (
(287,1193,l),
(287,344,l),
(443,344,l),
(443,1064,l),
(854,1064,l),
(854,1193,l)
);
},
{
closed = 1;
nodes = (
(931,1193,l),
(931,344,l),
(1088,344,l),
(1088,1064,l),
(1495,1064,l),
(1495,1193,l)
);
},
{
closed = 1;
nodes = (
(931,401,l),
(931,272,l),
(1503,272,l),
(1503,401,l)
);
},
{
closed = 1;
nodes = (
(287,406,l),
(287,274,l),
(378,274,ls),
(535,274,o),
(692,279,o),
(873,320,c),
(854,452,l),
(685,411,o),
(537,406,o),
(378,406,cs)
);
}
);
width = 1771;
},
{
layerId = "94F54C43-8AEE-4ED6-B3C2-2A9D33534E61";
shapes = (
{
closed = 1;
nodes = (
(184,1268,l),
(184,430,l),
(535,430,l),
(535,987,l),
(820,987,l),
(820,1268,l)
);
},
{
closed = 1;
nodes = (
(946,1268,l),
(946,430,l),
(1296,430,l),
(1296,987,l),
(1573,987,l),
(1573,1268,l)
);
},
{
closed = 1;
nodes = (
(946,546,l),
(946,266,l),
(1583,266,l),
(1583,546,l)
);
},
{
closed = 1;
nodes = (
(184,552,l),
(184,263,l),
(309,263,ls),
(549,263,o),
(700,267,o),
(862,299,c),
(835,586,l),
(675,556,o),
(549,552,o),
(309,552,cs)
);
}
);
width = 1771;
}
);
unicode = (12600,65448);
}
{
glyphname = uni3139;
layers = (
{
layerId = m01;
shapes = (
{
closed = 1;
nodes = (
(321,1213,l),
(321,1085,l),
(1294,1085,l),
(1294,797,l),
(326,797,l),
(326,303,l),
(476,303,l),
(476,670,l),
(1444,670,l),
(1444,1213,l)
);
},
{
closed = 1;
nodes = (
(326,378,l),
(326,246,l),
(1475,246,l),
(1475,378,l)
);
}
);
width = 1770;
},
{
layerId = "94F54C43-8AEE-4ED6-B3C2-2A9D33534E61";
shapes = (
{
closed = 1;
nodes = (
(263,1288,l),
(263,1007,l),
(1133,1007,l),
(1133,919,l),
(265,919,l),
(265,382,l),
(605,382,l),
(605,640,l),
(1475,640,l),
(1475,1288,l)
);
},
{
closed = 1;
nodes = (
(265,537,l),
(265,248,l),
(1500,248,l),
(1500,537,l)
);
}
);
width = 1770;
}
);
unicode = (12601,65449);
}
{
glyphname = uni313A;
layers = (
{
layerId = m01;
shapes = (
{
closed = 1;
nodes = (
(269,1201,l),
(269,1071,l),
(705,1071,l),
(705,799,l),
(274,799,l),
(274,284,l),
(429,284,l),
(429,671,l),
(861,671,l),
(861,1201,l)
);
},
{
closed = 1;
nodes = (
(926,1201,l),
(926,1071,l),
(1362,1071,l),
(1362,262,l),
(1518,262,l),
(1518,1201,l)
);
},
{
closed = 1;
nodes = (
(274,385,l),
(274,257,l),
(378,257,ls),
(588,257,o),
(759,263,o),
(970,304,c),
(953,432,l),
(744,392,o),
(571,385,o),
(378,385,cs)
);
}
);
width = 1771;
},
{
layerId = "94F54C43-8AEE-4ED6-B3C2-2A9D33534E61";
shapes = (
{
closed = 1;
nodes = (
(155,1276,l),
(155,995,l),
(474,995,l),
(474,901,l),
(154,901,l),
(154,275,l),
(506,275,l),
(506,618,l),
(826,618,l),
(826,1276,l)
);
},
{
closed = 1;
nodes = (
(886,1276,l),
(886,995,l),
(1222,995,l),
(1222,238,l),
(1572,238,l),
(1572,1276,l)
);
},
{
closed = 1;
nodes = (
(154,515,l),
(154,236,l),
(295,236,ls),
(580,236,o),
(756,238,o),
(937,278,c),
(909,554,l),
(735,521,o),
(582,515,o),
(295,515,cs)
);
}
);
width = 1771;
}
);
unicode = (12602,65450);
}
{
glyphname = uni313B;
layers = (
{
layerId = m01;
shapes = (
{
closed = 1;
nodes = (
(267,1198,l),
(267,1069,l),
(694,1069,l),
(694,799,l),
(272,799,l),
(272,281,l),
(426,281,l),
(426,670,l),
(848,670,l),
(848,1198,l)
);
},
{
closed = 1;
nodes = (
(272,386,l),
(272,257,l),
(366,257,ls),
(530,257,o),
(690,261,o),
(895,297,c),
(880,425,l),
(683,390,o),
(533,386,o),
(366,386,cs)
);
},
{
closed = 1;
nodes = (
(936,1200,l),
(936,260,l),
(1540,260,l),
(1540,1200,l)
);
},
{
closed = 1;
nodes = (
(1400,1071,l),
(1400,386,l),
(1076,386,l),
(1076,1071,l)
);
}
);
width = 1771;
},
{
layerId = "94F54C43-8AEE-4ED6-B3C2-2A9D33534E61";
shapes = (
{
closed = 1;
nodes = (
(144,1276,l),
(144,997,l),
(468,997,l),
(468,901,l),
(147,901,l),
(147,275,l),
(497,275,l),
(497,618,l),
(819,618,l),
(819,1276,l)
);
},
{
closed = 1;
nodes = (
(147,514,l),
(147,236,l),
(278,236,ls),
(541,236,o),
(705,238,o),
(874,277,c),
(844,555,l),
(681,519,o),
(541,514,o),
(278,514,cs)
);
},
{
closed = 1;
nodes = (
(918,1280,l),
(918,242,l),
(1636,242,l),
(1636,1280,l)
);
},
{
closed = 1;
nodes = (
(1327,1000,l),
(1327,519,l),
(1229,519,l),
(1229,1000,l)
);
}
);
width = 1771;
}
);
unicode = (12603,65451);
}
{
glyphname = uni313C;
layers = (
{
layerId = m01;
shapes = (
{
closed = 1;
nodes = (
(266,1198,l),
(266,1069,l),
(693,1069,l),
(693,799,l),
(271,799,l),
(271,281,l),
(425,281,l),
(425,670,l),
(847,670,l),
(847,1198,l)
);
},
{
closed = 1;
nodes = (
(935,1201,l),
(935,257,l),
(1543,257,l),
(1543,1201,l),
(1395,1201,l),
(1395,873,l),
(1083,873,l),
(1083,1201,l)
);
},
{
closed = 1;
nodes = (
(1083,744,l),
(1395,744,l),
(1395,387,l),
(1083,387,l)
);
},
{
closed = 1;
nodes = (
(271,384,l),
(271,257,l),
(367,257,ls),
(537,257,o),
(701,260,o),
(906,301,c),
(887,429,l),
(697,390,o),
(539,384,o),
(367,384,cs)
);
}
);
width = 1770;
},
{
layerId = "94F54C43-8AEE-4ED6-B3C2-2A9D33534E61";
shapes = (
{
closed = 1;
nodes = (
(140,1277,l),
(140,995,l),
(462,995,l),
(462,903,l),
(143,903,l),
(143,275,l),
(498,275,l),
(498,617,l),
(817,617,l),
(817,1277,l)
);
},
{
closed = 1;
nodes = (
(897,1281,l),
(897,233,l),
(1631,233,l),
(1631,1281,l),
(1300,1281,l),
(1300,1032,l),
(1229,1032,l),
(1229,1281,l)
);
},
{
closed = 1;
nodes = (
(1229,745,l),
(1300,745,l),
(1300,520,l),
(1229,520,l)
);
},
{
closed = 1;
nodes = (
(143,516,l),
(143,233,l),
(272,233,ls),
(551,233,o),
(693,237,o),
(860,274,c),
(829,554,l),
(667,518,o),
(534,516,o),
(272,516,cs)
);
}
);
width = 1770;
}
);
unicode = (12604,65452);
}
{
glyphname = uni313D;
layers = (
{
layerId = m01;
shapes = (
{
closed = 1;
nodes = (
(265,1198,l),
(265,1069,l),
(692,1069,l),
(692,799,l),
(269,799,l),
(269,281,l),
(424,281,l),
(424,670,l),
(846,670,l),
(846,1198,l)
);
},
{
closed = 1;
nodes = (
(269,386,l),
(269,257,l),
(366,257,ls),
(541,257,o),
(709,263,o),
(899,310,c),
(882,438,l),
(702,392,o),
(542,386,o),
(366,386,cs)
);
},
{
closed = 1;
nodes = (
(1175,1206,l),
(1175,873,ls),
(1175,672,o),
(1076,457,o),
(859,366,c),
(944,252,l),
(1189,360,o),
(1297,613,o),
(1297,873,cs),
(1297,1206,l)
);
},
{
closed = 1;
nodes = (
(1206,1206,l),
(1206,873,ls),
(1206,612,o),
(1312,360,o),
(1559,252,c),
(1644,366,l),
(1426,457,o),
(1326,672,o),
(1326,873,cs),
(1326,1206,l)
);
}
);
width = 1770;
},
{
layerId = "94F54C43-8AEE-4ED6-B3C2-2A9D33534E61";
shapes = (
{
closed = 1;
nodes = (
(135,1276,l),
(135,997,l),
(458,997,l),
(458,901,l),
(137,901,l),
(137,275,l),
(488,275,l),
(488,618,l),
(810,618,l),
(810,1276,l)
);
},
{
closed = 1;
nodes = (
(137,514,l),
(137,236,l),
(268,236,ls),
(533,236,o),
(694,238,o),
(867,275,c),
(838,551,l),
(669,519,o),
(533,514,o),
(268,514,cs)
);
},
{
closed = 1;
nodes = (
(1060,1285,l),
(1060,973,ls),
(1060,749,o),
(999,562,o),
(758,480,c),
(937,229,l),
(1235,345,o),
(1318,620,o),
(1318,973,cs),
(1318,1285,l)
);
},
{
closed = 1;
nodes = (
(1136,1285,l),
(1136,973,ls),
(1136,620,o),
(1216,345,o),
(1513,229,c),
(1695,480,l),
(1455,562,o),
(1394,749,o),
(1394,973,cs),
(1394,1285,l)
);
}
);
width = 1770;
}
);
unicode = (12605,65453);
}
{
glyphname = uni313E;
layers = (
{
layerId = m01;
shapes = (
{
closed = 1;
nodes = (
(268,1198,l),
(268,1069,l),
(694,1069,l),
(694,799,l),
(272,799,l),
(272,281,l),
(427,281,l),
(427,670,l),
(849,670,l),
(849,1198,l)
);
},
{
closed = 1;
nodes = (
(955,1199,l),
(955,323,l),
(1110,323,l),
(1110,1070,l),
(1547,1070,l),
(1547,1199,l)
);
},
{
closed = 1;
nodes = (
(955,388,l),
(955,259,l),
(1559,259,l),
(1559,388,l)
);
},
{
closed = 1;
nodes = (
(999,800,l),
(999,670,l),
(1525,670,l),
(1525,800,l)
);
},
{
closed = 1;
nodes = (
(272,389,l),
(272,260,l),
(368,260,ls),
(545,260,o),
(712,266,o),
(902,313,c),
(885,441,l),
(704,395,o),
(546,389,o),
(368,389,cs)
);
}
);
width = 1770;
},
{
layerId = "94F54C43-8AEE-4ED6-B3C2-2A9D33534E61";
shapes = (
{
closed = 1;
nodes = (
(144,1276,l),
(144,997,l),
(468,997,l),
(468,901,l),
(147,901,l),
(147,275,l),
(497,275,l),
(497,618,l),
(818,618,l),
(818,1276,l)
);
},
{
closed = 1;
nodes = (
(912,1277,l),
(912,372,l),
(1260,372,l),
(1260,999,l),
(1579,999,l),
(1579,1277,l)
);
},
{
closed = 1;
nodes = (
(912,512,l),
(912,232,l),
(1597,232,l),
(1597,512,l)
);
},
{
closed = 1;
nodes = (
(1001,893,l),
(1001,613,l),
(1557,613,l),
(1557,893,l)
);
},
{
closed = 1;
nodes = (
(147,513,l),
(147,235,l),
(278,235,ls),
(542,235,o),
(703,237,o),
(877,275,c),
(847,551,l),
(679,518,o),
(544,513,o),
(278,513,cs)
);
}
);
width = 1770;
}
);
unicode = (12606,65454);
}
{
glyphname = uni313F;
layers = (
{
layerId = m01;
shapes = (
{
closed = 1;
nodes = (
(267,1198,l),
(267,1069,l),
(673,1069,l),
(673,799,l),
(272,799,l),
(272,281,l),
(427,281,l),
(427,670,l),
(830,670,l),
(830,1198,l)
);
},
{
closed = 1;
nodes = (
(916,1197,l),
(916,1068,l),
(1563,1068,l),
(1563,1197,l)
);
},
{
closed = 1;
nodes = (
(909,386,l),
(909,257,l),
(1574,257,l),
(1574,386,l)
);
},
{
closed = 1;
nodes = (
(1019,1097,l),
(1019,332,l),
(1160,332,l),
(1160,1097,l)
);
},
{
closed = 1;
nodes = (
(1320,1097,l),
(1320,332,l),
(1460,332,l),
(1460,1097,l)
);
},
{
closed = 1;
nodes = (
(272,386,l),
(272,257,l),
(366,257,ls),
(540,257,o),
(705,263,o),
(892,308,c),
(873,438,l),
(697,392,o),
(540,386,o),
(366,386,cs)
);
}
);
width = 1771;
},
{
layerId = "94F54C43-8AEE-4ED6-B3C2-2A9D33534E61";
shapes = (
{
closed = 1;
nodes = (
(147,1276,l),
(147,997,l),
(456,997,l),
(456,901,l),
(149,901,l),
(149,275,l),
(499,275,l),
(499,618,l),
(805,618,l),
(805,1276,l)
);
},
{
closed = 1;
nodes = (
(870,1273,l),
(870,993,l),
(1670,993,l),
(1670,1273,l)
);
},
{
closed = 1;
nodes = (
(871,514,l),
(871,236,l),
(1667,236,l),
(1667,514,l)
);
},
{
closed = 1;
nodes = (
(941,1045,l),
(941,384,l),
(1245,384,l),
(1245,1045,l)
);
},
{
closed = 1;
nodes = (
(1294,1045,l),
(1294,384,l),
(1597,384,l),
(1597,1045,l)
);
},
{
closed = 1;
nodes = (
(149,514,l),
(149,236,l),
(278,236,ls),
(534,236,o),
(693,238,o),
(863,273,c),
(832,551,l),
(668,519,o),
(537,514,o),
(278,514,cs)
);
}
);
width = 1771;
}
);
unicode = (12607,65455);
}
{
glyphname = uni3140;
layers = (
{
layerId = m01;
shapes = (
{
closed = 1;
nodes = (
(274,1198,l),
(274,1074,l),
(649,1074,l),
(649,801,l),
(279,801,l),
(279,283,l),
(434,283,l),
(434,677,l),
(805,677,l),
(805,1198,l)
);
},
{
closed = 1;
nodes = (
(872,1049,l),
(872,919,l),
(1558,919,l),
(1558,1049,l)
);
},
{
closed = 1;
nodes = (
(1046,851,o),
(917,726,o),
(917,548,cs),
(917,367,o),
(1047,243,o),
(1215,243,cs),
(1385,243,o),
(1514,367,o),
(1514,548,cs),
(1514,726,o),
(1385,851,o),
(1215,851,cs)
);
},
{
closed = 1;
nodes = (
(1311,727,o),
(1382,653,o),
(1382,548,cs),
(1382,439,o),
(1311,367,o),
(1215,367,cs),
(1118,367,o),
(1049,439,o),
(1049,548,cs),
(1049,653,o),
(1118,727,o),
(1215,727,cs)
);
},
{
closed = 1;
nodes = (
(1146,1243,l),
(1146,960,l),
(1298,960,l),
(1298,1243,l)
);
},
{
closed = 1;
nodes = (
(279,386,l),
(279,257,l),
(371,257,ls),
(554,257,o),
(702,264,o),
(880,304,c),
(861,434,l),
(687,392,o),
(536,386,o),
(371,386,cs)
);
}
);
width = 1770;
},
{
layerId = "94F54C43-8AEE-4ED6-B3C2-2A9D33534E61";
shapes = (
{
closed = 1;
nodes = (
(167,1276,l),
(167,1011,l),
(443,1011,l),
(443,908,l),
(168,908,l),
(168,278,l),
(520,278,l),
(520,644,l),
(795,644,l),
(795,1276,l)
);
},
{
closed = 1;
nodes = (
(886,1205,l),
(886,925,l),
(1712,925,l),
(1712,1205,l)
);
},
{
closed = 1;
nodes = (
(1092,897,o),
(932,751,o),
(932,556,cs),
(932,358,o),
(1093,210,o),
(1297,210,cs),
(1501,210,o),
(1663,358,o),
(1663,556,cs),
(1663,751,o),
(1503,897,o),
(1297,897,cs)
);
},
{
closed = 1;
nodes = (
(1335,630,o),
(1368,612,o),
(1368,556,cs),
(1368,494,o),
(1335,480,o),
(1297,480,cs),
(1259,480,o),
(1226,494,o),
(1226,556,cs),
(1226,612,o),
(1259,630,o),
(1297,630,cs)
);
},
{
closed = 1;
nodes = (
(1138,1336,l),
(1138,954,l),
(1482,954,l),
(1482,1336,l)
);
},
{
closed = 1;
nodes = (
(168,514,l),
(168,236,l),
(299,236,ls),
(562,236,o),
(708,239,o),
(878,273,c),
(847,549,l),
(685,519,o),
(551,514,o),
(299,514,cs)
);
}
);
width = 1770;
}
);
unicode = (12608,65456);
}
{
glyphname = uni3141;
layers = (
{
layerId = m01;
shapes = (
{
closed = 1;
nodes = (
(336,1191,l),
(336,264,l),
(1454,264,l),
(1454,1191,l)
);
},
{
closed = 1;
nodes = (
(1298,1061,l),
(1298,393,l),
(493,393,l),
(493,1061,l)
);
}
);
width = 1771;
},
{
layerId = "94F54C43-8AEE-4ED6-B3C2-2A9D33534E61";
shapes = (
{
closed = 1;
nodes = (
(282,1250,l),
(282,256,l),
(1490,256,l),
(1490,1250,l)
);
},
{
closed = 1;
nodes = (
(1137,968,l),
(1137,535,l),
(635,535,l),
(635,968,l)
);
}
);
width = 1771;
}
);
unicode = (12609,65457);
}
{
glyphname = uni3142;
layers = (
{
layerId = m01;
shapes = (
{
closed = 1;
nodes = (
(338,1213,l),
(338,257,l),
(1448,257,l),
(1448,1213,l),
(1291,1213,l),
(1291,885,l),
(494,885,l),
(494,1213,l)
);
},
{
closed = 1;
nodes = (
(494,745,l),
(1291,745,l),
(1291,395,l),
(494,395,l)
);
}
);
width = 1771;
},
{
layerId = "94F54C43-8AEE-4ED6-B3C2-2A9D33534E61";
shapes = (
{
closed = 1;
nodes = (
(281,1286,l),
(281,233,l),
(1489,233,l),
(1489,1286,l),
(1135,1286,l),
(1135,1041,l),
(635,1041,l),
(635,1286,l)
);
},
{
closed = 1;
nodes = (
(635,728,l),
(1135,728,l),
(1135,542,l),
(635,542,l)
);
}
);
width = 1771;
}
);
unicode = (12610,65458);
}
{
glyphname = uni3143;
layers = (
{
layerId = m01;
shapes = (
{
closed = 1;
nodes = (
(293,1197,l),
(293,258,l),
(866,258,l),
(866,1197,l),
(721,1197,l),
(721,871,l),
(439,871,l),
(439,1197,l)
);
},
{
closed = 1;
nodes = (
(439,743,l),
(721,743,l),
(721,388,l),
(439,388,l)
);
},
{
closed = 1;
nodes = (
(943,1198,l),
(943,258,l),
(1515,258,l),
(1515,1198,l),
(1369,1198,l),
(1369,872,l),
(1088,872,l),
(1088,1198,l)
);
},
{
closed = 1;
nodes = (
(1088,743,l),
(1369,743,l),
(1369,390,l),
(1088,390,l)
);
}
);
width = 1771;
},
{
layerId = "94F54C43-8AEE-4ED6-B3C2-2A9D33534E61";
shapes = (
{
closed = 1;
nodes = (
(190,1267,l),
(190,238,l),
(875,238,l),
(875,1267,l),
(551,1267,l),
(551,1025,l),
(510,1025,l),
(510,1267,l)
);
},
{
closed = 1;
nodes = (
(510,741,l),
(551,741,l),
(551,521,l),
(510,521,l)
);
},
{
closed = 1;
nodes = (
(919,1270,l),
(919,240,l),
(1605,240,l),
(1605,1270,l),
(1281,1270,l),
(1281,1027,l),
(1241,1027,l),
(1241,1270,l)
);
},
{
closed = 1;
nodes = (
(1241,743,l),
(1281,743,l),
(1281,523,l),
(1241,523,l)
);
}
);
width = 1771;
}
);
unicode = (12611,65459);
}
{
glyphname = uni3144;
layers = (
{
layerId = m01;
shapes = (
{
closed = 1;
nodes = (
(1185,1200,l),
(1185,868,ls),
(1185,666,o),
(1083,452,o),
(860,361,c),
(944,245,l),
(1195,354,o),
(1306,607,o),
(1306,868,cs),
(1306,1200,l)
);
},
{
closed = 1;
nodes = (
(1215,1200,l),
(1215,868,ls),
(1215,607,o),
(1325,354,o),
(1577,245,c),
(1661,361,l),
(1437,452,o),
(1336,667,o),
(1336,868,cs),
(1336,1200,l)
);
},
{
closed = 1;
nodes = (
(293,1197,l),
(293,258,l),
(866,258,l),
(866,1197,l),
(721,1197,l),
(721,871,l),
(439,871,l),
(439,1197,l)
);
},
{
closed = 1;
nodes = (
(439,743,l),
(721,743,l),
(721,388,l),
(439,388,l)
);
}
);
width = 1770;
},
{
layerId = "94F54C43-8AEE-4ED6-B3C2-2A9D33534E61";
shapes = (
{
closed = 1;
nodes = (
(1089,1270,l),
(1089,957,ls),
(1089,734,o),
(1021,545,o),
(763,465,c),
(937,212,l),
(1256,324,o),
(1348,599,o),
(1348,957,cs),
(1348,1270,l)
);
},
{
closed = 1;
nodes = (
(1162,1270,l),
(1162,957,ls),
(1162,599,o),
(1255,324,o),
(1572,212,c),
(1748,465,l),
(1491,545,o),
(1424,733,o),
(1424,957,cs),
(1424,1270,l)
);
},
{
closed = 1;
nodes = (
(190,1267,l),
(190,238,l),
(875,238,l),
(875,1267,l),
(551,1267,l),
(551,1025,l),
(510,1025,l),
(510,1267,l)
);
},
{
closed = 1;
nodes = (
(510,741,l),
(551,741,l),
(551,521,l),
(510,521,l)
);
}
);
width = 1770;
}
);
unicode = (12612,65460);
}
{
glyphname = uni3145;
layers = (
{
layerId = m01;
shapes = (
{
closed = 1;
nodes = (
(818,1228,l),
(818,939,ls),
(818,642,o),
(576,436,o),
(264,365,c),
(339,238,l),
(691,330,o),
(953,569,o),
(953,939,cs),
(953,1228,l)
);
},
{
closed = 1;
nodes = (
(839,1228,l),
(839,939,ls),
(839,569,o),
(1102,330,o),
(1453,238,c),
(1528,365,l),
(1216,436,o),
(974,642,o),
(974,939,cs),
(974,1228,l)
);
}
);
width = 1770;
},
{
layerId = "94F54C43-8AEE-4ED6-B3C2-2A9D33534E61";
shapes = (
{
closed = 1;
nodes = (
(705,1286,l),
(705,1032,ls),
(705,799,o),
(611,554,o),
(182,474,c),
(349,192,l),
(846,303,o),
(1005,637,o),
(1005,1032,cs),
(1005,1286,l)
);
},
{
closed = 1;
nodes = (
(760,1286,l),
(760,1032,ls),
(760,637,o),
(919,303,o),
(1416,192,c),
(1582,474,l),
(1152,554,o),
(1060,799,o),
(1060,1032,cs),
(1060,1286,l)
);
}
);
width = 1770;
}
);
unicode = (12613,65461);
}
{
glyphname = uni3146;
layers = (
{
layerId = m01;
shapes = (
{
closed = 1;
nodes = (
(496,1180,l),
(496,945,ls),
(496,762,o),
(401,516,o),
(173,405,c),
(265,289,l),
(513,417,o),
(619,704,o),
(619,945,cs),
(619,1180,l)
);
},
{
closed = 1;
nodes = (
(535,1180,l),
(535,938,ls),
(535,706,o),
(640,394,o),
(900,263,c),
(972,385,l),
(750,505,o),
(654,758,o),
(654,938,cs),
(654,1180,l)
);
},
{
closed = 1;
nodes = (
(1149,1180,l),
(1149,938,ls),
(1149,748,o),
(1050,501,o),
(828,385,c),
(900,263,l),
(1148,385,o),
(1267,673,o),
(1267,938,cs),
(1267,1180,l)
);
},
{
closed = 1;
nodes = (
(1183,1180,l),
(1183,945,ls),
(1183,685,o),
(1287,412,o),
(1540,291,c),
(1629,408,l),
(1401,510,o),
(1307,743,o),
(1307,945,cs),
(1307,1180,l)
);
}
);
width = 1770;
},
{
layerId = "94F54C43-8AEE-4ED6-B3C2-2A9D33534E61";
shapes = (
{
closed = 1;
nodes = (
(397,1226,l),
(397,1195,ls),
(397,912,o),
(328,663,o),
(42,546,c),
(234,289,l),
(565,434,o),
(661,778,o),
(661,1195,cs),
(661,1226,l)
);
},
{
closed = 1;
nodes = (
(502,1226,l),
(502,1198,ls),
(502,815,o),
(583,431,o),
(914,271,c),
(1068,534,l),
(810,681,o),
(755,938,o),
(755,1198,cs),
(755,1226,l)
);
},
{
closed = 1;
nodes = (
(1082,1226,l),
(1082,1198,ls),
(1082,940,o),
(1024,682,o),
(760,534,c),
(914,271,l),
(1211,411,o),
(1335,743,o),
(1335,1198,cs),
(1335,1226,l)
);
},
{
closed = 1;
nodes = (
(1174,1226,l),
(1174,1195,ls),
(1174,782,o),
(1270,435,o),
(1602,289,c),
(1793,546,l),
(1508,665,o),
(1439,917,o),
(1439,1195,cs),
(1439,1226,l)
);
}
);
width = 1770;
}
);
unicode = (12614,65462);
}
{
glyphname = "ieungCompa-ko";
layers = (
{
layerId = m01;
shapes = (
{
closed = 1;
nodes = (
(572,1220,o),
(326,1016,o),
(326,733,cs),
(326,448,o),
(572,245,o),
(885,245,cs),
(1200,245,o),
(1444,448,o),
(1444,733,cs),
(1444,1016,o),
(1200,1220,o),
(885,1220,cs)
);
},
{
closed = 1;
nodes = (
(1113,1084,o),
(1292,936,o),
(1292,733,cs),
(1292,528,o),
(1114,378,o),
(885,378,cs),
(657,378,o),
(478,528,o),
(478,733,cs),
(478,936,o),
(658,1084,o),
(885,1084,cs)
);
}
);
width = 1770;
},
{
layerId = "94F54C43-8AEE-4ED6-B3C2-2A9D33534E61";
shapes = (
{
closed = 1;
nodes = (
(556,1291,o),
(278,1061,o),
(278,750,cs),
(278,438,o),
(556,206,o),
(887,206,cs),
(1219,206,o),
(1497,438,o),
(1497,750,cs),
(1497,1061,o),
(1219,1291,o),
(887,1291,cs)
);
},
{
closed = 1;
nodes = (
(1035,989,o),
(1156,905,o),
(1156,750,cs),
(1156,592,o),
(1036,509,o),
(887,509,cs),
(737,509,o),
(617,592,o),
(617,750,cs),
(617,905,o),
(738,989,o),
(887,989,cs)
);
}
);
width = 1770;
}
);
unicode = 12615;
}
{
glyphname = uni3147;
layers = (
{
layerId = m01;
shapes = (
{
closed = 1;
nodes = (
(573,1220,o),
(327,1016,o),
(327,733,cs),
(327,448,o),
(573,245,o),
(886,245,cs),
(1201,245,o),
(1445,448,o),
(1445,733,cs),
(1445,1016,o),
(1201,1220,o),
(886,1220,cs)
);
},
{
closed = 1;
nodes = (
(1114,1084,o),
(1293,936,o),
(1293,733,cs),
(1293,528,o),
(1115,378,o),
(886,378,cs),
(658,378,o),
(479,528,o),
(479,733,cs),
(479,936,o),
(659,1084,o),
(886,1084,cs)
);
}
);
width = 1770;
},
{
layerId = "94F54C43-8AEE-4ED6-B3C2-2A9D33534E61";
shapes = (
{
closed = 1;
nodes = (
(557,1289,o),
(279,1060,o),
(279,750,cs),
(279,438,o),
(557,207,o),
(888,207,cs),
(1219,207,o),
(1497,438,o),
(1497,750,cs),
(1497,1060,o),
(1219,1289,o),
(888,1289,cs)
);
},
{
closed = 1;
nodes = (
(1038,990,o),
(1160,905,o),
(1160,750,cs),
(1160,590,o),
(1038,506,o),
(888,506,cs),
(737,506,o),
(616,590,o),
(616,750,cs),
(616,905,o),
(737,990,o),
(888,990,cs)
);
}
);
width = 1770;
}
);
unicode = (12615,65463);
}
{
glyphname = uni3148;
layers = (
{
layerId = m01;
shapes = (
{
closed = 1;
nodes = (
(823,1175,l),
(823,959,ls),
(823,665,o),
(601,450,o),
(300,370,c),
(376,247,l),
(706,345,o),
(952,590,o),
(952,959,cs),
(952,1175,l)
);
},
{
closed = 1;
nodes = (
(851,1175,l),
(851,959,ls),
(851,590,o),
(1096,345,o),
(1426,247,c),
(1503,370,l),
(1202,450,o),
(980,665,o),
(980,959,cs),
(980,1175,l)
);
},
{
closed = 1;
nodes = (
(349,1211,l),
(349,1083,l),
(1455,1083,l),
(1455,1211,l)
);
}
);
width = 1771;
},
{
layerId = "94F54C43-8AEE-4ED6-B3C2-2A9D33534E61";
shapes = (
{
closed = 1;
nodes = (
(704,1250,l),
(704,1026,ls),
(704,789,o),
(606,548,o),
(203,467,c),
(362,198,l),
(826,309,o),
(985,634,o),
(985,1026,cs),
(985,1250,l)
);
},
{
closed = 1;
nodes = (
(780,1250,l),
(780,1026,ls),
(780,634,o),
(939,309,o),
(1401,198,c),
(1561,467,l),
(1158,548,o),
(1058,790,o),
(1058,1026,cs),
(1058,1250,l)
);
},
{
closed = 1;
nodes = (
(277,1285,l),
(277,1005,l),
(1507,1005,l),
(1507,1285,l)
);
}
);
width = 1771;
}
);
unicode = (12616,65464);
}
{
glyphname = uni3149;
layers = (
{
layerId = m01;
shapes = (
{
closed = 1;
nodes = (
(487,1178,l),
(487,982,ls),
(487,753,o),
(394,503,o),
(159,394,c),
(255,270,l),
(511,398,o),
(616,689,o),
(616,982,cs),
(616,1178,l)
);
},
{
closed = 1;
nodes = (
(510,1178,l),
(510,982,ls),
(510,619,o),
(610,359,o),
(901,245,c),
(984,379,l),
(736,460,o),
(644,684,o),
(644,982,cs),
(644,1178,l)
);
},
{
closed = 1;
nodes = (
(1158,1178,l),
(1158,982,ls),
(1158,684,o),
(1065,460,o),
(817,379,c),
(900,245,l),
(1193,359,o),
(1292,619,o),
(1292,982,cs),
(1292,1178,l)
);
},
{
closed = 1;
nodes = (
(1185,1178,l),
(1185,982,ls),
(1185,694,o),
(1281,399,o),
(1537,270,c),
(1633,394,l),
(1401,505,o),
(1314,755,o),
(1314,982,cs),
(1314,1178,l)
);
},
{
closed = 1;
nodes = (
(238,1223,l),
(238,1095,l),
(863,1095,l),
(863,1223,l)
);
},
{
closed = 1;
nodes = (
(936,1223,l),
(936,1095,l),
(1561,1095,l),
(1561,1223,l)
);
}
);
width = 1770;
},
{
layerId = "94F54C43-8AEE-4ED6-B3C2-2A9D33534E61";
shapes = (
{
closed = 1;
nodes = (
(365,1223,l),
(365,1183,ls),
(365,883,o),
(301,612,o),
(5,483,c),
(210,203,l),
(557,362,o),
(649,736,o),
(649,1183,cs),
(649,1223,l)
);
},
{
closed = 1;
nodes = (
(421,1223,l),
(421,1183,ls),
(421,668,o),
(498,315,o),
(919,175,c),
(1104,479,l),
(778,555,o),
(715,816,o),
(715,1183,cs),
(715,1223,l)
);
},
{
closed = 1;
nodes = (
(1118,1223,l),
(1118,1183,ls),
(1118,816,o),
(1055,555,o),
(729,479,c),
(916,175,l),
(1337,315,o),
(1414,668,o),
(1414,1183,cs),
(1414,1223,l)
);
},
{
closed = 1;
nodes = (
(1184,1223,l),
(1184,1183,ls),
(1184,736,o),
(1276,362,o),
(1627,203,c),
(1831,483,l),
(1535,610,o),
(1468,882,o),
(1468,1183,cs),
(1468,1223,l)
);
},
{
closed = 1;
nodes = (
(128,1283,l),
(128,1006,l),
(875,1006,l),
(875,1283,l)
);
},
{
closed = 1;
nodes = (
(955,1283,l),
(955,1006,l),
(1703,1006,l),
(1703,1283,l)
);
}
);
width = 1770;
}
);
unicode = (12617,65465);
}
{
glyphname = uni314A;
layers = (
{
layerId = m01;
shapes = (
{
closed = 1;
nodes = (
(798,935,l),
(798,863,ls),
(798,596,o),
(587,398,o),
(286,329,c),
(363,204,l),
(691,291,o),
(933,518,o),
(933,863,cs),
(933,935,l)
);
},
{
closed = 1;
nodes = (
(846,935,l),
(846,863,ls),
(846,518,o),
(1090,291,o),
(1418,204,c),
(1493,329,l),
(1192,398,o),
(981,596,o),
(981,863,cs),
(981,935,l)
);
},
{
closed = 1;
nodes = (
(334,1048,l),
(334,917,l),
(1446,917,l),
(1446,1048,l)
);
},
{
closed = 1;
nodes = (
(812,1305,l),
(812,983,l),
(970,983,l),
(970,1305,l)
);
}
);
width = 1771;
},
{
layerId = "94F54C43-8AEE-4ED6-B3C2-2A9D33534E61";
shapes = (
{
closed = 1;
nodes = (
(665,867,l),
(665,863,ls),
(665,692,o),
(586,511,o),
(176,461,c),
(331,185,l),
(802,264,o),
(962,525,o),
(962,863,cs),
(962,867,l)
);
},
{
closed = 1;
nodes = (
(800,867,l),
(800,863,ls),
(800,525,o),
(959,264,o),
(1430,185,c),
(1586,461,l),
(1177,511,o),
(1096,692,o),
(1096,863,cs),
(1096,867,l)
);
},
{
closed = 1;
nodes = (
(258,1136,l),
(258,850,l),
(1510,850,l),
(1510,1136,l)
);
},
{
closed = 1;
nodes = (
(706,1417,l),
(706,991,l),
(1060,991,l),
(1060,1417,l)
);
}
);
width = 1771;
}
);
unicode = (12618,65466);
}
{
glyphname = uni314B;
layers = (
{
layerId = m01;
shapes = (
{
closed = 1;
nodes = (
(350,1216,l),
(350,1087,l),
(1295,1087,l),
(1295,243,l),
(1453,243,l),
(1453,1216,l)
);
},
{
closed = 1;
nodes = (
(1350,791,l),
(311,745,l),
(333,603,l),
(1350,665,l)
);
}
);
width = 1770;
},
{
layerId = "94F54C43-8AEE-4ED6-B3C2-2A9D33534E61";
shapes = (
{
closed = 1;
nodes = (
(323,1284,l),
(323,1005,l),
(1157,1005,l),
(1157,217,l),
(1515,217,l),
(1515,1284,l)
);
},
{
closed = 1;
nodes = (
(1245,832,l),
(264,795,l),
(302,497,l),
(1245,564,l)
);
}
);
width = 1770;
}
);
unicode = (12619,65467);
}
{
glyphname = uni314C;
layers = (
{
layerId = m01;
shapes = (
{
closed = 1;
nodes = (
(340,1197,l),
(340,321,l),
(497,321,l),
(497,1067,l),
(1452,1067,l),
(1452,1197,l)
);
},
{
closed = 1;
nodes = (
(340,388,l),
(340,258,l),
(1468,258,l),
(1468,388,l)
);
},
{
closed = 1;
nodes = (
(378,801,l),
(378,671,l),
(1437,671,l),
(1437,801,l)
);
}
);
width = 1770;
},
{
layerId = "94F54C43-8AEE-4ED6-B3C2-2A9D33534E61";
shapes = (
{
closed = 1;
nodes = (
(266,1272,l),
(266,365,l),
(628,365,l),
(628,989,l),
(1478,989,l),
(1478,1272,l)
);
},
{
closed = 1;
nodes = (
(266,513,l),
(266,228,l),
(1493,228,l),
(1493,513,l)
);
},
{
closed = 1;
nodes = (
(333,897,l),
(333,615,l),
(1461,615,l),
(1461,897,l)
);
}
);
width = 1770;
}
);
unicode = (12620,65468);
}
{
glyphname = uni314D;
layers = (
{
layerId = m01;
shapes = (
{
closed = 1;
nodes = (
(318,1192,l),
(318,1063,l),
(1473,1063,l),
(1473,1192,l)
);
},
{
closed = 1;
nodes = (
(292,379,l),
(292,249,l),
(1500,249,l),
(1500,379,l)
);
},
{
closed = 1;
nodes = (
(554,1091,l),
(554,327,l),
(710,327,l),
(710,1091,l)
);
},
{
closed = 1;
nodes = (
(1081,1091,l),
(1081,327,l),
(1238,327,l),
(1238,1091,l)
);
}
);
width = 1771;
},
{
layerId = "94F54C43-8AEE-4ED6-B3C2-2A9D33534E61";
shapes = (
{
closed = 1;
nodes = (
(272,1274,l),
(272,995,l),
(1502,995,l),
(1502,1274,l)
);
},
{
closed = 1;
nodes = (
(246,492,l),
(246,211,l),
(1528,211,l),
(1528,492,l)
);
},
{
closed = 1;
nodes = (
(404,1045,l),
(404,382,l),
(756,382,l),
(756,1045,l)
);
},
{
closed = 1;
nodes = (
(1022,1045,l),
(1022,382,l),
(1375,382,l),
(1375,1045,l)
);
}
);
width = 1771;
}
);
unicode = (12621,65469);
}
{
glyphname = uni314E;
layers = (
{
layerId = m01;
shapes = (
{
closed = 1;
nodes = (
(300,1075,l),
(300,944,l),
(1489,944,l),
(1489,1075,l)
);
},
{
closed = 1;
nodes = (
(643,817,o),
(456,682,o),
(456,494,cs),
(456,304,o),
(643,170,o),
(896,170,cs),
(1149,170,o),
(1334,304,o),
(1334,494,cs),
(1334,682,o),
(1149,817,o),
(896,817,cs)
);
},
{
closed = 1;
nodes = (
(1054,684,o),
(1174,605,o),
(1174,494,cs),
(1174,382,o),
(1054,304,o),
(896,304,cs),
(737,304,o),
(617,382,o),
(617,494,cs),
(617,605,o),
(737,684,o),
(896,684,cs)
);
},
{
closed = 1;
nodes = (
(817,1315,l),
(817,968,l),
(974,968,l),
(974,1315,l)
);
}
);
width = 1770;
},
{
layerId = "94F54C43-8AEE-4ED6-B3C2-2A9D33534E61";
shapes = (
{
closed = 1;
nodes = (
(266,1247,l),
(266,958,l),
(1503,958,l),
(1503,1247,l)
);
},
{
closed = 1;
nodes = (
(589,896,o),
(369,736,o),
(369,508,cs),
(369,282,o),
(589,123,o),
(889,123,cs),
(1188,123,o),
(1410,282,o),
(1410,508,cs),
(1410,736,o),
(1188,896,o),
(889,896,cs)
);
},
{
closed = 1;
nodes = (
(976,597,o),
(1041,581,o),
(1041,508,cs),
(1041,438,o),
(976,421,o),
(889,421,cs),
(802,421,o),
(738,438,o),
(738,508,cs),
(738,581,o),
(802,597,o),
(889,597,cs)
);
},
{
closed = 1;
nodes = (
(711,1458,l),
(711,987,l),
(1070,987,l),
(1070,1458,l)
);
}
);
width = 1770;
}
);
unicode = (12622,65470);
}
{
glyphname = uni314F;
layers = (
{
layerId = m01;
shapes = (
{
closed = 1;
nodes = (
(754,1583,l),
(754,-161,l),
(910,-161,l),
(910,1583,l)
);
},
{
closed = 1;
nodes = (
(871,871,l),
(871,738,l),
(1330,738,l),
(1330,871,l)
);
}
);
width = 1770;
},
{
layerId = "94F54C43-8AEE-4ED6-B3C2-2A9D33534E61";
shapes = (
{
closed = 1;
nodes = (
(645,1656,l),
(645,-202,l),
(1003,-202,l),
(1003,1656,l)
);
},
{
closed = 1;
nodes = (
(920,984,l),
(920,693,l),
(1342,693,l),
(1342,984,l)
);
}
);
width = 1770;
}
);
unicode = (12623,65474);
}
{
glyphname = uni3150;
layers = (
{
layerId = m01;
shapes = (
{
closed = 1;
nodes = (
(1057,1588,l),
(1057,-156,l),
(1207,-156,l),
(1207,1588,l)
);
},
{
closed = 1;
nodes = (
(691,885,l),
(691,755,l),
(1117,755,l),
(1117,885,l)
);
},
{
closed = 1;
nodes = (
(593,1559,l),
(593,-92,l),
(743,-92,l),
(743,1559,l)
);
}
);
width = 1770;
},
{
layerId = "94F54C43-8AEE-4ED6-B3C2-2A9D33534E61";
shapes = (
{
closed = 1;
nodes = (
(986,1659,l),
(986,-198,l),
(1323,-198,l),
(1323,1659,l)
);
},
{
closed = 1;
nodes = (
(738,997,l),
(738,711,l),
(1092,711,l),
(1092,997,l)
);
},
{
closed = 1;
nodes = (
(489,1630,l),
(489,-126,l),
(820,-126,l),
(820,1630,l)
);
}
);
width = 1770;
}
);
unicode = (12624,65475);
}
{
glyphname = uni3151;
layers = (
{
layerId = m01;
shapes = (
{
closed = 1;
nodes = (
(808,1070,l),
(808,938,l),
(1263,938,l),
(1263,1070,l)
);
},
{
closed = 1;
nodes = (
(808,588,l),
(808,455,l),
(1263,455,l),
(1263,588,l)
);
},
{
closed = 1;
nodes = (
(697,1588,l),
(697,-156,l),
(855,-156,l),
(855,1588,l)
);
}
);
width = 1770;
},
{
layerId = "94F54C43-8AEE-4ED6-B3C2-2A9D33534E61";
shapes = (
{
closed = 1;
nodes = (
(876,1256,l),
(876,964,l),
(1301,964,l),
(1301,1256,l)
);
},
{
closed = 1;
nodes = (
(876,710,l),
(876,422,l),
(1301,422,l),
(1301,710,l)
);
},
{
closed = 1;
nodes = (
(609,1656,l),
(609,-202,l),
(965,-202,l),
(965,1656,l)
);
}
);
width = 1770;
}
);
unicode = (12625,65476);
}
{
glyphname = uni3152;
layers = (
{
layerId = m01;
shapes = (
{
closed = 1;
nodes = (
(1050,1584,l),
(1050,-160,l),
(1199,-160,l),
(1199,1584,l)
);
},
{
closed = 1;
nodes = (
(699,1096,l),
(699,963,l),
(1088,963,l),
(1088,1096,l)
);
},
{
closed = 1;
nodes = (
(594,1559,l),
(594,-95,l),
(743,-95,l),
(743,1559,l)
);
},
{
closed = 1;
nodes = (
(699,616,l),
(699,484,l),
(1088,484,l),
(1088,616,l)
);
}
);
width = 1770;
},
{
layerId = "94F54C43-8AEE-4ED6-B3C2-2A9D33534E61";
shapes = (
{
closed = 1;
nodes = (
(966,1653,l),
(966,-207,l),
(1307,-207,l),
(1307,1653,l)
);
},
{
closed = 1;
nodes = (
(757,1303,l),
(757,1011,l),
(1015,1011,l),
(1015,1303,l)
);
},
{
closed = 1;
nodes = (
(486,1631,l),
(486,-138,l),
(821,-138,l),
(821,1631,l)
);
},
{
closed = 1;
nodes = (
(757,742,l),
(757,450,l),
(1015,450,l),
(1015,742,l)
);
}
);
width = 1770;
}
);
unicode = (12626,65477);
}
{
glyphname = uni3153;
layers = (
{
layerId = m01;
shapes = (
{
closed = 1;
nodes = (
(986,1585,l),
(986,-159,l),
(1142,-159,l),
(1142,1585,l)
);
},
{
closed = 1;
nodes = (
(562,881,l),
(562,748,l),
(1030,748,l),
(1030,881,l)
);
}
);
width = 1770;
},
{
layerId = "94F54C43-8AEE-4ED6-B3C2-2A9D33534E61";
shapes = (
{
closed = 1;
nodes = (
(893,1661,l),
(893,-196,l),
(1247,-196,l),
(1247,1661,l)
);
},
{
closed = 1;
nodes = (
(543,1013,l),
(543,722,l),
(951,722,l),
(951,1013,l)
);
}
);
width = 1770;
}
);
unicode = (12627,65478);
}
{
glyphname = uni3154;
layers = (
{
layerId = m01;
shapes = (
{
closed = 1;
nodes = (
(1119,1583,l),
(1119,-161,l),
(1271,-161,l),
(1271,1583,l)
);
},
{
closed = 1;
nodes = (
(435,887,l),
(435,755,l),
(838,755,l),
(838,887,l)
);
},
{
closed = 1;
nodes = (
(766,1557,l),
(766,-97,l),
(916,-97,l),
(916,1557,l)
);
}
);
width = 1770;
},
{
layerId = "94F54C43-8AEE-4ED6-B3C2-2A9D33534E61";
shapes = (
{
closed = 1;
nodes = (
(1046,1661,l),
(1046,-196,l),
(1382,-196,l),
(1382,1661,l)
);
},
{
closed = 1;
nodes = (
(412,1001,l),
(412,711,l),
(758,711,l),
(758,1001,l)
);
},
{
closed = 1;
nodes = (
(619,1624,l),
(619,-143,l),
(950,-143,l),
(950,1624,l)
);
}
);
width = 1770;
}
);
unicode = (12628,65479);
}
{
glyphname = uni3155;
layers = (
{
layerId = m01;
shapes = (
{
closed = 1;
nodes = (
(990,1586,l),
(990,-159,l),
(1148,-159,l),
(1148,1586,l)
);
},
{
closed = 1;
nodes = (
(566,1098,l),
(566,966,l),
(1033,966,l),
(1033,1098,l)
);
},
{
closed = 1;
nodes = (
(566,633,l),
(566,501,l),
(1033,501,l),
(1033,633,l)
);
}
);
width = 1771;
},
{
layerId = "94F54C43-8AEE-4ED6-B3C2-2A9D33534E61";
shapes = (
{
closed = 1;
nodes = (
(898,1654,l),
(898,-204,l),
(1255,-204,l),
(1255,1654,l)
);
},
{
closed = 1;
nodes = (
(532,1270,l),
(532,980,l),
(940,980,l),
(940,1270,l)
);
},
{
closed = 1;
nodes = (
(532,708,l),
(532,419,l),
(940,419,l),
(940,708,l)
);
}
);
width = 1771;
}
);
unicode = (12629,65482);
}
{
glyphname = "yeoCompa-ko";
layers = (
{
layerId = m01;
shapes = (
{
closed = 1;
nodes = (
(989,1586,l),
(989,-159,l),
(1147,-159,l),
(1147,1586,l)
);
},
{
closed = 1;
nodes = (
(565,1098,l),
(565,966,l),
(1032,966,l),
(1032,1098,l)
);
},
{
closed = 1;
nodes = (
(565,633,l),
(565,501,l),
(1032,501,l),
(1032,633,l)
);
}
);
width = 1770;
},
{
layerId = "94F54C43-8AEE-4ED6-B3C2-2A9D33534E61";
shapes = (
{
closed = 1;
nodes = (
(896,1655,l),
(896,-205,l),
(1256,-205,l),
(1256,1655,l)
);
},
{
closed = 1;
nodes = (
(531,1274,l),
(531,980,l),
(937,980,l),
(937,1274,l)
);
},
{
closed = 1;
nodes = (
(531,709,l),
(531,417,l),
(937,417,l),
(937,709,l)
);
}
);
width = 1770;
}
);
unicode = 12629;
}
{
glyphname = uni3156;
layers = (
{
layerId = m01;
shapes = (
{
closed = 1;
nodes = (
(430,1107,l),
(430,974,l),
(827,974,l),
(827,1107,l)
);
},
{
closed = 1;
nodes = (
(427,639,l),
(427,509,l),
(825,509,l),
(825,639,l)
);
},
{
closed = 1;
nodes = (
(1115,1581,l),
(1115,-163,l),
(1267,-163,l),
(1267,1581,l)
);
},
{
closed = 1;
nodes = (
(767,1557,l),
(767,-98,l),
(916,-98,l),
(916,1557,l)
);
}
);
width = 1771;
},
{
layerId = "94F54C43-8AEE-4ED6-B3C2-2A9D33534E61";
shapes = (
{
closed = 1;
nodes = (
(385,1239,l),
(385,952,l),
(731,952,l),
(731,1239,l)
);
},
{
closed = 1;
nodes = (
(375,711,l),
(375,426,l),
(722,426,l),
(722,711,l)
);
},
{
closed = 1;
nodes = (
(1032,1659,l),
(1032,-198,l),
(1369,-198,l),
(1369,1659,l)
);
},
{
closed = 1;
nodes = (
(621,1621,l),
(621,-146,l),
(951,-146,l),
(951,1621,l)
);
}
);
width = 1771;
}
);
unicode = (12630,65483);
}
{
glyphname = uni3157;
layers = (
{
layerId = m01;
shapes = (
{
closed = 1;
nodes = (
(76,506,l),
(76,375,l),
(1690,375,l),
(1690,506,l)
);
},
{
closed = 1;
nodes = (
(803,1248,l),
(803,461,l),
(960,461,l),
(960,1248,l)
);
}
);
width = 1770;
},
{
layerId = "94F54C43-8AEE-4ED6-B3C2-2A9D33534E61";
shapes = (
{
closed = 1;
nodes = (
(35,593,l),
(35,309,l),
(1739,309,l),
(1739,593,l)
);
},
{
closed = 1;
nodes = (
(707,1250,l),
(707,516,l),
(1063,516,l),
(1063,1250,l)
);
}
);
width = 1770;
}
);
unicode = (12631,65484);
}
{
glyphname = uni3158;
layers = (
{
layerId = m01;
shapes = (
{
closed = 1;
nodes = (
(571,1036,l),
(571,400,l),
(726,400,l),
(726,1036,l)
);
},
{
closed = 1;
nodes = (
(1279,1583,l),
(1279,-162,l),
(1435,-162,l),
(1435,1583,l)
);
},
{
closed = 1;
nodes = (
(1375,868,l),
(1375,734,l),
(1708,734,l),
(1708,868,l)
);
},
{
closed = 1;
nodes = (
(112,283,l),
(419,283,o),
(839,293,o),
(1203,351,c),
(1189,467,l),
(837,424,o),
(402,417,o),
(90,417,c)
);
}
);
width = 1770;
},
{
layerId = "94F54C43-8AEE-4ED6-B3C2-2A9D33534E61";
shapes = (
{
closed = 1;
nodes = (
(407,1087,l),
(407,466,l),
(755,466,l),
(755,1087,l)
);
},
{
closed = 1;
nodes = (
(1211,1657,l),
(1211,-200,l),
(1567,-200,l),
(1567,1657,l)
);
},
{
closed = 1;
nodes = (
(1452,972,l),
(1452,679,l),
(1768,679,l),
(1768,972,l)
);
},
{
closed = 1;
nodes = (
(36,187,l),
(357,187,o),
(779,197,o),
(1154,265,c),
(1127,519,l),
(760,476,o),
(324,472,o),
(2,472,c)
);
}
);
width = 1770;
}
);
unicode = (12632,65485);
}
{
glyphname = uni3159;
layers = (
{
layerId = m01;
shapes = (
{
closed = 1;
nodes = (
(490,1046,l),
(490,417,l),
(637,417,l),
(637,1046,l)
);
},
{
closed = 1;
nodes = (
(117,325,l),
(361,325,o),
(738,333,o),
(1020,380,c),
(1008,499,l),
(732,463,o),
(344,456,o),
(99,456,c)
);
},
{
closed = 1;
nodes = (
(1441,1585,l),
(1441,-161,l),
(1593,-161,l),
(1593,1585,l)
);
},
{
closed = 1;
nodes = (
(1181,875,l),
(1181,745,l),
(1508,745,l),
(1508,875,l)
);
},
{
closed = 1;
nodes = (
(1084,1559,l),
(1084,-94,l),
(1233,-94,l),
(1233,1559,l)
);
}
);
width = 1771;
},
{
layerId = "94F54C43-8AEE-4ED6-B3C2-2A9D33534E61";
shapes = (
{
closed = 1;
nodes = (
(362,1075,l),
(362,451,l),
(686,451,l),
(686,1075,l)
);
},
{
closed = 1;
nodes = (
(65,250,l),
(309,250,o),
(684,261,o),
(966,318,c),
(939,573,l),
(662,538,o),
(278,534,o),
(36,534,c)
);
},
{
closed = 1;
nodes = (
(1418,1663,l),
(1418,-194,l),
(1755,-194,l),
(1755,1663,l)
);
},
{
closed = 1;
nodes = (
(1242,933,l),
(1242,647,l),
(1517,647,l),
(1517,933,l)
);
},
{
closed = 1;
nodes = (
(1021,1637,l),
(1021,-129,l),
(1349,-129,l),
(1349,1637,l)
);
}
);
width = 1771;
}
);
unicode = (12633,65486);
}
{
glyphname = uni315A;
layers = (
{
layerId = m01;
shapes = (
{
closed = 1;
nodes = (
(656,1026,l),
(656,401,l),
(810,401,l),
(810,1026,l)
);
},
{
closed = 1;
nodes = (
(1380,1586,l),
(1380,-158,l),
(1537,-158,l),
(1537,1586,l)
);
},
{
closed = 1;
nodes = (
(193,314,l),
(499,314,o),
(917,322,o),
(1283,381,c),
(1270,498,l),
(914,450,o),
(479,448,o),
(169,448,c)
);
}
);
width = 1771;
},
{
layerId = "94F54C43-8AEE-4ED6-B3C2-2A9D33534E61";
shapes = (
{
closed = 1;
nodes = (
(526,1068,l),
(526,419,l),
(878,419,l),
(878,1068,l)
);
},
{
closed = 1;
nodes = (
(1331,1667,l),
(1331,-190,l),
(1690,-190,l),
(1690,1667,l)
);
},
{
closed = 1;
nodes = (
(134,248,l),
(466,248,o),
(888,254,o),
(1283,322,c),
(1255,580,l),
(872,532,o),
(430,531,o),
(93,531,c)
);
}
);
width = 1771;
}
);
unicode = (12634,65487);
}
{
glyphname = uni315B;
layers = (
{
layerId = m01;
shapes = (
{
closed = 1;
nodes = (
(90,458,l),
(90,328,l),
(1703,328,l),
(1703,458,l)
);
},
{
closed = 1;
nodes = (
(510,1243,l),
(510,405,l),
(665,405,l),
(665,1243,l)
);
},
{
closed = 1;
nodes = (
(1130,1243,l),
(1130,409,l),
(1286,409,l),
(1286,1243,l)
);
}
);
width = 1770;
},
{
layerId = "94F54C43-8AEE-4ED6-B3C2-2A9D33534E61";
shapes = (
{
closed = 1;
nodes = (
(33,536,l),
(33,252,l),
(1736,252,l),
(1736,536,l)
);
},
{
closed = 1;
nodes = (
(368,1228,l),
(368,446,l),
(718,446,l),
(718,1228,l)
);
},
{
closed = 1;
nodes = (
(1050,1228,l),
(1050,445,l),
(1400,445,l),
(1400,1228,l)
);
}
);
width = 1770;
}
);
unicode = (12635,65490);
}
{
glyphname = uni315C;
layers = (
{
layerId = m01;
shapes = (
{
closed = 1;
nodes = (
(87,1010,l),
(87,879,l),
(1701,879,l),
(1701,1010,l)
);
},
{
closed = 1;
nodes = (
(814,929,l),
(814,116,l),
(972,116,l),
(972,929,l)
);
}
);
width = 1770;
},
{
layerId = "94F54C43-8AEE-4ED6-B3C2-2A9D33534E61";
shapes = (
{
closed = 1;
nodes = (
(31,1068,l),
(31,781,l),
(1735,781,l),
(1735,1068,l)
);
},
{
closed = 1;
nodes = (
(703,835,l),
(703,61,l),
(1063,61,l),
(1063,835,l)
);
}
);
width = 1770;
}
);
unicode = (12636,65491);
}
{
glyphname = uni315D;
layers = (
{
layerId = m01;
shapes = (
{
closed = 1;
nodes = (
(593,723,l),
(593,-25,l),
(752,-25,l),
(752,723,l)
);
},
{
closed = 1;
nodes = (
(1445,1583,l),
(1445,-161,l),
(1602,-161,l),
(1602,1583,l)
);
},
{
closed = 1;
nodes = (
(148,678,l),
(487,679,o),
(923,689,o),
(1314,743,c),
(1303,861,l),
(917,817,o),
(472,813,o),
(124,810,c)
);
},
{
closed = 1;
nodes = (
(1016,484,l),
(1016,359,l),
(1482,359,l),
(1482,484,l)
);
}
);
width = 1770;
},
{
layerId = "94F54C43-8AEE-4ED6-B3C2-2A9D33534E61";
shapes = (
{
closed = 1;
nodes = (
(489,682,l),
(489,-63,l),
(848,-63,l),
(848,682,l)
);
},
{
closed = 1;
nodes = (
(1358,1665,l),
(1358,-192,l),
(1716,-192,l),
(1716,1665,l)
);
},
{
closed = 1;
nodes = (
(80,624,l),
(426,626,o),
(855,636,o),
(1261,707,c),
(1240,959,l),
(842,907,o),
(388,906,o),
(40,903,c)
);
},
{
closed = 1;
nodes = (
(1034,529,l),
(1034,259,l),
(1421,259,l),
(1421,529,l)
);
}
);
width = 1770;
}
);
unicode = (12637,65492);
}
{
glyphname = uni315E;
layers = (
{
layerId = m01;
shapes = (
{
closed = 1;
nodes = (
(1479,1586,l),
(1479,-159,l),
(1631,-159,l),
(1631,1586,l)
);
},
{
closed = 1;
nodes = (
(1143,1544,l),
(1143,-112,l),
(1293,-112,l),
(1293,1544,l)
);
},
{
closed = 1;
nodes = (
(815,488,l),
(815,363,l),
(1207,363,l),
(1207,488,l)
);
},
{
closed = 1;
nodes = (
(504,740,l),
(504,-27,l),
(655,-27,l),
(655,740,l)
);
},
{
closed = 1;
nodes = (
(130,680,l),
(390,680,o),
(774,699,o),
(1055,743,c),
(1044,854,l),
(766,819,o),
(376,806,o),
(113,806,c)
);
}
);
width = 1770;
},
{
layerId = "94F54C43-8AEE-4ED6-B3C2-2A9D33534E61";
shapes = (
{
closed = 1;
nodes = (
(1411,1670,l),
(1411,-188,l),
(1749,-188,l),
(1749,1670,l)
);
},
{
closed = 1;
nodes = (
(1027,1644,l),
(1027,-122,l),
(1356,-122,l),
(1356,1644,l)
);
},
{
closed = 1;
nodes = (
(796,535,l),
(796,266,l),
(1144,266,l),
(1144,535,l)
);
},
{
closed = 1;
nodes = (
(362,695,l),
(362,-70,l),
(699,-70,l),
(699,695,l)
);
},
{
closed = 1;
nodes = (
(58,602,l),
(305,604,o),
(687,619,o),
(977,672,c),
(952,907,l),
(672,874,o),
(289,867,o),
(31,867,c)
);
}
);
width = 1770;
}
);
unicode = (12638,65493);
}
{
glyphname = uni315F;
layers = (
{
layerId = m01;
shapes = (
{
closed = 1;
nodes = (
(681,711,l),
(681,-26,l),
(836,-26,l),
(836,711,l)
);
},
{
closed = 1;
nodes = (
(1437,1583,l),
(1437,-162,l),
(1594,-162,l),
(1594,1583,l)
);
},
{
closed = 1;
nodes = (
(180,665,l),
(519,666,o),
(960,676,o),
(1354,731,c),
(1343,846,l),
(973,808,o),
(571,800,o),
(157,799,c)
);
}
);
width = 1770;
},
{
layerId = "94F54C43-8AEE-4ED6-B3C2-2A9D33534E61";
shapes = (
{
closed = 1;
nodes = (
(507,624,l),
(507,-67,l),
(867,-67,l),
(867,624,l)
);
},
{
closed = 1;
nodes = (
(1336,1658,l),
(1336,-201,l),
(1698,-201,l),
(1698,1658,l)
);
},
{
closed = 1;
nodes = (
(117,549,l),
(450,551,o),
(876,561,o),
(1270,627,c),
(1248,880,l),
(878,840,o),
(465,833,o),
(76,833,c)
);
}
);
width = 1770;
}
);
unicode = (12639,65494);
}
{
glyphname = uni3160;
layers = (
{
layerId = m01;
shapes = (
{
closed = 1;
nodes = (
(76,1013,l),
(76,883,l),
(1690,883,l),
(1690,1013,l)
);
},
{
closed = 1;
nodes = (
(508,924,l),
(508,117,l),
(663,117,l),
(663,924,l)
);
},
{
closed = 1;
nodes = (
(1095,924,l),
(1095,117,l),
(1252,117,l),
(1252,924,l)
);
}
);
width = 1771;
},
{
layerId = "94F54C43-8AEE-4ED6-B3C2-2A9D33534E61";
shapes = (
{
closed = 1;
nodes = (
(35,1076,l),
(35,793,l),
(1739,793,l),
(1739,1076,l)
);
},
{
closed = 1;
nodes = (
(375,841,l),
(375,64,l),
(731,64,l),
(731,841,l)
);
},
{
closed = 1;
nodes = (
(1028,841,l),
(1028,64,l),
(1384,64,l),
(1384,841,l)
);
}
);
width = 1771;
}
);
unicode = (12640,65495);
}
{
glyphname = uni3161;
layers = (
{
layerId = m01;
shapes = (
{
closed = 1;
nodes = (
(75,820,l),
(75,689,l),
(1689,689,l),
(1689,820,l)
);
}
);
width = 1770;
},
{
layerId = "94F54C43-8AEE-4ED6-B3C2-2A9D33534E61";
shapes = (
{
closed = 1;
nodes = (
(34,912,l),
(34,623,l),
(1738,623,l),
(1738,912,l)
);
}
);
width = 1770;
}
);
unicode = (12641,65498);
}
{
glyphname = uni3162;
layers = (
{
layerId = m01;
shapes = (
{
closed = 1;
nodes = (
(1401,1563,l),
(1401,-180,l),
(1558,-180,l),
(1558,1563,l)
);
},
{
closed = 1;
nodes = (
(147,403,l),
(477,403,o),
(911,412,o),
(1300,471,c),
(1290,588,l),
(922,542,o),
(507,536,o),
(124,535,c)
);
}
);
width = 1770;
},
{
layerId = "94F54C43-8AEE-4ED6-B3C2-2A9D33534E61";
shapes = (
{
closed = 1;
nodes = (
(1339,1674,l),
(1339,-187,l),
(1701,-187,l),
(1701,1674,l)
);
},
{
closed = 1;
nodes = (
(114,308,l),
(452,308,o),
(866,310,o),
(1258,376,c),
(1237,631,l),
(862,590,o),
(437,590,o),
(82,590,c)
);
}
);
width = 1770;
}
);
unicode = (12642,65499);
}
{
glyphname = uni3163;
layers = (
{
layerId = m01;
shapes = (
{
closed = 1;
nodes = (
(818,1586,l),
(818,-159,l),
(974,-159,l),
(974,1586,l)
);
}
);
width = 1770;
},
{
layerId = "94F54C43-8AEE-4ED6-B3C2-2A9D33534E61";
shapes = (
{
closed = 1;
nodes = (
(712,1665,l),
(712,-192,l),
(1067,-192,l),
(1067,1665,l)
);
}
);
width = 1770;
}
);
unicode = (12643,65500);
}
{
glyphname = "cieucuParen-ko";
layers = (
{
layerId = m01;
shapes = (
{
closed = 1;
nodes = (
(1906,-234,l),
(2054,32,o),
(2136,346,o),
(2138,724,cs),
(2136,1102,o),
(2054,1416,o),
(1906,1684,c),
(1784,1684,l),
(1894,1486,o),
(1994,1080,o),
(1994,724,cs),
(1994,368,o),
(1894,-36,o),
(1784,-234,c)
);
},
{
closed = 1;
nodes = (
(534,-234,l),
(426,-36,o),
(326,368,o),
(326,724,cs),
(326,1080,o),
(426,1486,o),
(534,1684,c),
(412,1684,l),
(266,1416,o),
(184,1102,o),
(182,724,cs),
(184,346,o),
(266,32,o),
(412,-234,c)
);
},
{
closed = 1;
nodes = (
(1236,42,l),
(1236,586,l),
(1078,586,l),
(1078,42,l)
);
},
{
closed = 1;
nodes = (
(1822,546,l),
(1822,676,l),
(498,676,l),
(498,546,l)
);
},
{
closed = 1;
nodes = (
(952,834,o),
(1210,1028,o),
(1210,1288,cs),
(1210,1340,l),
(1070,1340,l),
(1070,1288,ls),
(1070,1112,o),
(850,946,o),
(570,910,c),
(630,784,l)
);
},
{
closed = 1;
nodes = (
(1750,910,l),
(1468,946,o),
(1252,1112,o),
(1252,1288,cs),
(1252,1340,l),
(1112,1340,l),
(1112,1288,ls),
(1112,1028,o),
(1366,834,o),
(1692,784,c)
);
},
{
closed = 1;
nodes = (
(1698,1282,l),
(1698,1408,l),
(620,1408,l),
(620,1282,l)
);
}
);
width = 2320;
},
{
associatedMasterId = m01;
layerId = "A6889D9F-36C5-43B1-88CA-F55D0C8E3E3E";
name = "Sep 26, 21 14:36";
shapes = (
{
closed = 1;
nodes = (
(1416,-94,o),
(1782,272,o),
(1782,722,cs),
(1782,1174,o),
(1416,1540,o),
(964,1538,cs),
(514,1540,o),
(148,1174,o),
(148,722,cs),
(148,272,o),
(514,-94,o),
(964,-94,cs)
);
},
{
closed = 1;
nodes = (
(584,34,o),
(278,344,o),
(278,722,cs),
(278,1104,o),
(584,1412,o),
(964,1412,cs),
(1346,1412,o),
(1654,1104,o),
(1654,722,cs),
(1654,344,o),
(1346,34,o),
(964,36,cs)
);
},
{
closed = 1;
nodes = (
(888,1100,l),
(888,1064,ls),
(888,940,o),
(742,818,o),
(522,790,c),
(572,684,l),
(826,722,o),
(1004,870,o),
(1004,1064,cs),
(1004,1100,l)
);
},
{
closed = 1;
nodes = (
(924,1100,l),
(924,1064,ls),
(924,870,o),
(1104,722,o),
(1358,684,c),
(1408,790,l),
(1186,818,o),
(1040,940,o),
(1040,1064,cs),
(1040,1100,l)
);
},
{
closed = 1;
nodes = (
(896,538,l),
(896,132,l),
(1026,132,l),
(1026,538,l)
);
},
{
closed = 1;
nodes = (
(470,612,l),
(470,504,l),
(1458,504,l),
(1458,612,l)
);
},
{
closed = 1;
nodes = (
(560,1156,l),
(560,1050,l),
(1368,1050,l),
(1368,1156,l)
);
}
);
width = 1930;
},
{
associatedMasterId = m01;
layerId = "9B605A73-D706-4C7A-A269-13FE9E8E21A7";
name = "Sep 26, 21 15:09";
shapes = (
{
closed = 1;
nodes = (
(1106,1278,l),
(1106,1224,ls),
(1106,1048,o),
(886,884,o),
(606,846,c),
(668,720,l),
(990,770,o),
(1246,964,o),
(1246,1224,cs),
(1246,1278,l)
);
},
{
closed = 1;
nodes = (
(1148,1278,l),
(1148,1224,ls),
(1148,964,o),
(1404,770,o),
(1728,720,c),
(1786,846,l),
(1504,884,o),
(1288,1048,o),
(1288,1224,cs),
(1288,1278,l)
);
},
{
closed = 1;
nodes = (
(1114,524,l),
(1114,-22,l),
(1272,-22,l),
(1272,524,l)
);
},
{
closed = 1;
nodes = (
(534,612,l),
(534,482,l),
(1858,482,l),
(1858,612,l)
);
},
{
closed = 1;
nodes = (
(658,1344,l),
(658,1218,l),
(1736,1218,l),
(1736,1344,l)
);
}
);
width = 2394;
},
{
associatedMasterId = m01;
layerId = "CA206509-61BE-4103-B288-377B1551D050";
name = "Sep 26, 21 15:14";
shapes = (
{
closed = 1;
nodes = (
(1106,1340,l),
(1106,1288,ls),
(1106,1112,o),
(886,946,o),
(606,910,c),
(668,784,l),
(990,834,o),
(1246,1028,o),
(1246,1288,cs),
(1246,1340,l)
);
},
{
closed = 1;
nodes = (
(1148,1340,l),
(1148,1288,ls),
(1148,1028,o),
(1404,834,o),
(1728,784,c),
(1786,910,l),
(1504,946,o),
(1288,1112,o),
(1288,1288,cs),
(1288,1340,l)
);
},
{
closed = 1;
nodes = (
(1114,586,l),
(1114,42,l),
(1272,42,l),
(1272,586,l)
);
},
{
closed = 1;
nodes = (
(534,676,l),
(534,546,l),
(1858,546,l),
(1858,676,l)
);
},
{
closed = 1;
nodes = (
(658,1408,l),
(658,1282,l),
(1736,1282,l),
(1736,1408,l)
);
}
);
width = 2394;
},
{
associatedMasterId = m01;
layerId = "D924A5C2-A48D-4057-A62B-1ABD68C002BF";
name = "Sep 26, 21 15:20";
shapes = (
{
closed = 1;
nodes = (
(1072,1340,l),
(1072,1288,ls),
(1072,1112,o),
(852,946,o),
(572,910,c),
(634,784,l),
(956,834,o),
(1212,1028,o),
(1212,1288,cs),
(1212,1340,l)
);
},
{
closed = 1;
nodes = (
(1114,1340,l),
(1114,1288,ls),
(1114,1028,o),
(1370,834,o),
(1694,784,c),
(1752,910,l),
(1470,946,o),
(1254,1112,o),
(1254,1288,cs),
(1254,1340,l)
);
},
{
closed = 1;
nodes = (
(1080,586,l),
(1080,42,l),
(1238,42,l),
(1238,586,l)
);
},
{
closed = 1;
nodes = (
(500,676,l),
(500,546,l),
(1824,546,l),
(1824,676,l)
);
},
{
closed = 1;
nodes = (
(624,1408,l),
(624,1282,l),
(1702,1282,l),
(1702,1408,l)
);
}
);
width = 2326;
},
{
associatedMasterId = m01;
layerId = "BEEF33B1-3DAE-4D74-8D75-47CBF509C8C9";
name = "Feb 27, 22 21:50";
shapes = (
{
closed = 1;
nodes = (
(1058,1340,l),
(1058,1288,ls),
(1058,1112,o),
(838,946,o),
(558,910,c),
(620,784,l),
(942,834,o),
(1198,1028,o),
(1198,1288,cs),
(1198,1340,l)
);
},
{
closed = 1;
nodes = (
(1100,1340,l),
(1100,1288,ls),
(1100,1028,o),
(1354,834,o),
(1680,784,c),
(1738,910,l),
(1456,946,o),
(1240,1112,o),
(1240,1288,cs),
(1240,1340,l)
);
},
{
closed = 1;
nodes = (
(1066,586,l),
(1066,42,l),
(1224,42,l),
(1224,586,l)
);
},
{
closed = 1;
nodes = (
(486,676,l),
(486,546,l),
(1810,546,l),
(1810,676,l)
);
},
{
closed = 1;
nodes = (
(610,1408,l),
(610,1282,l),
(1688,1282,l),
(1688,1408,l)
);
},
{
closed = 1;
nodes = (
(182,368,o),
(260,70,o),
(398,-182,c),
(520,-182,l),
(412,6,o),
(326,388,o),
(326,724,cs),
(326,1060,o),
(412,1442,o),
(520,1630,c),
(398,1630,l),
(260,1378,o),
(182,1080,o),
(182,724,cs)
);
},
{
closed = 1;
nodes = (
(2114,1080,o),
(2038,1378,o),
(1898,1630,c),
(1776,1630,l),
(1884,1442,o),
(1972,1060,o),
(1972,724,cs),
(1972,388,o),
(1884,6,o),
(1776,-182,c),
(1898,-182,l),
(2038,70,o),
(2114,368,o),
(2114,724,cs)
);
}
);
width = 2296;
},
{
layerId = "94F54C43-8AEE-4ED6-B3C2-2A9D33534E61";
shapes = (
{
closed = 1;
nodes = (
(2170,-234,l),
(2330,36,o),
(2434,348,o),
(2434,724,cs),
(2434,1100,o),
(2330,1412,o),
(2170,1684,c),
(1834,1684,l),
(1950,1482,o),
(2080,1084,o),
(2080,724,cs),
(2080,364,o),
(1950,-34,o),
(1834,-234,c)
);
},
{
closed = 1;
nodes = (
(736,-234,l),
(620,-34,o),
(490,364,o),
(490,724,cs),
(490,1084,o),
(620,1482,o),
(736,1684,c),
(400,1684,l),
(240,1412,o),
(136,1100,o),
(136,724,cs),
(136,348,o),
(240,36,o),
(400,-234,c)
);
},
{
closed = 1;
nodes = (
(1426,60,l),
(1426,550,l),
(1132,550,l),
(1132,60,l)
);
},
{
closed = 1;
nodes = (
(1922,492,l),
(1922,724,l),
(648,724,l),
(648,492,l)
);
},
{
closed = 1;
nodes = (
(1250,800,o),
(1368,1024,o),
(1368,1260,cs),
(1368,1280,l),
(1112,1280,l),
(1112,1260,ls),
(1112,1174,o),
(1082,1022,o),
(690,984,c),
(798,754,l)
);
},
{
closed = 1;
nodes = (
(1880,984,l),
(1484,1022,o),
(1460,1174,o),
(1460,1260,cs),
(1460,1280,l),
(1202,1280,l),
(1202,1260,ls),
(1202,1024,o),
(1322,800,o),
(1776,754,c)
);
},
{
closed = 1;
nodes = (
(1818,1178,l),
(1818,1404,l),
(754,1404,l),
(754,1178,l)
);
}
);
width = 2569.62264;
}
);
unicode = 12828;
}
{
glyphname = uniAC00;
layers = (
{
layerId = m01;
shapes = (
{
closed = 1;
nodes = (
(1290,1615,l),
(1290,-161,l),
(1447,-161,l),
(1447,1615,l)
);
},
{
closed = 1;
nodes = (
(1406,892,l),
(1406,760,l),
(1737,760,l),
(1737,892,l)
);
},
{
closed = 1;
nodes = (
(832,1424,l),
(832,1400,ls),
(832,923,o),
(575,543,o),
(84,298,c),
(171,177,l),
(751,464,o),
(986,921,o),
(986,1424,c)
);
},
{
closed = 1;
nodes = (
(167,1424,l),
(167,1293,l),
(913,1293,l),
(913,1424,l)
);
}
);
width = 1770;
},
{
layerId = "94F54C43-8AEE-4ED6-B3C2-2A9D33534E61";
shapes = (
{
closed = 1;
nodes = (
(1172,1662,l),
(1172,-202,l),
(1532,-202,l),
(1532,1662,l)
);
},
{
closed = 1;
nodes = (
(1442,990,l),
(1442,696,l),
(1759,696,l),
(1759,990,l)
);
},
{
closed = 1;
nodes = (
(664,1477,l),
(664,1410,ls),
(664,887,o),
(449,600,o),
(-12,358,c),
(189,87,l),
(831,409,o),
(1018,888,o),
(1018,1477,c)
);
},
{
closed = 1;
nodes = (
(106,1477,l),
(106,1189,l),
(850,1189,l),
(850,1477,l)
);
}
);
width = 1770;
}
);
unicode = 44032;
}
{
glyphname = uniAC01;
layers = (
{
layerId = m01;
shapes = (
{
closed = 1;
nodes = (
(1304,1614,l),
(1304,573,l),
(1461,573,l),
(1461,1614,l)
);
},
{
closed = 1;
nodes = (
(1418,1163,l),
(1418,1030,l),
(1727,1030,l),
(1727,1163,l)
);
},
{
closed = 1;
nodes = (
(809,1499,l),
(809,1431,ls),
(809,1100,o),
(535,841,o),
(69,716,c),
(134,591,l),
(658,733,o),
(973,1052,o),
(973,1499,c)
);
},
{
closed = 1;
nodes = (
(149,1499,l),
(149,1372,l),
(896,1372,l),
(896,1499,l)
);
},
{
closed = 1;
nodes = (
(299,490,l),
(299,361,l),
(1304,361,l),
(1304,-162,l),
(1461,-162,l),
(1461,490,l)
);
}
);
width = 1770;
},
{
layerId = "94F54C43-8AEE-4ED6-B3C2-2A9D33534E61";
shapes = (
{
closed = 1;
nodes = (
(1173,1659,l),
(1173,587,l),
(1531,587,l),
(1531,1659,l)
);
},
{
closed = 1;
nodes = (
(1434,1261,l),
(1434,967,l),
(1757,967,l),
(1757,1261,l)
);
},
{
closed = 1;
nodes = (
(616,1568,l),
(616,1378,ls),
(616,1157,o),
(431,946,o),
(-11,844,c),
(135,569,l),
(701,709,o),
(999,1046,o),
(999,1568,c)
);
},
{
closed = 1;
nodes = (
(92,1568,l),
(92,1285,l),
(838,1285,l),
(838,1568,l)
);
},
{
closed = 1;
nodes = (
(247,516,l),
(247,236,l),
(1173,236,l),
(1173,-206,l),
(1531,-206,l),
(1531,516,l)
);
}
);
width = 1770;
}
);
unicode = 44033;
}
{
glyphname = "gagg-ko";
layers = (
{
layerId = m01;
shapes = (
{
closed = 1;
nodes = (
(1304,1614,l),
(1304,595,l),
(1461,595,l),
(1461,1614,l)
);
},
{
closed = 1;
nodes = (
(1418,1163,l),
(1418,1030,l),
(1727,1030,l),
(1727,1163,l)
);
},
{
closed = 1;
nodes = (
(258,511,l),
(258,380,l),
(669,380,l),
(669,-161,l),
(824,-161,l),
(824,511,l)
);
},
{
closed = 1;
nodes = (
(910,511,l),
(910,380,l),
(1305,380,l),
(1305,-161,l),
(1461,-161,l),
(1461,511,l)
);
},
{
closed = 1;
nodes = (
(809,1499,l),
(809,1431,ls),
(809,1100,o),
(535,841,o),
(69,716,c),
(134,591,l),
(658,733,o),
(973,1052,o),
(973,1499,c)
);
},
{
closed = 1;
nodes = (
(149,1499,l),
(149,1372,l),
(896,1372,l),
(896,1499,l)
);
}
);
width = 1770;
},
{
layerId = "94F54C43-8AEE-4ED6-B3C2-2A9D33534E61";
shapes = (
{
closed = 1;
nodes = (
(1173,1659,l),
(1173,616,l),
(1531,616,l),
(1531,1659,l)
);
},
{
closed = 1;
nodes = (
(1434,1281,l),
(1434,989,l),
(1757,989,l),
(1757,1281,l)
);
},
{
closed = 1;
nodes = (
(203,544,l),
(203,258,l),
(483,258,l),
(483,-207,l),
(840,-207,l),
(840,544,l)
);
},
{
closed = 1;
nodes = (
(913,544,l),
(913,258,l),
(1178,258,l),
(1178,-207,l),
(1531,-207,l),
(1531,544,l)
);
},
{
closed = 1;
nodes = (
(616,1568,l),
(616,1378,ls),
(616,1157,o),
(431,946,o),
(-11,844,c),
(135,569,l),
(701,709,o),
(999,1046,o),
(999,1568,c)
);
},
{
closed = 1;
nodes = (
(92,1568,l),
(92,1285,l),
(838,1285,l),
(838,1568,l)
);
}
);
width = 1770;
}
);
unicode = 44034;
}
{
glyphname = uniAC02;
layers = (
{
layerId = m01;
shapes = (
{
closed = 1;
nodes = (
(1305,1614,l),
(1305,595,l),
(1462,595,l),
(1462,1614,l)
);
},
{
closed = 1;
nodes = (
(1419,1163,l),
(1419,1030,l),
(1728,1030,l),
(1728,1163,l)
);
},
{
closed = 1;
nodes = (
(259,511,l),
(259,380,l),
(670,380,l),
(670,-161,l),
(825,-161,l),
(825,511,l)
);
},
{
closed = 1;
nodes = (
(911,511,l),
(911,380,l),
(1306,380,l),
(1306,-161,l),
(1462,-161,l),
(1462,511,l)
);
},
{
closed = 1;
nodes = (
(810,1499,l),
(810,1431,ls),
(810,1100,o),
(536,841,o),
(70,716,c),
(135,591,l),
(659,733,o),
(974,1052,o),
(974,1499,c)
);
},
{
closed = 1;
nodes = (
(150,1499,l),
(150,1372,l),
(897,1372,l),
(897,1499,l)
);
}
);
width = 1770;
},
{
layerId = "94F54C43-8AEE-4ED6-B3C2-2A9D33534E61";
shapes = (
{
closed = 1;
nodes = (
(1177,1658,l),
(1177,615,l),
(1531,615,l),
(1531,1658,l)
);
},
{
closed = 1;
nodes = (
(1435,1279,l),
(1435,990,l),
(1757,990,l),
(1757,1279,l)
);
},
{
closed = 1;
nodes = (
(205,544,l),
(205,260,l),
(487,260,l),
(487,-206,l),
(841,-206,l),
(841,544,l)
);
},
{
closed = 1;
nodes = (
(914,544,l),
(914,260,l),
(1182,260,l),
(1182,-206,l),
(1531,-206,l),
(1531,544,l)
);
},
{
closed = 1;
nodes = (
(621,1567,l),
(621,1379,ls),
(621,1155,o),
(434,944,o),
(-8,841,c),
(136,570,l),
(701,709,o),
(999,1046,o),
(999,1567,c)
);
},
{
closed = 1;
nodes = (
(95,1567,l),
(95,1286,l),
(839,1286,l),
(839,1567,l)
);
}
);
width = 1770;
}
);
unicode = 44034;
}
{
glyphname = uniAC04;
layers = (
{
layerId = m01;
shapes = (
{
closed = 1;
nodes = (
(1304,1614,l),
(1304,315,l),
(1462,315,l),
(1462,1614,l)
);
},
{
closed = 1;
nodes = (
(1413,1073,l),
(1413,941,l),
(1728,941,l),
(1728,1073,l)
);
},
{
closed = 1;
nodes = (
(815,1477,l),
(815,1409,ls),
(815,1064,o),
(528,788,o),
(75,647,c),
(142,520,l),
(655,681,o),
(982,1020,o),
(982,1477,c)
);
},
{
closed = 1;
nodes = (
(149,1477,l),
(149,1347,l),
(895,1347,l),
(895,1477,l)
);
},
{
closed = 1;
nodes = (
(347,8,l),
(347,-122,l),
(1542,-122,l),
(1542,8,l)
);
},
{
closed = 1;
nodes = (
(347,447,l),
(347,-44,l),
(504,-44,l),
(504,447,l)
);
}
);
width = 1770;
},
{
layerId = "94F54C43-8AEE-4ED6-B3C2-2A9D33534E61";
shapes = (
{
closed = 1;
nodes = (
(1174,1656,l),
(1174,351,l),
(1531,351,l),
(1531,1656,l)
);
},
{
closed = 1;
nodes = (
(1436,1178,l),
(1436,889,l),
(1757,889,l),
(1757,1178,l)
);
},
{
closed = 1;
nodes = (
(643,1523,l),
(643,1339,ls),
(643,1099,o),
(456,886,o),
(7,779,c),
(154,499,l),
(732,649,o),
(1023,995,o),
(1023,1523,c)
);
},
{
closed = 1;
nodes = (
(92,1523,l),
(92,1242,l),
(837,1242,l),
(837,1523,l)
);
},
{
closed = 1;
nodes = (
(279,101,l),
(279,-182,l),
(1579,-182,l),
(1579,101,l)
);
},
{
closed = 1;
nodes = (
(279,483,l),
(279,-32,l),
(637,-32,l),
(637,483,l)
);
}
);
width = 1770;
}
);
unicode = 44036;
}
{
glyphname = uniAC05;
layers = (
{
layerId = m01;
shapes = (
{
closed = 1;
nodes = (
(1304,1614,l),
(1304,646,l),
(1462,646,l),
(1462,1614,l)
);
},
{
closed = 1;
nodes = (
(1396,1187,l),
(1396,1056,l),
(1728,1056,l),
(1728,1187,l)
);
},
{
closed = 1;
nodes = (
(1098,523,l),
(1098,397,ls),
(1098,221,o),
(978,40,o),
(758,-35,c),
(832,-154,l),
(1089,-62,o),
(1221,161,o),
(1221,397,cs),
(1221,523,l)
);
},
{
closed = 1;
nodes = (
(1126,523,l),
(1126,397,ls),
(1126,156,o),
(1257,-63,o),
(1514,-154,c),
(1588,-35,l),
(1368,37,o),
(1248,216,o),
(1248,397,cs),
(1248,523,l)
);
},
{
closed = 1;
nodes = (
(260,30,l),
(260,-99,l),
(347,-99,ls),
(480,-99,o),
(662,-88,o),
(806,-13,c),
(760,112,l),
(643,44,o),
(460,30,o),
(347,30,cs)
);
},
{
closed = 1;
nodes = (
(260,520,l),
(260,-33,l),
(414,-33,l),
(414,520,l)
);
},
{
closed = 1;
nodes = (
(807,551,l),
(807,424,l),
(1539,424,l),
(1539,551,l)
);
},
{
closed = 1;
nodes = (
(809,1509,l),
(809,1436,ls),
(809,1115,o),
(531,867,o),
(70,754,c),
(133,627,l),
(647,757,o),
(976,1066,o),
(976,1509,c)
);
},
{
closed = 1;
nodes = (
(149,1509,l),
(149,1380,l),
(896,1380,l),
(896,1509,l)
);
}
);
width = 1770;
},
{
layerId = "94F54C43-8AEE-4ED6-B3C2-2A9D33534E61";
shapes = (
{
closed = 1;
nodes = (
(1170,1659,l),
(1170,662,l),
(1531,662,l),
(1531,1659,l)
);
},
{
closed = 1;
nodes = (
(1405,1300,l),
(1405,1008,l),
(1754,1008,l),
(1754,1300,l)
);
},
{
closed = 1;
nodes = (
(1022,531,l),
(1022,399,ls),
(1022,257,o),
(946,125,o),
(710,66,c),
(870,-202,l),
(1188,-116,o),
(1294,122,o),
(1294,399,cs),
(1294,531,l)
);
},
{
closed = 1;
nodes = (
(1093,531,l),
(1093,399,ls),
(1093,106,o),
(1193,-118,o),
(1516,-202,c),
(1677,66,l),
(1434,117,o),
(1361,243,o),
(1361,399,cs),
(1361,531,l)
);
},
{
closed = 1;
nodes = (
(172,121,l),
(172,-164,l),
(292,-164,ls),
(488,-164,o),
(647,-144,o),
(800,-82,c),
(719,190,l),
(589,139,o),
(455,121,o),
(292,121,cs)
);
},
{
closed = 1;
nodes = (
(172,554,l),
(172,0,l),
(519,0,l),
(519,554,l)
);
},
{
closed = 1;
nodes = (
(783,600,l),
(783,327,l),
(1599,327,l),
(1599,600,l)
);
},
{
closed = 1;
nodes = (
(616,1578,l),
(616,1380,ls),
(616,1177,o),
(435,974,o),
(-7,883,c),
(133,602,l),
(695,731,o),
(1001,1057,o),
(1001,1578,c)
);
},
{
closed = 1;
nodes = (
(92,1578,l),
(92,1296,l),
(838,1296,l),
(838,1578,l)
);
}
);
width = 1770;
}
);
unicode = 44037;
}
{
glyphname = uniAC07;
layers = (
{
layerId = m01;
shapes = (
{
closed = 1;
nodes = (
(1305,1614,l),
(1305,606,l),
(1462,606,l),
(1462,1614,l)
);
},
{
closed = 1;
nodes = (
(1419,1177,l),
(1419,1046,l),
(1728,1046,l),
(1728,1177,l)
);
},
{
closed = 1;
nodes = (
(810,1499,l),
(810,1430,ls),
(810,1100,o),
(538,839,o),
(72,713,c),
(134,587,l),
(661,730,o),
(976,1052,o),
(976,1499,c)
);
},
{
closed = 1;
nodes = (
(150,1499,l),
(150,1371,l),
(897,1371,l),
(897,1499,l)
);
},
{
closed = 1;
nodes = (
(338,508,l),
(338,-74,l),
(495,-74,l),
(495,379,l),
(1472,379,l),
(1472,508,l)
);
},
{
closed = 1;
nodes = (
(338,-9,l),
(338,-138,l),
(1504,-138,l),
(1504,-9,l)
);
}
);
width = 1770;
},
{
layerId = "94F54C43-8AEE-4ED6-B3C2-2A9D33534E61";
shapes = (
{
closed = 1;
nodes = (
(1177,1658,l),
(1177,635,l),
(1531,635,l),
(1531,1658,l)
);
},
{
closed = 1;
nodes = (
(1435,1288,l),
(1435,1000,l),
(1757,1000,l),
(1757,1288,l)
);
},
{
closed = 1;
nodes = (
(621,1565,l),
(621,1377,ls),
(621,1153,o),
(436,944,o),
(-3,841,c),
(136,563,l),
(703,705,o),
(999,1044,o),
(999,1565,c)
);
},
{
closed = 1;
nodes = (
(95,1565,l),
(95,1285,l),
(839,1285,l),
(839,1565,l)
);
},
{
closed = 1;
nodes = (
(281,566,l),
(281,-51,l),
(637,-51,l),
(637,286,l),
(1551,286,l),
(1551,566,l)
);
},
{
closed = 1;
nodes = (
(281,89,l),
(281,-190,l),
(1588,-190,l),
(1588,89,l)
);
}
);
width = 1770;
}
);
unicode = 44039;
}
{
glyphname = uniAC08;
layers = (
{
layerId = m01;
shapes = (
{
closed = 1;
nodes = (
(1305,1614,l),
(1305,711,l),
(1462,711,l),
(1462,1614,l)
);
},
{
closed = 1;
nodes = (
(1419,1215,l),
(1419,1083,l),
(1728,1083,l),
(1728,1215,l)
);
},
{
closed = 1;
nodes = (
(808,1526,l),
(808,1444,ls),
(808,1141,o),
(542,902,o),
(76,798,c),
(136,665,l),
(654,788,o),
(979,1082,o),
(979,1526,c)
);
},
{
closed = 1;
nodes = (
(153,1526,l),
(153,1398,l),
(900,1398,l),
(900,1526,l)
);
},
{
closed = 1;
nodes = (
(327,629,l),
(327,502,l),
(1308,502,l),
(1308,313,l),
(332,313,l),
(332,-89,l),
(486,-89,l),
(486,191,l),
(1462,191,l),
(1462,629,l)
);
},
{
closed = 1;
nodes = (
(332,-18,l),
(332,-144,l),
(1528,-144,l),
(1528,-18,l)
);
}
);
width = 1771;
},
{
layerId = "94F54C43-8AEE-4ED6-B3C2-2A9D33534E61";
shapes = (
{
closed = 1;
nodes = (
(1177,1658,l),
(1177,746,l),
(1531,746,l),
(1531,1658,l)
);
},
{
closed = 1;
nodes = (
(1435,1334,l),
(1435,1045,l),
(1757,1045,l),
(1757,1334,l)
);
},
{
closed = 1;
nodes = (
(627,1608,l),
(627,1389,ls),
(627,1228,o),
(481,1047,o),
(14,979,c),
(139,690,l),
(725,793,o),
(1023,1087,o),
(1023,1608,c)
);
},
{
closed = 1;
nodes = (
(116,1608,l),
(116,1330,l),
(862,1330,l),
(862,1608,l)
);
},
{
closed = 1;
nodes = (
(250,683,l),
(250,408,l),
(1181,408,l),
(1181,379,l),
(252,379,l),
(252,-45,l),
(605,-45,l),
(605,120,l),
(1531,120,l),
(1531,683,l)
);
},
{
closed = 1;
nodes = (
(252,89,l),
(252,-188,l),
(1576,-188,l),
(1576,89,l)
);
}
);
width = 1771;
}
);
unicode = 44040;
}
{
glyphname = uniAC0A;
layers = (
{
layerId = m01;
shapes = (
{
closed = 1;
nodes = (
(224,583,l),
(224,462,l),
(638,462,l),
(638,296,l),
(229,296,l),
(229,-69,l),
(381,-69,l),
(381,180,l),
(790,180,l),
(790,583,l)
);
},
{
closed = 1;
nodes = (
(900,583,l),
(900,-146,l),
(1462,-146,l),
(1462,583,l)
);
},
{
closed = 1;
nodes = (
(1323,465,l),
(1323,-25,l),
(1039,-25,l),
(1039,465,l)
);
},
{
closed = 1;
nodes = (
(229,-14,l),
(229,-139,l),
(322,-139,ls),
(552,-139,o),
(677,-136,o),
(844,-106,c),
(829,18,l),
(670,-12,o),
(545,-14,o),
(322,-14,cs)
);
},
{
closed = 1;
nodes = (
(1305,1613,l),
(1305,667,l),
(1462,667,l),
(1462,1613,l)
);
},
{
closed = 1;
nodes = (
(1419,1204,l),
(1419,1071,l),
(1728,1071,l),
(1728,1204,l)
);
},
{
closed = 1;
nodes = (
(807,1520,l),
(807,1438,ls),
(807,1134,o),
(547,896,o),
(76,791,c),
(135,660,l),
(658,781,o),
(979,1074,o),
(979,1520,c)
);
},
{
closed = 1;
nodes = (
(158,1520,l),
(158,1391,l),
(904,1391,l),
(904,1520,l)
);
}
);
width = 1771;
},
{
layerId = "94F54C43-8AEE-4ED6-B3C2-2A9D33534E61";
shapes = (
{
closed = 1;
nodes = (
(156,633,l),
(156,374,l),
(450,374,l),
(450,350,l),
(158,350,l),
(158,-25,l),
(502,-25,l),
(502,110,l),
(795,110,l),
(795,633,l)
);
},
{
closed = 1;
nodes = (
(875,633,l),
(875,-179,l),
(1531,-179,l),
(1531,633,l)
);
},
{
closed = 1;
nodes = (
(1230,378,l),
(1230,76,l),
(1176,76,l),
(1176,378,l)
);
},
{
closed = 1;
nodes = (
(158,86,l),
(158,-180,l),
(280,-180,ls),
(551,-180,o),
(685,-178,o),
(839,-151,c),
(813,113,l),
(662,88,o),
(539,86,o),
(280,86,cs)
);
},
{
closed = 1;
nodes = (
(1177,1658,l),
(1177,711,l),
(1531,711,l),
(1531,1658,l)
);
},
{
closed = 1;
nodes = (
(1435,1326,l),
(1435,1038,l),
(1757,1038,l),
(1757,1326,l)
);
},
{
closed = 1;
nodes = (
(625,1600,l),
(625,1378,ls),
(625,1217,o),
(493,1042,o),
(14,974,c),
(136,685,l),
(737,784,o),
(1025,1072,o),
(1025,1600,c)
);
},
{
closed = 1;
nodes = (
(113,1600,l),
(113,1322,l),
(858,1322,l),
(858,1600,l)
);
}
);
width = 1771;
}
);
unicode = 44042;
}
{
glyphname = "galb-ko";
layers = (
{
layerId = m01;
shapes = (
{
closed = 1;
nodes = (
(1304,1614,l),
(1304,666,l),
(1461,666,l),
(1461,1614,l)
);
},
{
closed = 1;
nodes = (
(1418,1213,l),
(1418,1081,l),
(1727,1081,l),
(1727,1213,l)
);
},
{
closed = 1;
nodes = (
(891,595,l),
(891,-138,l),
(1461,-138,l),
(1461,595,l),
(1316,595,l),
(1316,365,l),
(1034,365,l),
(1034,595,l)
);
},
{
closed = 1;
nodes = (
(1034,245,l),
(1316,245,l),
(1316,-13,l),
(1034,-13,l)
);
},
{
closed = 1;
nodes = (
(224,576,l),
(224,455,l),
(635,455,l),
(635,286,l),
(228,286,l),
(228,-72,l),
(381,-72,l),
(381,178,l),
(787,178,l),
(787,576,l)
);
},
{
closed = 1;
nodes = (
(228,-16,l),
(228,-137,l),
(321,-137,ls),
(554,-137,o),
(676,-135,o),
(840,-103,c),
(828,18,l),
(669,-13,o),
(551,-16,o),
(321,-16,cs)
);
},
{
closed = 1;
nodes = (
(806,1530,l),
(806,1448,ls),
(806,1144,o),
(546,906,o),
(75,801,c),
(134,670,l),
(657,791,o),
(978,1083,o),
(978,1530,c)
);
},
{
closed = 1;
nodes = (
(157,1530,l),
(157,1401,l),
(903,1401,l),
(903,1530,l)
);
}
);
width = 1770;
},
{
layerId = "94F54C43-8AEE-4ED6-B3C2-2A9D33534E61";
shapes = (
{
closed = 1;
nodes = (
(1173,1659,l),
(1173,688,l),
(1531,688,l),
(1531,1659,l)
);
},
{
closed = 1;
nodes = (
(1434,1318,l),
(1434,1028,l),
(1757,1028,l),
(1757,1318,l)
);
},
{
closed = 1;
nodes = (
(868,626,l),
(868,-191,l),
(1531,-191,l),
(1531,626,l),
(1215,626,l),
(1215,476,l),
(1186,476,l),
(1186,626,l)
);
},
{
closed = 1;
nodes = (
(1186,215,l),
(1215,215,l),
(1215,81,l),
(1186,81,l)
);
},
{
closed = 1;
nodes = (
(161,610,l),
(161,349,l),
(444,349,l),
(444,320,l),
(162,320,l),
(162,-49,l),
(510,-49,l),
(510,94,l),
(792,94,l),
(792,610,l)
);
},
{
closed = 1;
nodes = (
(162,62,l),
(162,-191,l),
(281,-191,ls),
(555,-191,o),
(681,-192,o),
(833,-165,c),
(812,87,l),
(662,63,o),
(550,62,o),
(281,62,cs)
);
},
{
closed = 1;
nodes = (
(620,1612,l),
(620,1387,ls),
(620,1228,o),
(490,1054,o),
(12,987,c),
(135,695,l),
(737,795,o),
(1025,1082,o),
(1025,1612,c)
);
},
{
closed = 1;
nodes = (
(111,1612,l),
(111,1330,l),
(855,1330,l),
(855,1612,l)
);
}
);
width = 1770;
}
);
unicode = 44043;
}
{
glyphname = uniAC0B;
layers = (
{
layerId = m01;
shapes = (
{
closed = 1;
nodes = (
(1305,1614,l),
(1305,666,l),
(1462,666,l),
(1462,1614,l)
);
},
{
closed = 1;
nodes = (
(1419,1213,l),
(1419,1081,l),
(1728,1081,l),
(1728,1213,l)
);
},
{
closed = 1;
nodes = (
(892,595,l),
(892,-138,l),
(1462,-138,l),
(1462,595,l),
(1317,595,l),
(1317,365,l),
(1035,365,l),
(1035,595,l)
);
},
{
closed = 1;
nodes = (
(1035,245,l),
(1317,245,l),
(1317,-13,l),
(1035,-13,l)
);
},
{
closed = 1;
nodes = (
(225,576,l),
(225,455,l),
(636,455,l),
(636,286,l),
(229,286,l),
(229,-72,l),
(382,-72,l),
(382,178,l),
(788,178,l),
(788,576,l)
);
},
{
closed = 1;
nodes = (
(229,-16,l),
(229,-137,l),
(322,-137,ls),
(555,-137,o),
(677,-135,o),
(841,-103,c),
(829,18,l),
(670,-13,o),
(552,-16,o),
(322,-16,cs)
);
},
{
closed = 1;
nodes = (
(807,1530,l),
(807,1448,ls),
(807,1144,o),
(547,906,o),
(76,801,c),
(135,670,l),
(658,791,o),
(979,1083,o),
(979,1530,c)
);
},
{
closed = 1;
nodes = (
(158,1530,l),
(158,1401,l),
(904,1401,l),
(904,1530,l)
);
}
);
width = 1770;
},
{
layerId = "94F54C43-8AEE-4ED6-B3C2-2A9D33534E61";
shapes = (
{
closed = 1;
nodes = (
(1177,1658,l),
(1177,687,l),
(1531,687,l),
(1531,1658,l)
);
},
{
closed = 1;
nodes = (
(1435,1316,l),
(1435,1029,l),
(1757,1029,l),
(1757,1316,l)
);
},
{
closed = 1;
nodes = (
(869,626,l),
(869,-190,l),
(1531,-190,l),
(1531,626,l),
(1217,626,l),
(1217,474,l),
(1184,474,l),
(1184,626,l)
);
},
{
closed = 1;
nodes = (
(1184,216,l),
(1217,216,l),
(1217,79,l),
(1184,79,l)
);
},
{
closed = 1;
nodes = (
(163,610,l),
(163,351,l),
(448,351,l),
(448,319,l),
(165,319,l),
(165,-49,l),
(509,-49,l),
(509,96,l),
(793,96,l),
(793,610,l)
);
},
{
closed = 1;
nodes = (
(165,61,l),
(165,-190,l),
(282,-190,ls),
(556,-190,o),
(682,-190,o),
(834,-164,c),
(813,86,l),
(663,62,o),
(551,61,o),
(282,61,cs)
);
},
{
closed = 1;
nodes = (
(625,1610,l),
(625,1388,ls),
(625,1225,o),
(493,1052,o),
(14,983,c),
(136,695,l),
(737,794,o),
(1025,1082,o),
(1025,1610,c)
);
},
{
closed = 1;
nodes = (
(113,1610,l),
(113,1331,l),
(858,1331,l),
(858,1610,l)
);
}
);
width = 1770;
}
);
unicode = 44043;
}
{
glyphname = uniAC0C;
layers = (
{
layerId = m01;
shapes = (
{
closed = 1;
nodes = (
(1305,1614,l),
(1305,666,l),
(1462,666,l),
(1462,1614,l)
);
},
{
closed = 1;
nodes = (
(1419,1213,l),
(1419,1081,l),
(1728,1081,l),
(1728,1213,l)
);
},
{
closed = 1;
nodes = (
(225,576,l),
(225,455,l),
(655,455,l),
(655,286,l),
(229,286,l),
(229,-72,l),
(382,-72,l),
(382,178,l),
(807,178,l),
(807,576,l)
);
},
{
closed = 1;
nodes = (
(229,-16,l),
(229,-137,l),
(322,-137,ls),
(562,-137,o),
(686,-135,o),
(851,-101,c),
(837,16,l),
(679,-13,o),
(559,-16,o),
(322,-16,cs)
);
},
{
closed = 1;
nodes = (
(807,1530,l),
(807,1448,ls),
(807,1142,o),
(547,904,o),
(76,798,c),
(135,668,l),
(658,791,o),
(979,1083,o),
(979,1530,c)
);
},
{
closed = 1;
nodes = (
(158,1530,l),
(158,1401,l),
(904,1401,l),
(904,1530,l)
);
},
{
closed = 1;
nodes = (
(1160,596,l),
(1160,443,ls),
(1160,255,o),
(1052,56,o),
(837,-33,c),
(924,-155,l),
(1168,-47,o),
(1285,196,o),
(1285,443,cs),
(1285,596,l)
);
},
{
closed = 1;
nodes = (
(1192,596,l),
(1192,443,ls),
(1192,195,o),
(1310,-47,o),
(1553,-155,c),
(1641,-33,l),
(1426,55,o),
(1317,255,o),
(1317,443,cs),
(1317,596,l)
);
}
);
width = 1770;
},
{
layerId = "94F54C43-8AEE-4ED6-B3C2-2A9D33534E61";
shapes = (
{
closed = 1;
nodes = (
(1177,1658,l),
(1177,687,l),
(1531,687,l),
(1531,1658,l)
);
},
{
closed = 1;
nodes = (
(1435,1316,l),
(1435,1029,l),
(1757,1029,l),
(1757,1316,l)
);
},
{
closed = 1;
nodes = (
(163,610,l),
(163,351,l),
(474,351,l),
(474,319,l),
(165,319,l),
(165,-49,l),
(509,-49,l),
(509,96,l),
(818,96,l),
(818,610,l)
);
},
{
closed = 1;
nodes = (
(165,61,l),
(165,-190,l),
(285,-190,ls),
(567,-190,o),
(697,-190,o),
(850,-162,c),
(829,86,l),
(679,62,o),
(561,61,o),
(285,61,cs)
);
},
{
closed = 1;
nodes = (
(625,1610,l),
(625,1390,ls),
(625,1224,o),
(493,1046,o),
(14,977,c),
(136,687,l),
(737,792,o),
(1023,1082,o),
(1023,1610,c)
);
},
{
closed = 1;
nodes = (
(113,1610,l),
(113,1331,l),
(858,1331,l),
(858,1610,l)
);
},
{
closed = 1;
nodes = (
(1060,628,l),
(1060,509,ls),
(1060,322,o),
(997,159,o),
(773,69,c),
(962,-200,l),
(1247,-85,o),
(1332,186,o),
(1332,509,cs),
(1332,628,l)
);
},
{
closed = 1;
nodes = (
(1140,628,l),
(1140,509,ls),
(1140,184,o),
(1226,-85,o),
(1511,-200,c),
(1704,69,l),
(1479,158,o),
(1415,319,o),
(1415,509,cs),
(1415,628,l)
);
}
);
width = 1770;
}
);
unicode = 44044;
}
{
glyphname = uniAC0D;
layers = (
{
layerId = m01;
shapes = (
{
closed = 1;
nodes = (
(1305,1614,l),
(1305,666,l),
(1462,666,l),
(1462,1614,l)
);
},
{
closed = 1;
nodes = (
(1419,1213,l),
(1419,1081,l),
(1728,1081,l),
(1728,1213,l)
);
},
{
closed = 1;
nodes = (
(807,1530,l),
(807,1448,ls),
(807,1144,o),
(547,906,o),
(76,801,c),
(135,670,l),
(658,791,o),
(979,1083,o),
(979,1530,c)
);
},
{
closed = 1;
nodes = (
(158,1530,l),
(158,1401,l),
(904,1401,l),
(904,1530,l)
);
},
{
closed = 1;
nodes = (
(226,588,l),
(226,466,l),
(651,466,l),
(651,294,l),
(231,294,l),
(231,-57,l),
(383,-57,l),
(383,180,l),
(803,180,l),
(803,588,l)
);
},
{
closed = 1;
nodes = (
(231,-18,l),
(231,-138,l),
(323,-138,ls),
(556,-138,o),
(682,-137,o),
(854,-106,c),
(841,15,l),
(675,-14,o),
(552,-18,o),
(323,-18,cs)
);
},
{
closed = 1;
nodes = (
(904,-18,l),
(904,-138,l),
(1507,-138,l),
(1507,-18,l)
);
},
{
closed = 1;
nodes = (
(904,588,l),
(904,-67,l),
(1059,-67,l),
(1059,466,l),
(1484,466,l),
(1484,588,l)
);
},
{
closed = 1;
nodes = (
(1006,291,l),
(1006,177,l),
(1465,177,l),
(1465,291,l)
);
}
);
width = 1770;
},
{
layerId = "94F54C43-8AEE-4ED6-B3C2-2A9D33534E61";
shapes = (
{
closed = 1;
nodes = (
(1177,1658,l),
(1177,687,l),
(1531,687,l),
(1531,1658,l)
);
},
{
closed = 1;
nodes = (
(1435,1316,l),
(1435,1029,l),
(1757,1029,l),
(1757,1316,l)
);
},
{
closed = 1;
nodes = (
(625,1610,l),
(625,1388,ls),
(625,1225,o),
(493,1052,o),
(14,983,c),
(136,695,l),
(737,794,o),
(1025,1082,o),
(1025,1610,c)
);
},
{
closed = 1;
nodes = (
(113,1610,l),
(113,1331,l),
(858,1331,l),
(858,1610,l)
);
},
{
closed = 1;
nodes = (
(160,628,l),
(160,373,l),
(472,373,l),
(472,335,l),
(162,335,l),
(162,-19,l),
(506,-19,l),
(506,97,l),
(817,97,l),
(817,628,l)
);
},
{
closed = 1;
nodes = (
(162,64,l),
(162,-190,l),
(285,-190,ls),
(544,-190,o),
(685,-190,o),
(856,-163,c),
(834,90,l),
(665,64,o),
(535,64,o),
(285,64,cs)
);
},
{
closed = 1;
nodes = (
(881,64,l),
(881,-190,l),
(1556,-190,l),
(1556,64,l)
);
},
{
closed = 1;
nodes = (
(881,628,l),
(881,-38,l),
(1225,-38,l),
(1225,373,l),
(1542,373,l),
(1542,628,l)
);
},
{
closed = 1;
nodes = (
(1113,340,l),
(1113,101,l),
(1527,101,l),
(1527,340,l)
);
}
);
width = 1770;
}
);
unicode = 44045;
}
{
glyphname = uniAC0E;
layers = (
{
layerId = m01;
shapes = (
{
closed = 1;
nodes = (
(872,588,l),
(872,462,l),
(1509,462,l),
(1509,588,l)
);
},
{
closed = 1;
nodes = (
(860,-13,l),
(860,-138,l),
(1520,-138,l),
(1520,-13,l)
);
},
{
closed = 1;
nodes = (
(976,520,l),
(976,-74,l),
(1105,-74,l),
(1105,520,l)
);
},
{
closed = 1;
nodes = (
(1276,520,l),
(1276,-74,l),
(1404,-74,l),
(1404,520,l)
);
},
{
closed = 1;
nodes = (
(1305,1614,l),
(1305,666,l),
(1462,666,l),
(1462,1614,l)
);
},
{
closed = 1;
nodes = (
(1419,1213,l),
(1419,1081,l),
(1728,1081,l),
(1728,1213,l)
);
},
{
closed = 1;
nodes = (
(807,1530,l),
(807,1448,ls),
(807,1144,o),
(547,906,o),
(76,801,c),
(135,670,l),
(658,791,o),
(979,1083,o),
(979,1530,c)
);
},
{
closed = 1;
nodes = (
(158,1530,l),
(158,1401,l),
(904,1401,l),
(904,1530,l)
);
},
{
closed = 1;
nodes = (
(226,588,l),
(226,466,l),
(634,466,l),
(634,295,l),
(231,295,l),
(231,-57,l),
(383,-57,l),
(383,180,l),
(786,180,l),
(786,588,l)
);
},
{
closed = 1;
nodes = (
(231,-18,l),
(231,-138,l),
(322,-138,ls),
(544,-138,o),
(668,-137,o),
(837,-106,c),
(822,15,l),
(661,-16,o),
(539,-18,o),
(322,-18,cs)
);
}
);
width = 1771;
},
{
layerId = "94F54C43-8AEE-4ED6-B3C2-2A9D33534E61";
shapes = (
{
closed = 1;
nodes = (
(870,628,l),
(870,361,l),
(1558,361,l),
(1558,628,l)
);
},
{
closed = 1;
nodes = (
(860,76,l),
(860,-190,l),
(1566,-190,l),
(1566,76,l)
);
},
{
closed = 1;
nodes = (
(919,469,l),
(919,-63,l),
(1189,-63,l),
(1189,469,l)
);
},
{
closed = 1;
nodes = (
(1239,469,l),
(1239,-63,l),
(1510,-63,l),
(1510,469,l)
);
},
{
closed = 1;
nodes = (
(1177,1658,l),
(1177,687,l),
(1531,687,l),
(1531,1658,l)
);
},
{
closed = 1;
nodes = (
(1435,1316,l),
(1435,1029,l),
(1757,1029,l),
(1757,1316,l)
);
},
{
closed = 1;
nodes = (
(625,1610,l),
(625,1388,ls),
(625,1225,o),
(493,1052,o),
(14,983,c),
(136,695,l),
(737,794,o),
(1025,1082,o),
(1025,1610,c)
);
},
{
closed = 1;
nodes = (
(113,1610,l),
(113,1331,l),
(858,1331,l),
(858,1610,l)
);
},
{
closed = 1;
nodes = (
(160,628,l),
(160,373,l),
(457,373,l),
(457,337,l),
(162,337,l),
(162,-19,l),
(506,-19,l),
(506,101,l),
(801,101,l),
(801,628,l)
);
},
{
closed = 1;
nodes = (
(162,64,l),
(162,-190,l),
(282,-190,ls),
(529,-190,o),
(665,-190,o),
(834,-163,c),
(810,90,l),
(646,64,o),
(518,64,o),
(282,64,cs)
);
}
);
width = 1771;
}
);
unicode = 44046;
}
{
glyphname = uniAC10;
layers = (
{
layerId = m01;
shapes = (
{
closed = 1;
nodes = (
(1305,1614,l),
(1305,606,l),
(1462,606,l),
(1462,1614,l)
);
},
{
closed = 1;
nodes = (
(1419,1180,l),
(1419,1048,l),
(1728,1048,l),
(1728,1180,l)
);
},
{
closed = 1;
nodes = (
(810,1499,l),
(810,1430,ls),
(810,1101,o),
(538,841,o),
(72,715,c),
(134,588,l),
(661,731,o),
(977,1052,o),
(977,1499,c)
);
},
{
closed = 1;
nodes = (
(150,1499,l),
(150,1371,l),
(897,1371,l),
(897,1499,l)
);
},
{
closed = 1;
nodes = (
(336,523,l),
(336,-137,l),
(1462,-137,l),
(1462,523,l)
);
},
{
closed = 1;
nodes = (
(1307,395,l),
(1307,-8,l),
(492,-8,l),
(492,395,l)
);
}
);
width = 1770;
},
{
layerId = "94F54C43-8AEE-4ED6-B3C2-2A9D33534E61";
shapes = (
{
closed = 1;
nodes = (
(1177,1658,l),
(1177,635,l),
(1531,635,l),
(1531,1658,l)
);
},
{
closed = 1;
nodes = (
(1435,1296,l),
(1435,1008,l),
(1757,1008,l),
(1757,1296,l)
);
},
{
closed = 1;
nodes = (
(621,1565,l),
(621,1377,ls),
(621,1155,o),
(436,950,o),
(-3,847,c),
(136,570,l),
(703,710,o),
(1002,1044,o),
(1002,1565,c)
);
},
{
closed = 1;
nodes = (
(95,1565,l),
(95,1285,l),
(839,1285,l),
(839,1565,l)
);
},
{
closed = 1;
nodes = (
(282,575,l),
(282,-190,l),
(1531,-190,l),
(1531,575,l)
);
},
{
closed = 1;
nodes = (
(1183,297,l),
(1183,87,l),
(633,87,l),
(633,297,l)
);
}
);
width = 1770;
}
);
unicode = 44048;
}
{
glyphname = uniAC11;
layers = (
{
layerId = m01;
shapes = (
{
closed = 1;
nodes = (
(1303,1614,l),
(1303,653,l),
(1461,653,l),
(1461,1614,l)
);
},
{
closed = 1;
nodes = (
(1418,1194,l),
(1418,1061,l),
(1727,1061,l),
(1727,1194,l)
);
},
{
closed = 1;
nodes = (
(806,1508,l),
(806,1429,ls),
(806,1116,o),
(541,873,o),
(75,762,c),
(135,632,l),
(657,759,o),
(977,1060,o),
(977,1508,c)
);
},
{
closed = 1;
nodes = (
(155,1508,l),
(155,1378,l),
(900,1378,l),
(900,1508,l)
);
},
{
closed = 1;
nodes = (
(331,572,l),
(331,-138,l),
(1461,-138,l),
(1461,572,l),
(1304,572,l),
(1304,347,l),
(487,347,l),
(487,572,l)
);
},
{
closed = 1;
nodes = (
(487,221,l),
(1304,221,l),
(1304,-10,l),
(487,-10,l)
);
}
);
width = 1770;
},
{
layerId = "94F54C43-8AEE-4ED6-B3C2-2A9D33534E61";
shapes = (
{
closed = 1;
nodes = (
(1170,1659,l),
(1170,647,l),
(1531,647,l),
(1531,1659,l)
);
},
{
closed = 1;
nodes = (
(1434,1296,l),
(1434,1004,l),
(1757,1004,l),
(1757,1296,l)
);
},
{
closed = 1;
nodes = (
(613,1573,l),
(613,1364,ls),
(613,1180,o),
(472,996,o),
(10,912,c),
(140,625,l),
(730,747,o),
(1010,1052,o),
(1010,1573,c)
);
},
{
closed = 1;
nodes = (
(121,1573,l),
(121,1291,l),
(866,1291,l),
(866,1573,l)
);
},
{
closed = 1;
nodes = (
(271,584,l),
(271,-191,l),
(1531,-191,l),
(1531,584,l),
(1176,584,l),
(1176,460,l),
(627,460,l),
(627,584,l)
);
},
{
closed = 1;
nodes = (
(627,187,l),
(1176,187,l),
(1176,95,l),
(627,95,l)
);
}
);
width = 1770;
}
);
unicode = 44049;
}
{
glyphname = uniAC12;
layers = (
{
layerId = m01;
shapes = (
{
closed = 1;
nodes = (
(1305,1614,l),
(1305,648,l),
(1462,648,l),
(1462,1614,l)
);
},
{
closed = 1;
nodes = (
(1419,1203,l),
(1419,1072,l),
(1728,1072,l),
(1728,1203,l)
);
},
{
closed = 1;
nodes = (
(807,1508,l),
(807,1429,ls),
(807,1117,o),
(542,873,o),
(76,761,c),
(136,631,l),
(658,759,o),
(977,1060,o),
(977,1508,c)
);
},
{
closed = 1;
nodes = (
(156,1508,l),
(156,1379,l),
(902,1379,l),
(902,1508,l)
);
},
{
closed = 1;
nodes = (
(269,557,l),
(269,-136,l),
(880,-136,l),
(880,557,l),
(735,557,l),
(735,342,l),
(417,342,l),
(417,557,l)
);
},
{
closed = 1;
nodes = (
(417,220,l),
(735,220,l),
(735,-13,l),
(417,-13,l)
);
},
{
closed = 1;
nodes = (
(1207,574,l),
(1207,426,ls),
(1207,256,o),
(1102,57,o),
(895,-35,c),
(979,-154,l),
(1216,-47,o),
(1331,199,o),
(1331,426,cs),
(1331,574,l)
);
},
{
closed = 1;
nodes = (
(1237,574,l),
(1237,431,ls),
(1237,188,o),
(1355,-51,o),
(1584,-154,c),
(1668,-35,l),
(1462,56,o),
(1358,257,o),
(1358,431,cs),
(1358,574,l)
);
}
);
width = 1770;
},
{
layerId = "94F54C43-8AEE-4ED6-B3C2-2A9D33534E61";
shapes = (
{
closed = 1;
nodes = (
(1177,1658,l),
(1177,648,l),
(1531,648,l),
(1531,1658,l)
);
},
{
closed = 1;
nodes = (
(1435,1308,l),
(1435,1020,l),
(1757,1020,l),
(1757,1308,l)
);
},
{
closed = 1;
nodes = (
(617,1574,l),
(617,1368,ls),
(617,1180,o),
(474,993,o),
(12,908,c),
(142,623,l),
(731,747,o),
(1009,1052,o),
(1009,1574,c)
);
},
{
closed = 1;
nodes = (
(109,1574,l),
(109,1295,l),
(853,1295,l),
(853,1574,l)
);
},
{
closed = 1;
nodes = (
(200,559,l),
(200,-180,l),
(907,-180,l),
(907,559,l),
(587,559,l),
(587,430,l),
(526,430,l),
(526,559,l)
);
},
{
closed = 1;
nodes = (
(526,174,l),
(587,174,l),
(587,85,l),
(526,85,l)
);
},
{
closed = 1;
nodes = (
(1118,582,l),
(1118,459,ls),
(1118,298,o),
(1049,155,o),
(840,66,c),
(1023,-198,l),
(1295,-91,o),
(1386,166,o),
(1386,459,cs),
(1386,582,l)
);
},
{
closed = 1;
nodes = (
(1192,582,l),
(1192,457,ls),
(1192,121,o),
(1298,-104,o),
(1556,-198,c),
(1736,66,l),
(1528,143,o),
(1457,285,o),
(1457,457,cs),
(1457,582,l)
);
}
);
width = 1770;
}
);
unicode = 44050;
}
{
glyphname = uniAC13;
layers = (
{
layerId = m01;
shapes = (
{
closed = 1;
nodes = (
(1419,1119,l),
(1419,987,l),
(1728,987,l),
(1728,1119,l)
);
},
{
closed = 1;
nodes = (
(816,1477,l),
(816,1409,ls),
(816,1069,o),
(537,792,o),
(76,656,c),
(142,528,l),
(664,686,o),
(983,1020,o),
(983,1477,c)
);
},
{
closed = 1;
nodes = (
(157,1477,l),
(157,1347,l),
(904,1347,l),
(904,1477,l)
);
},
{
closed = 1;
nodes = (
(845,567,l),
(845,489,ls),
(845,227,o),
(559,29,o),
(244,-28,c),
(308,-153,l),
(662,-83,o),
(982,148,o),
(982,489,cs),
(982,567,l)
);
},
{
closed = 1;
nodes = (
(868,567,l),
(868,489,ls),
(868,151,o),
(1182,-79,o),
(1535,-149,c),
(1600,-23,l),
(1288,33,o),
(1001,230,o),
(1001,489,cs),
(1001,567,l)
);
},
{
closed = 1;
nodes = (
(1305,1618,l),
(1305,437,l),
(1462,437,l),
(1462,1618,l)
);
}
);
width = 1771;
},
{
layerId = "94F54C43-8AEE-4ED6-B3C2-2A9D33534E61";
shapes = (
{
closed = 1;
nodes = (
(1435,1219,l),
(1435,930,l),
(1757,930,l),
(1757,1219,l)
);
},
{
closed = 1;
nodes = (
(640,1526,l),
(640,1341,ls),
(640,1098,o),
(444,880,o),
(2,771,c),
(147,486,l),
(723,640,o),
(1025,994,o),
(1025,1526,c)
);
},
{
closed = 1;
nodes = (
(117,1526,l),
(117,1244,l),
(862,1244,l),
(862,1526,l)
);
},
{
closed = 1;
nodes = (
(732,553,l),
(732,525,ls),
(732,367,o),
(637,142,o),
(181,79,c),
(319,-200,l),
(852,-119,o),
(1036,197,o),
(1036,525,cs),
(1036,553,l)
);
},
{
closed = 1;
nodes = (
(786,553,l),
(786,525,ls),
(786,196,o),
(971,-121,o),
(1503,-202,c),
(1640,78,l),
(1192,139,o),
(1088,362,o),
(1088,525,cs),
(1088,553,l)
);
},
{
closed = 1;
nodes = (
(1177,1658,l),
(1177,438,l),
(1531,438,l),
(1531,1658,l)
);
}
);
width = 1771;
}
);
unicode = 44051;
}
{
glyphname = uniAC14;
layers = (
{
layerId = m01;
shapes = (
{
closed = 1;
nodes = (
(1305,1618,l),
(1305,620,l),
(1462,620,l),
(1462,1618,l)
);
},
{
closed = 1;
nodes = (
(1419,1170,l),
(1419,1038,l),
(1728,1038,l),
(1728,1170,l)
);
},
{
closed = 1;
nodes = (
(810,1499,l),
(810,1430,ls),
(810,1101,o),
(538,840,o),
(74,714,c),
(134,586,l),
(662,729,o),
(978,1052,o),
(978,1499,c)
);
},
{
closed = 1;
nodes = (
(155,1499,l),
(155,1372,l),
(901,1372,l),
(901,1499,l)
);
},
{
closed = 1;
nodes = (
(508,552,l),
(508,422,ls),
(508,250,o),
(371,56,o),
(148,-26,c),
(226,-144,l),
(481,-45,o),
(628,189,o),
(628,422,cs),
(628,552,l)
);
},
{
closed = 1;
nodes = (
(542,552,l),
(542,422,ls),
(542,185,o),
(658,-57,o),
(914,-159,c),
(982,-41,l),
(765,47,o),
(659,241,o),
(659,422,cs),
(659,552,l)
);
},
{
closed = 1;
nodes = (
(1168,552,l),
(1168,422,ls),
(1168,268,o),
(1061,58,o),
(846,-41,c),
(914,-159,l),
(1169,-50,o),
(1286,214,o),
(1286,422,cs),
(1286,552,l)
);
},
{
closed = 1;
nodes = (
(1200,552,l),
(1200,422,ls),
(1200,176,o),
(1345,-49,o),
(1604,-144,c),
(1682,-26,l),
(1455,50,o),
(1322,237,o),
(1322,422,cs),
(1322,552,l)
);
}
);
width = 1771;
},
{
layerId = "94F54C43-8AEE-4ED6-B3C2-2A9D33534E61";
shapes = (
{
closed = 1;
nodes = (
(1177,1658,l),
(1177,631,l),
(1531,631,l),
(1531,1658,l)
);
},
{
closed = 1;
nodes = (
(1435,1290,l),
(1435,1002,l),
(1757,1002,l),
(1757,1290,l)
);
},
{
closed = 1;
nodes = (
(621,1567,l),
(621,1377,ls),
(621,1155,o),
(436,947,o),
(3,843,c),
(140,561,l),
(707,703,o),
(1005,1044,o),
(1005,1567,c)
);
},
{
closed = 1;
nodes = (
(109,1567,l),
(109,1286,l),
(853,1286,l),
(853,1567,l)
);
},
{
closed = 1;
nodes = (
(385,558,l),
(385,514,ls),
(385,326,o),
(318,150,o),
(64,62,c),
(240,-193,l),
(552,-85,o),
(646,190,o),
(646,514,cs),
(646,558,l)
);
},
{
closed = 1;
nodes = (
(479,558,l),
(479,514,ls),
(479,209,o),
(576,-97,o),
(896,-212,c),
(1041,44,l),
(802,145,o),
(731,333,o),
(731,514,cs),
(731,558,l)
);
},
{
closed = 1;
nodes = (
(1061,558,l),
(1061,514,ls),
(1061,340,o),
(991,152,o),
(751,44,c),
(896,-212,l),
(1215,-93,o),
(1314,216,o),
(1314,514,cs),
(1314,558,l)
);
},
{
closed = 1;
nodes = (
(1151,558,l),
(1151,514,ls),
(1151,181,o),
(1243,-85,o),
(1559,-193,c),
(1734,62,l),
(1480,142,o),
(1415,315,o),
(1415,514,cs),
(1415,558,l)
);
}
);
width = 1771;
}
);
unicode = 44052;
}
{
glyphname = uniAC16;
layers = (
{
layerId = m01;
shapes = (
{
closed = 1;
nodes = (
(1305,1618,l),
(1305,600,l),
(1462,600,l),
(1462,1618,l)
);
},
{
closed = 1;
nodes = (
(1419,1160,l),
(1419,1028,l),
(1728,1028,l),
(1728,1160,l)
);
},
{
closed = 1;
nodes = (
(810,1499,l),
(810,1426,ls),
(810,1105,o),
(548,851,o),
(76,729,c),
(136,601,l),
(665,740,o),
(978,1052,o),
(978,1499,c)
);
},
{
closed = 1;
nodes = (
(155,1499,l),
(155,1372,l),
(901,1372,l),
(901,1499,l)
);
},
{
closed = 1;
nodes = (
(825,448,l),
(825,393,ls),
(825,189,o),
(558,13,o),
(255,-37,c),
(315,-158,l),
(659,-97,o),
(960,112,o),
(960,393,cs),
(960,448,l)
);
},
{
closed = 1;
nodes = (
(856,448,l),
(856,393,ls),
(856,117,o),
(1158,-99,o),
(1501,-159,c),
(1562,-37,l),
(1262,13,o),
(991,192,o),
(991,393,cs),
(991,448,l)
);
},
{
closed = 1;
nodes = (
(321,509,l),
(321,382,l),
(1494,382,l),
(1494,509,l)
);
}
);
width = 1770;
},
{
layerId = "94F54C43-8AEE-4ED6-B3C2-2A9D33534E61";
shapes = (
{
closed = 1;
nodes = (
(1177,1658,l),
(1177,661,l),
(1531,661,l),
(1531,1658,l)
);
},
{
closed = 1;
nodes = (
(1435,1281,l),
(1435,992,l),
(1757,992,l),
(1757,1281,l)
);
},
{
closed = 1;
nodes = (
(621,1567,l),
(621,1364,ls),
(621,1169,o),
(466,981,o),
(12,893,c),
(142,609,l),
(720,734,o),
(1011,1044,o),
(1011,1567,c)
);
},
{
closed = 1;
nodes = (
(109,1567,l),
(109,1286,l),
(853,1286,l),
(853,1567,l)
);
},
{
closed = 1;
nodes = (
(718,431,l),
(718,393,ls),
(718,277,o),
(630,111,o),
(178,69,c),
(304,-200,l),
(833,-143,o),
(1018,107,o),
(1018,393,cs),
(1018,431,l)
);
},
{
closed = 1;
nodes = (
(799,431,l),
(799,393,ls),
(799,118,o),
(983,-151,o),
(1513,-204,c),
(1635,65,l),
(1193,111,o),
(1100,285,o),
(1100,393,cs),
(1100,431,l)
);
},
{
closed = 1;
nodes = (
(266,591,l),
(266,318,l),
(1548,318,l),
(1548,591,l)
);
}
);
width = 1770;
}
);
unicode = 44054;
}
{
glyphname = uniAC17;
layers = (
{
layerId = m01;
shapes = (
{
closed = 1;
nodes = (
(1419,1199,l),
(1419,1066,l),
(1728,1066,l),
(1728,1199,l)
);
},
{
closed = 1;
nodes = (
(808,1497,l),
(808,1418,ls),
(808,1112,o),
(552,863,o),
(77,752,c),
(138,622,l),
(668,750,o),
(979,1053,o),
(979,1497,c)
);
},
{
closed = 1;
nodes = (
(156,1497,l),
(156,1370,l),
(904,1370,l),
(904,1497,l)
);
},
{
closed = 1;
nodes = (
(1305,1614,l),
(1305,636,l),
(1462,636,l),
(1462,1614,l)
);
},
{
closed = 1;
nodes = (
(825,393,l),
(825,376,ls),
(825,179,o),
(552,5,o),
(248,-40,c),
(308,-160,l),
(653,-103,o),
(959,103,o),
(959,376,cs),
(959,393,l)
);
},
{
closed = 1;
nodes = (
(850,393,l),
(850,376,ls),
(850,103,o),
(1157,-103,o),
(1501,-160,c),
(1561,-40,l),
(1257,5,o),
(984,178,o),
(984,376,cs),
(984,393,l)
);
},
{
closed = 1;
nodes = (
(305,489,l),
(305,361,l),
(1501,361,l),
(1501,489,l)
);
},
{
closed = 1;
nodes = (
(825,702,l),
(825,426,l),
(983,426,l),
(983,702,l)
);
}
);
width = 1770;
},
{
layerId = "94F54C43-8AEE-4ED6-B3C2-2A9D33534E61";
shapes = (
{
closed = 1;
nodes = (
(1435,1302,l),
(1435,1014,l),
(1757,1014,l),
(1757,1302,l)
);
},
{
closed = 1;
nodes = (
(627,1565,l),
(627,1347,ls),
(627,1183,o),
(476,1005,o),
(14,939,c),
(136,655,l),
(720,757,o),
(1017,1046,o),
(1017,1565,c)
);
},
{
closed = 1;
nodes = (
(115,1565,l),
(115,1285,l),
(860,1285,l),
(860,1565,l)
);
},
{
closed = 1;
nodes = (
(1177,1658,l),
(1177,652,l),
(1531,652,l),
(1531,1658,l)
);
},
{
closed = 1;
nodes = (
(722,370,l),
(722,349,ls),
(722,242,o),
(641,99,o),
(176,66,c),
(298,-198,l),
(832,-155,o),
(1022,73,o),
(1022,349,cs),
(1022,370,l)
);
},
{
closed = 1;
nodes = (
(787,370,l),
(787,349,ls),
(787,73,o),
(976,-155,o),
(1513,-198,c),
(1631,66,l),
(1168,99,o),
(1087,242,o),
(1087,349,cs),
(1087,370,l)
);
},
{
closed = 1;
nodes = (
(248,564,l),
(248,290,l),
(1547,290,l),
(1547,564,l)
);
},
{
closed = 1;
nodes = (
(724,717,l),
(724,424,l),
(1082,424,l),
(1082,717,l)
);
}
);
width = 1770;
}
);
unicode = 44055;
}
{
glyphname = uniAC19;
layers = (
{
layerId = m01;
shapes = (
{
closed = 1;
nodes = (
(1304,1614,l),
(1304,665,l),
(1461,665,l),
(1461,1614,l)
);
},
{
closed = 1;
nodes = (
(1418,1201,l),
(1418,1069,l),
(1727,1069,l),
(1727,1201,l)
);
},
{
closed = 1;
nodes = (
(809,1490,l),
(809,1405,ls),
(809,1105,o),
(553,863,o),
(79,760,c),
(142,631,l),
(667,751,o),
(983,1044,o),
(983,1490,c)
);
},
{
closed = 1;
nodes = (
(152,1490,l),
(152,1361,l),
(899,1361,l),
(899,1490,l)
);
},
{
closed = 1;
nodes = (
(336,583,l),
(336,-79,l),
(492,-79,l),
(492,463,l),
(1471,463,l),
(1471,583,l)
);
},
{
closed = 1;
nodes = (
(336,-18,l),
(336,-138,l),
(1512,-138,l),
(1512,-18,l)
);
},
{
closed = 1;
nodes = (
(438,286,l),
(438,168,l),
(1449,168,l),
(1449,286,l)
);
}
);
width = 1770;
},
{
layerId = "94F54C43-8AEE-4ED6-B3C2-2A9D33534E61";
shapes = (
{
closed = 1;
nodes = (
(1173,1659,l),
(1173,702,l),
(1531,702,l),
(1531,1659,l)
);
},
{
closed = 1;
nodes = (
(1434,1324,l),
(1434,1032,l),
(1757,1032,l),
(1757,1324,l)
);
},
{
closed = 1;
nodes = (
(622,1540,l),
(622,1305,ls),
(622,1165,o),
(504,1005,o),
(15,953,c),
(156,672,l),
(747,756,o),
(1024,1018,o),
(1024,1540,c)
);
},
{
closed = 1;
nodes = (
(114,1540,l),
(114,1256,l),
(860,1256,l),
(860,1540,l)
);
},
{
closed = 1;
nodes = (
(257,639,l),
(257,-54,l),
(617,-54,l),
(617,382,l),
(1540,382,l),
(1540,639,l)
);
},
{
closed = 1;
nodes = (
(257,66,l),
(257,-191,l),
(1577,-191,l),
(1577,66,l)
);
},
{
closed = 1;
nodes = (
(509,346,l),
(509,101,l),
(1522,101,l),
(1522,346,l)
);
}
);
width = 1770;
}
);
unicode = 44057;
}
{
glyphname = "gap-ko";
layers = (
{
layerId = m01;
shapes = (
{
closed = 1;
nodes = (
(1304,1613,l),
(1304,624,l),
(1461,624,l),
(1461,1613,l)
);
},
{
closed = 1;
nodes = (
(1412,1189,l),
(1412,1058,l),
(1727,1058,l),
(1727,1189,l)
);
},
{
closed = 1;
nodes = (
(809,1497,l),
(809,1419,ls),
(809,1106,o),
(522,856,o),
(75,743,c),
(135,612,l),
(640,743,o),
(981,1050,o),
(981,1497,c)
);
},
{
closed = 1;
nodes = (
(160,1497,l),
(160,1369,l),
(906,1369,l),
(906,1497,l)
);
},
{
closed = 1;
nodes = (
(320,537,l),
(320,409,l),
(1508,409,l),
(1508,537,l)
);
},
{
closed = 1;
nodes = (
(306,-2,l),
(306,-130,l),
(1530,-130,l),
(1530,-2,l)
);
},
{
closed = 1;
nodes = (
(572,487,l),
(572,-62,l),
(727,-62,l),
(727,487,l)
);
},
{
closed = 1;
nodes = (
(1106,487,l),
(1106,-62,l),
(1260,-62,l),
(1260,487,l)
);
}
);
width = 1770;
},
{
layerId = "94F54C43-8AEE-4ED6-B3C2-2A9D33534E61";
shapes = (
{
closed = 1;
nodes = (
(1173,1660,l),
(1173,677,l),
(1531,677,l),
(1531,1660,l)
);
},
{
closed = 1;
nodes = (
(1435,1312,l),
(1435,1020,l),
(1757,1020,l),
(1757,1312,l)
);
},
{
closed = 1;
nodes = (
(622,1563,l),
(622,1348,ls),
(622,1177,o),
(466,990,o),
(7,915,c),
(140,628,l),
(721,738,o),
(1019,1045,o),
(1019,1563,c)
);
},
{
closed = 1;
nodes = (
(123,1563,l),
(123,1281,l),
(867,1281,l),
(867,1563,l)
);
},
{
closed = 1;
nodes = (
(276,611,l),
(276,334,l),
(1557,334,l),
(1557,611,l)
);
},
{
closed = 1;
nodes = (
(259,88,l),
(259,-192,l),
(1579,-192,l),
(1579,88,l)
);
},
{
closed = 1;
nodes = (
(469,508,l),
(469,-36,l),
(824,-36,l),
(824,508,l)
);
},
{
closed = 1;
nodes = (
(1011,508,l),
(1011,-36,l),
(1364,-36,l),
(1364,508,l)
);
}
);
width = 1770;
}
);
unicode = 44058;
}
{
glyphname = uniAC1A;
layers = (
{
layerId = m01;
shapes = (
{
closed = 1;
nodes = (
(1305,1613,l),
(1305,624,l),
(1462,624,l),
(1462,1613,l)
);
},
{
closed = 1;
nodes = (
(1413,1189,l),
(1413,1058,l),
(1728,1058,l),
(1728,1189,l)
);
},
{
closed = 1;
nodes = (
(810,1497,l),
(810,1419,ls),
(810,1106,o),
(523,856,o),
(76,743,c),
(136,612,l),
(641,743,o),
(982,1050,o),
(982,1497,c)
);
},
{
closed = 1;
nodes = (
(161,1497,l),
(161,1369,l),
(907,1369,l),
(907,1497,l)
);
},
{
closed = 1;
nodes = (
(321,537,l),
(321,409,l),
(1509,409,l),
(1509,537,l)
);
},
{
closed = 1;
nodes = (
(307,-2,l),
(307,-130,l),
(1531,-130,l),
(1531,-2,l)
);
},
{
closed = 1;
nodes = (
(573,487,l),
(573,-62,l),
(728,-62,l),
(728,487,l)
);
},
{
closed = 1;
nodes = (
(1107,487,l),
(1107,-62,l),
(1261,-62,l),
(1261,487,l)
);
}
);
width = 1771;
},
{
layerId = "94F54C43-8AEE-4ED6-B3C2-2A9D33534E61";
shapes = (
{
closed = 1;
nodes = (
(1177,1658,l),
(1177,676,l),
(1531,676,l),
(1531,1658,l)
);
},
{
closed = 1;
nodes = (
(1436,1310,l),
(1436,1021,l),
(1757,1021,l),
(1757,1310,l)
);
},
{
closed = 1;
nodes = (
(627,1561,l),
(627,1349,ls),
(627,1176,o),
(469,987,o),
(9,911,c),
(142,628,l),
(720,738,o),
(1019,1045,o),
(1019,1561,c)
);
},
{
closed = 1;
nodes = (
(125,1561,l),
(125,1283,l),
(869,1283,l),
(869,1561,l)
);
},
{
closed = 1;
nodes = (
(278,609,l),
(278,335,l),
(1558,335,l),
(1558,609,l)
);
},
{
closed = 1;
nodes = (
(262,86,l),
(262,-191,l),
(1578,-191,l),
(1578,86,l)
);
},
{
closed = 1;
nodes = (
(472,507,l),
(472,-37,l),
(824,-37,l),
(824,507,l)
);
},
{
closed = 1;
nodes = (
(1014,507,l),
(1014,-37,l),
(1363,-37,l),
(1363,507,l)
);
}
);
width = 1771;
}
);
unicode = 44058;
}
{
glyphname = uniAC1B;
layers = (
{
layerId = m01;
shapes = (
{
closed = 1;
nodes = (
(1305,1614,l),
(1305,678,l),
(1462,678,l),
(1462,1614,l)
);
},
{
closed = 1;
nodes = (
(1419,1218,l),
(1419,1086,l),
(1728,1086,l),
(1728,1218,l)
);
},
{
closed = 1;
nodes = (
(807,1511,l),
(807,1432,ls),
(807,1119,o),
(557,878,o),
(77,767,c),
(135,637,l),
(671,764,o),
(979,1061,o),
(979,1511,c)
);
},
{
closed = 1;
nodes = (
(150,1511,l),
(150,1381,l),
(897,1381,l),
(897,1511,l)
);
},
{
closed = 1;
nodes = (
(291,553,l),
(291,430,l),
(1540,430,l),
(1540,553,l)
);
},
{
closed = 1;
nodes = (
(605,347,o),
(416,255,o),
(416,94,cs),
(416,-69,o),
(604,-160,o),
(914,-160,cs),
(1225,-160,o),
(1412,-69,o),
(1412,94,cs),
(1412,255,o),
(1224,347,o),
(914,347,cs)
);
},
{
closed = 1;
nodes = (
(1133,230,o),
(1264,180,o),
(1264,94,cs),
(1264,4,o),
(1134,-44,o),
(914,-44,cs),
(694,-44,o),
(566,4,o),
(566,94,cs),
(566,180,o),
(695,230,o),
(914,230,cs)
);
},
{
closed = 1;
nodes = (
(837,762,l),
(837,486,l),
(993,486,l),
(993,762,l)
);
}
);
width = 1770;
},
{
layerId = "94F54C43-8AEE-4ED6-B3C2-2A9D33534E61";
shapes = (
{
closed = 1;
nodes = (
(1177,1658,l),
(1177,707,l),
(1531,707,l),
(1531,1658,l)
);
},
{
closed = 1;
nodes = (
(1435,1322,l),
(1435,1034,l),
(1757,1034,l),
(1757,1322,l)
);
},
{
closed = 1;
nodes = (
(617,1588,l),
(617,1377,ls),
(617,1197,o),
(516,1028,o),
(14,955,c),
(136,675,l),
(756,782,o),
(1008,1053,o),
(1008,1588,c)
);
},
{
closed = 1;
nodes = (
(95,1588,l),
(95,1309,l),
(839,1309,l),
(839,1588,l)
);
},
{
closed = 1;
nodes = (
(222,633,l),
(222,370,l),
(1554,370,l),
(1554,633,l)
);
},
{
closed = 1;
nodes = (
(551,341,o),
(341,238,o),
(341,68,cs),
(341,-109,o),
(550,-209,o),
(887,-209,cs),
(1223,-209,o),
(1429,-109,o),
(1429,68,cs),
(1429,238,o),
(1223,341,o),
(887,341,cs)
);
},
{
closed = 1;
nodes = (
(1034,97,o),
(1096,95,o),
(1096,68,cs),
(1096,36,o),
(1035,34,o),
(887,34,cs),
(738,34,o),
(677,36,o),
(677,68,cs),
(677,95,o),
(739,97,o),
(887,97,cs)
);
},
{
closed = 1;
nodes = (
(710,776,l),
(710,495,l),
(1065,495,l),
(1065,776,l)
);
}
);
width = 1770;
}
);
unicode = 44059;
}
{
glyphname = uniAC1C;
layers = (
{
layerId = m01;
shapes = (
{
closed = 1;
nodes = (
(1438,1614,l),
(1438,-162,l),
(1589,-162,l),
(1589,1614,l)
);
},
{
closed = 1;
nodes = (
(1143,898,l),
(1143,769,l),
(1491,769,l),
(1491,898,l)
);
},
{
closed = 1;
nodes = (
(686,1385,l),
(686,1356,ls),
(686,947,o),
(527,583,o),
(73,333,c),
(165,221,l),
(677,506,o),
(837,930,o),
(837,1385,c)
);
},
{
closed = 1;
nodes = (
(140,1385,l),
(140,1255,l),
(739,1255,l),
(739,1385,l)
);
},
{
closed = 1;
nodes = (
(1040,1568,l),
(1040,-74,l),
(1189,-74,l),
(1189,1568,l)
);
}
);
width = 1770;
},
{
layerId = "94F54C43-8AEE-4ED6-B3C2-2A9D33534E61";
shapes = (
{
closed = 1;
nodes = (
(1317,1659,l),
(1317,-204,l),
(1659,-204,l),
(1659,1659,l)
);
},
{
closed = 1;
nodes = (
(1141,1001,l),
(1141,716,l),
(1406,716,l),
(1406,1001,l)
);
},
{
closed = 1;
nodes = (
(511,1442,l),
(511,1365,ls),
(511,900,o),
(377,648,o),
(-12,407,c),
(196,161,l),
(710,468,o),
(853,872,o),
(853,1442,c)
);
},
{
closed = 1;
nodes = (
(103,1442,l),
(103,1157,l),
(609,1157,l),
(609,1442,l)
);
},
{
closed = 1;
nodes = (
(901,1612,l),
(901,-135,l),
(1235,-135,l),
(1235,1612,l)
);
}
);
width = 1770;
}
);
unicode = 44060;
}
{
glyphname = uniAC1D;
layers = (
{
layerId = m01;
shapes = (
{
closed = 1;
nodes = (
(1431,1613,l),
(1431,568,l),
(1581,568,l),
(1581,1613,l)
);
},
{
closed = 1;
nodes = (
(1140,1166,l),
(1140,1035,l),
(1483,1035,l),
(1483,1166,l)
);
},
{
closed = 1;
nodes = (
(1039,1581,l),
(1039,577,l),
(1188,577,l),
(1188,1581,l)
);
},
{
closed = 1;
nodes = (
(380,482,l),
(380,353,l),
(1425,353,l),
(1425,-162,l),
(1581,-162,l),
(1581,482,l)
);
},
{
closed = 1;
nodes = (
(693,1482,l),
(693,1431,ls),
(693,1096,o),
(482,827,o),
(82,665,c),
(160,549,l),
(611,738,o),
(851,1059,o),
(851,1482,c)
);
},
{
closed = 1;
nodes = (
(152,1482,l),
(152,1353,l),
(749,1353,l),
(749,1482,l)
);
}
);
width = 1770;
},
{
layerId = "94F54C43-8AEE-4ED6-B3C2-2A9D33534E61";
shapes = (
{
closed = 1;
nodes = (
(1313,1660,l),
(1313,576,l),
(1654,576,l),
(1654,1660,l)
);
},
{
closed = 1;
nodes = (
(1149,1266,l),
(1149,979,l),
(1396,979,l),
(1396,1266,l)
);
},
{
closed = 1;
nodes = (
(901,1627,l),
(901,576,l),
(1235,576,l),
(1235,1627,l)
);
},
{
closed = 1;
nodes = (
(311,508,l),
(311,226,l),
(1293,226,l),
(1293,-206,l),
(1654,-206,l),
(1654,508,l)
);
},
{
closed = 1;
nodes = (
(485,1537,l),
(485,1397,ls),
(485,1130,o),
(370,955,o),
(-14,829,c),
(150,571,l),
(649,749,o),
(843,1045,o),
(843,1537,c)
);
},
{
closed = 1;
nodes = (
(89,1537,l),
(89,1255,l),
(597,1255,l),
(597,1537,l)
);
}
);
width = 1770;
}
);
unicode = 44061;
}
{
glyphname = uniAC1E;
layers = (
{
layerId = m01;
shapes = (
{
closed = 1;
nodes = (
(340,493,l),
(340,364,l),
(768,364,l),
(768,-162,l),
(925,-162,l),
(925,493,l)
);
},
{
closed = 1;
nodes = (
(1011,493,l),
(1011,364,l),
(1426,364,l),
(1426,-162,l),
(1582,-162,l),
(1582,493,l)
);
},
{
closed = 1;
nodes = (
(1432,1613,l),
(1432,598,l),
(1582,598,l),
(1582,1613,l)
);
},
{
closed = 1;
nodes = (
(1141,1170,l),
(1141,1038,l),
(1484,1038,l),
(1484,1170,l)
);
},
{
closed = 1;
nodes = (
(1040,1581,l),
(1040,610,l),
(1189,610,l),
(1189,1581,l)
);
},
{
closed = 1;
nodes = (
(694,1482,l),
(694,1431,ls),
(694,1098,o),
(477,841,o),
(84,687,c),
(161,569,l),
(605,750,o),
(852,1061,o),
(852,1482,c)
);
},
{
closed = 1;
nodes = (
(153,1482,l),
(153,1353,l),
(750,1353,l),
(750,1482,l)
);
}
);
width = 1770;
},
{
layerId = "94F54C43-8AEE-4ED6-B3C2-2A9D33534E61";
shapes = (
{
closed = 1;
nodes = (
(265,525,l),
(265,249,l),
(570,249,l),
(570,-206,l),
(927,-206,l),
(927,525,l)
);
},
{
closed = 1;
nodes = (
(1001,525,l),
(1001,249,l),
(1297,249,l),
(1297,-206,l),
(1653,-206,l),
(1653,525,l)
);
},
{
closed = 1;
nodes = (
(1317,1658,l),
(1317,589,l),
(1653,589,l),
(1653,1658,l)
);
},
{
closed = 1;
nodes = (
(1149,1266,l),
(1149,981,l),
(1398,981,l),
(1398,1266,l)
);
},
{
closed = 1;
nodes = (
(906,1625,l),
(906,602,l),
(1235,602,l),
(1235,1625,l)
);
},
{
closed = 1;
nodes = (
(489,1536,l),
(489,1398,ls),
(489,1130,o),
(375,950,o),
(-12,820,c),
(151,566,l),
(651,747,o),
(844,1044,o),
(844,1536,c)
);
},
{
closed = 1;
nodes = (
(91,1536,l),
(91,1257,l),
(601,1257,l),
(601,1536,l)
);
}
);
width = 1770;
}
);
unicode = 44062;
}
{
glyphname = uniAC20;
layers = (
{
layerId = m01;
shapes = (
{
closed = 1;
nodes = (
(1432,1613,l),
(1432,287,l),
(1582,287,l),
(1582,1613,l)
);
},
{
closed = 1;
nodes = (
(1141,1070,l),
(1141,938,l),
(1484,938,l),
(1484,1070,l)
);
},
{
closed = 1;
nodes = (
(1040,1581,l),
(1040,347,l),
(1189,347,l),
(1189,1581,l)
);
},
{
closed = 1;
nodes = (
(692,1440,l),
(692,1392,ls),
(692,1049,o),
(484,778,o),
(83,610,c),
(163,493,l),
(615,690,o),
(849,1016,o),
(849,1440,c)
);
},
{
closed = 1;
nodes = (
(156,1440,l),
(156,1312,l),
(752,1312,l),
(752,1440,l)
);
},
{
closed = 1;
nodes = (
(411,19,l),
(411,-110,l),
(1639,-110,l),
(1639,19,l)
);
},
{
closed = 1;
nodes = (
(411,448,l),
(411,-54,l),
(568,-54,l),
(568,448,l)
);
}
);
width = 1770;
},
{
layerId = "94F54C43-8AEE-4ED6-B3C2-2A9D33534E61";
shapes = (
{
closed = 1;
nodes = (
(1317,1658,l),
(1317,269,l),
(1653,269,l),
(1653,1658,l)
);
},
{
closed = 1;
nodes = (
(1149,1166,l),
(1149,881,l),
(1398,881,l),
(1398,1166,l)
);
},
{
closed = 1;
nodes = (
(906,1625,l),
(906,314,l),
(1235,314,l),
(1235,1625,l)
);
},
{
closed = 1;
nodes = (
(482,1484,l),
(482,1352,ls),
(482,1063,o),
(371,883,o),
(-4,741,c),
(164,483,l),
(659,681,o),
(838,986,o),
(838,1484,c)
);
},
{
closed = 1;
nodes = (
(101,1484,l),
(101,1203,l),
(610,1203,l),
(610,1484,l)
);
},
{
closed = 1;
nodes = (
(339,97,l),
(339,-185,l),
(1699,-185,l),
(1699,97,l)
);
},
{
closed = 1;
nodes = (
(339,423,l),
(339,-87,l),
(693,-87,l),
(693,423,l)
);
}
);
width = 1770;
}
);
unicode = 44064;
}
{
glyphname = uniAC22;
layers = (
{
layerId = m01;
shapes = (
{
closed = 1;
nodes = (
(1432,1613,l),
(1432,697,l),
(1582,697,l),
(1582,1613,l)
);
},
{
closed = 1;
nodes = (
(1141,1210,l),
(1141,1081,l),
(1484,1081,l),
(1484,1210,l)
);
},
{
closed = 1;
nodes = (
(1040,1581,l),
(1040,726,l),
(1189,726,l),
(1189,1581,l)
);
},
{
closed = 1;
nodes = (
(690,1508,l),
(690,1455,ls),
(690,1138,o),
(485,894,o),
(88,751,c),
(164,635,l),
(610,803,o),
(849,1098,o),
(849,1508,c)
);
},
{
closed = 1;
nodes = (
(160,1508,l),
(160,1379,l),
(757,1379,l),
(757,1508,l)
);
},
{
closed = 1;
nodes = (
(329,15,l),
(329,-115,l),
(414,-115,ls),
(526,-115,o),
(697,-110,o),
(869,-52,c),
(843,77,l),
(690,25,o),
(520,15,o),
(414,15,cs)
);
},
{
closed = 1;
nodes = (
(329,540,l),
(329,-25,l),
(483,-25,l),
(483,540,l)
);
},
{
closed = 1;
nodes = (
(822,504,l),
(822,384,l),
(1681,384,l),
(1681,504,l)
);
},
{
closed = 1;
nodes = (
(1054,310,o),
(911,219,o),
(911,75,cs),
(911,-71,o),
(1054,-160,o),
(1252,-160,cs),
(1451,-160,o),
(1592,-71,o),
(1592,75,cs),
(1592,219,o),
(1451,310,o),
(1252,310,cs)
);
},
{
closed = 1;
nodes = (
(1369,198,o),
(1450,151,o),
(1450,75,cs),
(1450,-2,o),
(1369,-49,o),
(1252,-49,cs),
(1134,-49,o),
(1052,-2,o),
(1052,75,cs),
(1052,151,o),
(1134,198,o),
(1252,198,cs)
);
},
{
closed = 1;
nodes = (
(1177,660,l),
(1177,447,l),
(1329,447,l),
(1329,660,l)
);
}
);
width = 1770;
},
{
layerId = "94F54C43-8AEE-4ED6-B3C2-2A9D33534E61";
shapes = (
{
closed = 1;
nodes = (
(1317,1658,l),
(1317,728,l),
(1653,728,l),
(1653,1658,l)
);
},
{
closed = 1;
nodes = (
(1149,1322,l),
(1149,1043,l),
(1398,1043,l),
(1398,1322,l)
);
},
{
closed = 1;
nodes = (
(906,1625,l),
(906,735,l),
(1235,735,l),
(1235,1625,l)
);
},
{
closed = 1;
nodes = (
(474,1552,l),
(474,1409,ls),
(474,1169,o),
(371,1007,o),
(0,896,c),
(166,640,l),
(648,804,o),
(835,1078,o),
(835,1552,c)
);
},
{
closed = 1;
nodes = (
(107,1552,l),
(107,1272,l),
(616,1272,l),
(616,1552,l)
);
},
{
closed = 1;
nodes = (
(280,124,l),
(280,-158,l),
(400,-158,ls),
(635,-158,o),
(768,-150,o),
(909,-98,c),
(858,179,l),
(734,136,o),
(622,124,o),
(400,124,cs)
);
},
{
closed = 1;
nodes = (
(280,592,l),
(280,43,l),
(625,43,l),
(625,592,l)
);
},
{
closed = 1;
nodes = (
(839,570,l),
(839,320,l),
(1738,320,l),
(1738,570,l)
);
},
{
closed = 1;
nodes = (
(1069,305,o),
(916,203,o),
(916,48,cs),
(916,-111,o),
(1069,-212,o),
(1285,-212,cs),
(1500,-212,o),
(1653,-111,o),
(1653,48,cs),
(1653,203,o),
(1500,305,o),
(1285,305,cs)
);
},
{
closed = 1;
nodes = (
(1315,71,o),
(1341,74,o),
(1341,48,cs),
(1341,19,o),
(1315,21,o),
(1285,21,cs),
(1255,21,o),
(1229,19,o),
(1229,48,cs),
(1229,74,o),
(1255,71,o),
(1285,71,cs)
);
},
{
closed = 1;
nodes = (
(1117,675,l),
(1117,473,l),
(1459,473,l),
(1459,675,l)
);
}
);
width = 1770;
}
);
unicode = 44066;
}
{
glyphname = uniAC24;
layers = (
{
layerId = m01;
shapes = (
{
closed = 1;
nodes = (
(1431,1613,l),
(1431,703,l),
(1581,703,l),
(1581,1613,l)
);
},
{
closed = 1;
nodes = (
(1140,1211,l),
(1140,1082,l),
(1483,1082,l),
(1483,1211,l)
);
},
{
closed = 1;
nodes = (
(1039,1581,l),
(1039,716,l),
(1188,716,l),
(1188,1581,l)
);
},
{
closed = 1;
nodes = (
(689,1506,l),
(689,1451,ls),
(689,1139,o),
(483,901,o),
(88,764,c),
(163,648,l),
(606,809,o),
(848,1098,o),
(848,1506,c)
);
},
{
closed = 1;
nodes = (
(159,1506,l),
(159,1378,l),
(756,1378,l),
(756,1506,l)
);
},
{
closed = 1;
nodes = (
(401,621,l),
(401,494,l),
(1428,494,l),
(1428,315,l),
(405,315,l),
(405,-67,l),
(560,-67,l),
(560,194,l),
(1581,194,l),
(1581,621,l)
);
},
{
closed = 1;
nodes = (
(405,-11,l),
(405,-138,l),
(1651,-138,l),
(1651,-11,l)
);
}
);
width = 1770;
},
{
layerId = "94F54C43-8AEE-4ED6-B3C2-2A9D33534E61";
shapes = (
{
closed = 1;
nodes = (
(1313,1660,l),
(1313,749,l),
(1654,749,l),
(1654,1660,l)
);
},
{
closed = 1;
nodes = (
(1149,1327,l),
(1149,1045,l),
(1396,1045,l),
(1396,1327,l)
);
},
{
closed = 1;
nodes = (
(901,1627,l),
(901,760,l),
(1235,760,l),
(1235,1627,l)
);
},
{
closed = 1;
nodes = (
(468,1554,l),
(468,1404,ls),
(468,1178,o),
(367,1028,o),
(1,924,c),
(165,668,l),
(643,820,o),
(834,1083,o),
(834,1554,c)
);
},
{
closed = 1;
nodes = (
(105,1554,l),
(105,1273,l),
(612,1273,l),
(612,1554,l)
);
},
{
closed = 1;
nodes = (
(341,685,l),
(341,410,l),
(1299,410,l),
(1299,377,l),
(341,377,l),
(341,-50,l),
(699,-50,l),
(699,120,l),
(1654,120,l),
(1654,685,l)
);
},
{
closed = 1;
nodes = (
(341,87,l),
(341,-191,l),
(1704,-191,l),
(1704,87,l)
);
}
);
width = 1770;
}
);
unicode = 44068;
}
{
glyphname = uniAC25;
layers = (
{
layerId = m01;
shapes = (
{
closed = 1;
nodes = (
(1005,595,l),
(1005,467,l),
(1426,467,l),
(1426,-160,l),
(1582,-160,l),
(1582,595,l)
);
},
{
closed = 1;
nodes = (
(1432,1613,l),
(1432,693,l),
(1582,693,l),
(1582,1613,l)
);
},
{
closed = 1;
nodes = (
(1141,1209,l),
(1141,1079,l),
(1484,1079,l),
(1484,1209,l)
);
},
{
closed = 1;
nodes = (
(1040,1581,l),
(1040,706,l),
(1189,706,l),
(1189,1581,l)
);
},
{
closed = 1;
nodes = (
(690,1508,l),
(690,1453,ls),
(690,1141,o),
(485,900,o),
(89,760,c),
(164,644,l),
(610,808,o),
(849,1100,o),
(849,1508,c)
);
},
{
closed = 1;
nodes = (
(160,1508,l),
(160,1379,l),
(757,1379,l),
(757,1508,l)
);
},
{
closed = 1;
nodes = (
(306,595,l),
(306,473,l),
(757,473,l),
(757,299,l),
(310,299,l),
(310,-64,l),
(463,-64,l),
(463,183,l),
(909,183,l),
(909,595,l)
);
},
{
closed = 1;
nodes = (
(310,-13,l),
(310,-138,l),
(420,-138,ls),
(716,-138,o),
(861,-135,o),
(1054,-98,c),
(1039,23,l),
(854,-8,o),
(709,-13,o),
(420,-13,cs)
);
}
);
width = 1770;
},
{
layerId = "94F54C43-8AEE-4ED6-B3C2-2A9D33534E61";
shapes = (
{
closed = 1;
nodes = (
(982,654,l),
(982,375,l),
(1297,375,l),
(1297,-198,l),
(1653,-198,l),
(1653,654,l)
);
},
{
closed = 1;
nodes = (
(1317,1658,l),
(1317,717,l),
(1653,717,l),
(1653,1658,l)
);
},
{
closed = 1;
nodes = (
(1149,1318,l),
(1149,1037,l),
(1398,1037,l),
(1398,1318,l)
);
},
{
closed = 1;
nodes = (
(906,1625,l),
(906,729,l),
(1235,729,l),
(1235,1625,l)
);
},
{
closed = 1;
nodes = (
(474,1552,l),
(474,1404,ls),
(474,1177,o),
(371,1025,o),
(3,923,c),
(166,668,l),
(643,819,o),
(835,1084,o),
(835,1552,c)
);
},
{
closed = 1;
nodes = (
(107,1552,l),
(107,1272,l),
(616,1272,l),
(616,1552,l)
);
},
{
closed = 1;
nodes = (
(248,654,l),
(248,396,l),
(573,396,l),
(573,359,l),
(248,359,l),
(248,-2,l),
(593,-2,l),
(593,119,l),
(917,119,l),
(917,654,l)
);
},
{
closed = 1;
nodes = (
(248,76,l),
(248,-190,l),
(385,-190,ls),
(718,-190,o),
(867,-188,o),
(1040,-158,c),
(1010,105,l),
(842,78,o),
(703,76,o),
(385,76,cs)
);
}
);
width = 1770;
}
);
unicode = 44069;
}
{
glyphname = "gaelm-ko";
layers = (
{
layerId = m01;
shapes = (
{
closed = 1;
nodes = (
(307,597,l),
(307,474,l),
(736,474,l),
(736,306,l),
(310,306,l),
(310,-52,l),
(463,-52,l),
(463,190,l),
(888,190,l),
(888,597,l)
);
},
{
closed = 1;
nodes = (
(1005,597,l),
(1005,-138,l),
(1581,-138,l),
(1581,597,l)
);
},
{
closed = 1;
nodes = (
(1442,477,l),
(1442,-18,l),
(1143,-18,l),
(1143,477,l)
);
},
{
closed = 1;
nodes = (
(310,-13,l),
(310,-138,l),
(407,-138,ls),
(647,-138,o),
(773,-136,o),
(942,-104,c),
(927,20,l),
(764,-10,o),
(641,-13,o),
(407,-13,cs)
);
},
{
closed = 1;
nodes = (
(1431,1613,l),
(1431,693,l),
(1581,693,l),
(1581,1613,l)
);
},
{
closed = 1;
nodes = (
(1140,1209,l),
(1140,1079,l),
(1483,1079,l),
(1483,1209,l)
);
},
{
closed = 1;
nodes = (
(1039,1581,l),
(1039,706,l),
(1188,706,l),
(1188,1581,l)
);
},
{
closed = 1;
nodes = (
(689,1508,l),
(689,1453,ls),
(689,1141,o),
(484,900,o),
(88,760,c),
(163,644,l),
(609,808,o),
(848,1100,o),
(848,1508,c)
);
},
{
closed = 1;
nodes = (
(159,1508,l),
(159,1379,l),
(756,1379,l),
(756,1508,l)
);
}
);
width = 1770;
},
{
layerId = "94F54C43-8AEE-4ED6-B3C2-2A9D33534E61";
shapes = (
{
closed = 1;
nodes = (
(245,655,l),
(245,394,l),
(553,394,l),
(553,359,l),
(246,359,l),
(246,-4,l),
(595,-4,l),
(595,116,l),
(901,116,l),
(901,655,l)
);
},
{
closed = 1;
nodes = (
(981,655,l),
(981,-191,l),
(1654,-191,l),
(1654,655,l)
);
},
{
closed = 1;
nodes = (
(1349,398,l),
(1349,66,l),
(1285,66,l),
(1285,398,l)
);
},
{
closed = 1;
nodes = (
(246,78,l),
(246,-191,l),
(371,-191,ls),
(650,-191,o),
(783,-189,o),
(940,-161,c),
(911,106,l),
(758,80,o),
(638,78,o),
(371,78,cs)
);
},
{
closed = 1;
nodes = (
(1313,1660,l),
(1313,716,l),
(1654,716,l),
(1654,1660,l)
);
},
{
closed = 1;
nodes = (
(1149,1320,l),
(1149,1037,l),
(1396,1037,l),
(1396,1320,l)
);
},
{
closed = 1;
nodes = (
(901,1627,l),
(901,728,l),
(1235,728,l),
(1235,1627,l)
);
},
{
closed = 1;
nodes = (
(468,1553,l),
(468,1404,ls),
(468,1178,o),
(367,1028,o),
(1,926,c),
(165,668,l),
(643,820,o),
(834,1084,o),
(834,1553,c)
);
},
{
closed = 1;
nodes = (
(105,1553,l),
(105,1269,l),
(612,1269,l),
(612,1553,l)
);
}
);
width = 1770;
}
);
unicode = 44070;
}
{
glyphname = uniAC28;
layers = (
{
layerId = m01;
shapes = (
{
closed = 1;
nodes = (
(1241,613,l),
(1241,446,ls),
(1241,259,o),
(1133,59,o),
(922,-31,c),
(1006,-153,l),
(1247,-45,o),
(1364,199,o),
(1364,446,cs),
(1364,613,l)
);
},
{
closed = 1;
nodes = (
(1273,613,l),
(1273,446,ls),
(1273,204,o),
(1395,-43,o),
(1636,-153,c),
(1718,-31,l),
(1508,64,o),
(1395,262,o),
(1395,446,cs),
(1395,613,l)
);
},
{
closed = 1;
nodes = (
(1432,1613,l),
(1432,693,l),
(1582,693,l),
(1582,1613,l)
);
},
{
closed = 1;
nodes = (
(1141,1209,l),
(1141,1079,l),
(1484,1079,l),
(1484,1209,l)
);
},
{
closed = 1;
nodes = (
(1040,1581,l),
(1040,706,l),
(1189,706,l),
(1189,1581,l)
);
},
{
closed = 1;
nodes = (
(690,1508,l),
(690,1453,ls),
(690,1142,o),
(485,902,o),
(89,764,c),
(164,648,l),
(607,810,o),
(849,1100,o),
(849,1508,c)
);
},
{
closed = 1;
nodes = (
(160,1508,l),
(160,1379,l),
(757,1379,l),
(757,1508,l)
);
},
{
closed = 1;
nodes = (
(308,593,l),
(308,470,l),
(739,470,l),
(739,301,l),
(311,301,l),
(311,-59,l),
(464,-59,l),
(464,185,l),
(892,185,l),
(892,593,l)
);
},
{
closed = 1;
nodes = (
(311,-13,l),
(311,-138,l),
(407,-138,ls),
(656,-138,o),
(774,-136,o),
(934,-105,c),
(918,18,l),
(765,-10,o),
(647,-13,o),
(407,-13,cs)
);
}
);
width = 1771;
},
{
layerId = "94F54C43-8AEE-4ED6-B3C2-2A9D33534E61";
shapes = (
{
closed = 1;
nodes = (
(1156,662,l),
(1156,508,ls),
(1156,323,o),
(1096,161,o),
(882,68,c),
(1063,-200,l),
(1344,-86,o),
(1424,190,o),
(1424,508,cs),
(1424,662,l)
);
},
{
closed = 1;
nodes = (
(1239,662,l),
(1239,508,ls),
(1239,206,o),
(1328,-80,o),
(1610,-200,c),
(1788,68,l),
(1572,175,o),
(1509,338,o),
(1509,508,cs),
(1509,662,l)
);
},
{
closed = 1;
nodes = (
(1317,1658,l),
(1317,717,l),
(1653,717,l),
(1653,1658,l)
);
},
{
closed = 1;
nodes = (
(1149,1318,l),
(1149,1037,l),
(1398,1037,l),
(1398,1318,l)
);
},
{
closed = 1;
nodes = (
(906,1625,l),
(906,729,l),
(1235,729,l),
(1235,1625,l)
);
},
{
closed = 1;
nodes = (
(474,1552,l),
(474,1404,ls),
(474,1177,o),
(371,1025,o),
(3,921,c),
(166,667,l),
(643,819,o),
(835,1084,o),
(835,1552,c)
);
},
{
closed = 1;
nodes = (
(107,1552,l),
(107,1272,l),
(616,1272,l),
(616,1552,l)
);
},
{
closed = 1;
nodes = (
(248,642,l),
(248,384,l),
(547,384,l),
(547,350,l),
(248,350,l),
(248,-16,l),
(593,-16,l),
(593,108,l),
(892,108,l),
(892,642,l)
);
},
{
closed = 1;
nodes = (
(248,76,l),
(248,-190,l),
(371,-190,ls),
(689,-190,o),
(801,-188,o),
(935,-162,c),
(906,102,l),
(776,78,o),
(670,76,o),
(371,76,cs)
);
}
);
width = 1771;
}
);
unicode = 44072;
}
{
glyphname = uniAC2A;
layers = (
{
layerId = m01;
shapes = (
{
closed = 1;
nodes = (
(970,597,l),
(970,470,l),
(1614,470,l),
(1614,597,l)
);
},
{
closed = 1;
nodes = (
(961,-11,l),
(961,-138,l),
(1622,-138,l),
(1622,-11,l)
);
},
{
closed = 1;
nodes = (
(1075,511,l),
(1075,-84,l),
(1208,-84,l),
(1208,511,l)
);
},
{
closed = 1;
nodes = (
(1375,511,l),
(1375,-84,l),
(1510,-84,l),
(1510,511,l)
);
},
{
closed = 1;
nodes = (
(1432,1613,l),
(1432,693,l),
(1582,693,l),
(1582,1613,l)
);
},
{
closed = 1;
nodes = (
(1141,1209,l),
(1141,1079,l),
(1484,1079,l),
(1484,1209,l)
);
},
{
closed = 1;
nodes = (
(1040,1581,l),
(1040,706,l),
(1189,706,l),
(1189,1581,l)
);
},
{
closed = 1;
nodes = (
(690,1508,l),
(690,1453,ls),
(690,1141,o),
(485,900,o),
(89,760,c),
(164,644,l),
(610,808,o),
(849,1100,o),
(849,1508,c)
);
},
{
closed = 1;
nodes = (
(160,1508,l),
(160,1379,l),
(757,1379,l),
(757,1508,l)
);
},
{
closed = 1;
nodes = (
(308,597,l),
(308,474,l),
(733,474,l),
(733,303,l),
(311,303,l),
(311,-59,l),
(464,-59,l),
(464,187,l),
(886,187,l),
(886,597,l)
);
},
{
closed = 1;
nodes = (
(311,-13,l),
(311,-138,l),
(407,-138,ls),
(638,-138,o),
(762,-136,o),
(926,-105,c),
(909,18,l),
(752,-11,o),
(629,-13,o),
(407,-13,cs)
);
}
);
width = 1770;
},
{
layerId = "94F54C43-8AEE-4ED6-B3C2-2A9D33534E61";
shapes = (
{
closed = 1;
nodes = (
(959,654,l),
(959,382,l),
(1671,382,l),
(1671,654,l)
);
},
{
closed = 1;
nodes = (
(961,83,l),
(961,-190,l),
(1668,-190,l),
(1668,83,l)
);
},
{
closed = 1;
nodes = (
(1016,473,l),
(1016,-61,l),
(1298,-61,l),
(1298,473,l)
);
},
{
closed = 1;
nodes = (
(1331,473,l),
(1331,-61,l),
(1615,-61,l),
(1615,473,l)
);
},
{
closed = 1;
nodes = (
(1317,1658,l),
(1317,717,l),
(1653,717,l),
(1653,1658,l)
);
},
{
closed = 1;
nodes = (
(1149,1318,l),
(1149,1037,l),
(1398,1037,l),
(1398,1318,l)
);
},
{
closed = 1;
nodes = (
(906,1625,l),
(906,729,l),
(1235,729,l),
(1235,1625,l)
);
},
{
closed = 1;
nodes = (
(474,1552,l),
(474,1404,ls),
(474,1177,o),
(371,1025,o),
(3,923,c),
(166,668,l),
(643,819,o),
(835,1084,o),
(835,1552,c)
);
},
{
closed = 1;
nodes = (
(107,1552,l),
(107,1272,l),
(616,1272,l),
(616,1552,l)
);
},
{
closed = 1;
nodes = (
(248,654,l),
(248,396,l),
(548,396,l),
(548,358,l),
(248,358,l),
(248,-4,l),
(593,-4,l),
(593,118,l),
(893,118,l),
(893,654,l)
);
},
{
closed = 1;
nodes = (
(248,76,l),
(248,-190,l),
(371,-190,ls),
(645,-190,o),
(772,-188,o),
(927,-162,c),
(898,102,l),
(745,78,o),
(629,76,o),
(371,76,cs)
);
}
);
width = 1770;
}
);
unicode = 44074;
}
{
glyphname = uniAC2C;
layers = (
{
layerId = m01;
shapes = (
{
closed = 1;
nodes = (
(1432,1613,l),
(1432,595,l),
(1582,595,l),
(1582,1613,l)
);
},
{
closed = 1;
nodes = (
(1143,1174,l),
(1143,1046,l),
(1486,1046,l),
(1486,1174,l)
);
},
{
closed = 1;
nodes = (
(1040,1581,l),
(1040,607,l),
(1189,607,l),
(1189,1581,l)
);
},
{
closed = 1;
nodes = (
(694,1482,l),
(694,1433,ls),
(694,1095,o),
(487,832,o),
(89,670,c),
(170,553,l),
(619,743,o),
(853,1058,o),
(853,1482,c)
);
},
{
closed = 1;
nodes = (
(156,1482,l),
(156,1353,l),
(752,1353,l),
(752,1482,l)
);
},
{
closed = 1;
nodes = (
(407,502,l),
(407,-134,l),
(1582,-134,l),
(1582,502,l)
);
},
{
closed = 1;
nodes = (
(1429,375,l),
(1429,-7,l),
(563,-7,l),
(563,375,l)
);
}
);
width = 1770;
},
{
layerId = "94F54C43-8AEE-4ED6-B3C2-2A9D33534E61";
shapes = (
{
closed = 1;
nodes = (
(1317,1658,l),
(1317,603,l),
(1653,603,l),
(1653,1658,l)
);
},
{
closed = 1;
nodes = (
(1154,1267,l),
(1154,985,l),
(1404,985,l),
(1404,1267,l)
);
},
{
closed = 1;
nodes = (
(906,1625,l),
(906,615,l),
(1235,615,l),
(1235,1625,l)
);
},
{
closed = 1;
nodes = (
(493,1536,l),
(493,1404,ls),
(493,1122,o),
(399,944,o),
(9,802,c),
(178,550,l),
(682,743,o),
(846,1038,o),
(846,1536,c)
);
},
{
closed = 1;
nodes = (
(101,1536,l),
(101,1257,l),
(610,1257,l),
(610,1536,l)
);
},
{
closed = 1;
nodes = (
(344,531,l),
(344,-178,l),
(1653,-178,l),
(1653,531,l)
);
},
{
closed = 1;
nodes = (
(1305,255,l),
(1305,98,l),
(695,98,l),
(695,255,l)
);
}
);
width = 1770;
}
);
unicode = 44076;
}
{
glyphname = uniAC2D;
layers = (
{
layerId = m01;
shapes = (
{
closed = 1;
nodes = (
(1432,1613,l),
(1432,651,l),
(1582,651,l),
(1582,1613,l)
);
},
{
closed = 1;
nodes = (
(1142,1184,l),
(1142,1054,l),
(1484,1054,l),
(1484,1184,l)
);
},
{
closed = 1;
nodes = (
(1040,1581,l),
(1040,662,l),
(1189,662,l),
(1189,1581,l)
);
},
{
closed = 1;
nodes = (
(692,1494,l),
(692,1446,ls),
(692,1113,o),
(488,861,o),
(89,706,c),
(168,588,l),
(618,769,o),
(851,1076,o),
(851,1494,c)
);
},
{
closed = 1;
nodes = (
(160,1494,l),
(160,1366,l),
(757,1366,l),
(757,1494,l)
);
},
{
closed = 1;
nodes = (
(411,569,l),
(411,-134,l),
(1582,-134,l),
(1582,569,l),
(1429,569,l),
(1429,355,l),
(567,355,l),
(567,569,l)
);
},
{
closed = 1;
nodes = (
(567,229,l),
(1429,229,l),
(1429,-7,l),
(567,-7,l)
);
}
);
width = 1771;
},
{
layerId = "94F54C43-8AEE-4ED6-B3C2-2A9D33534E61";
shapes = (
{
closed = 1;
nodes = (
(1317,1658,l),
(1317,660,l),
(1653,660,l),
(1653,1658,l)
);
},
{
closed = 1;
nodes = (
(1152,1284,l),
(1152,1002,l),
(1401,1002,l),
(1401,1284,l)
);
},
{
closed = 1;
nodes = (
(906,1625,l),
(906,670,l),
(1235,670,l),
(1235,1625,l)
);
},
{
closed = 1;
nodes = (
(482,1556,l),
(482,1426,ls),
(482,1149,o),
(373,974,o),
(7,837,c),
(176,580,l),
(655,769,o),
(840,1068,o),
(840,1556,c)
);
},
{
closed = 1;
nodes = (
(107,1556,l),
(107,1276,l),
(616,1276,l),
(616,1556,l)
);
},
{
closed = 1;
nodes = (
(343,590,l),
(343,-178,l),
(1653,-178,l),
(1653,590,l),
(1302,590,l),
(1302,468,l),
(697,468,l),
(697,590,l)
);
},
{
closed = 1;
nodes = (
(697,198,l),
(1302,198,l),
(1302,96,l),
(697,96,l)
);
}
);
width = 1771;
}
);
unicode = 44077;
}
{
glyphname = uniAC2E;
layers = (
{
layerId = m01;
shapes = (
{
closed = 1;
nodes = (
(289,572,l),
(289,-138,l),
(905,-138,l),
(905,572,l),
(760,572,l),
(760,349,l),
(436,349,l),
(436,572,l)
);
},
{
closed = 1;
nodes = (
(436,230,l),
(760,230,l),
(760,-14,l),
(436,-14,l)
);
},
{
closed = 1;
nodes = (
(1241,583,l),
(1241,434,ls),
(1241,252,o),
(1130,57,o),
(919,-33,c),
(1000,-153,l),
(1238,-49,o),
(1363,192,o),
(1363,434,cs),
(1363,583,l)
);
},
{
closed = 1;
nodes = (
(1274,583,l),
(1274,434,ls),
(1274,187,o),
(1392,-50,o),
(1637,-153,c),
(1718,-33,l),
(1507,50,o),
(1395,245,o),
(1395,434,cs),
(1395,583,l)
);
},
{
closed = 1;
nodes = (
(1432,1613,l),
(1432,647,l),
(1582,647,l),
(1582,1613,l)
);
},
{
closed = 1;
nodes = (
(1142,1185,l),
(1142,1055,l),
(1484,1055,l),
(1484,1185,l)
);
},
{
closed = 1;
nodes = (
(1040,1581,l),
(1040,665,l),
(1189,665,l),
(1189,1581,l)
);
},
{
closed = 1;
nodes = (
(692,1496,l),
(692,1445,ls),
(692,1124,o),
(477,893,o),
(92,757,c),
(169,639,l),
(604,801,o),
(851,1086,o),
(851,1496,c)
);
},
{
closed = 1;
nodes = (
(160,1496,l),
(160,1368,l),
(757,1368,l),
(757,1496,l)
);
}
);
width = 1770;
},
{
layerId = "94F54C43-8AEE-4ED6-B3C2-2A9D33534E61";
shapes = (
{
closed = 1;
nodes = (
(231,570,l),
(231,-190,l),
(943,-190,l),
(943,570,l),
(623,570,l),
(623,430,l),
(558,430,l),
(558,570,l)
);
},
{
closed = 1;
nodes = (
(558,179,l),
(623,179,l),
(623,74,l),
(558,74,l)
);
},
{
closed = 1;
nodes = (
(1156,586,l),
(1156,463,ls),
(1156,298,o),
(1092,146,o),
(881,54,c),
(1054,-208,l),
(1331,-103,o),
(1423,165,o),
(1423,463,cs),
(1423,586,l)
);
},
{
closed = 1;
nodes = (
(1243,586,l),
(1243,463,ls),
(1243,143,o),
(1320,-111,o),
(1612,-208,c),
(1786,54,l),
(1570,125,o),
(1509,276,o),
(1509,463,cs),
(1509,586,l)
);
},
{
closed = 1;
nodes = (
(1317,1658,l),
(1317,648,l),
(1653,648,l),
(1653,1658,l)
);
},
{
closed = 1;
nodes = (
(1152,1283,l),
(1152,1002,l),
(1401,1002,l),
(1401,1283,l)
);
},
{
closed = 1;
nodes = (
(906,1625,l),
(906,660,l),
(1235,660,l),
(1235,1625,l)
);
},
{
closed = 1;
nodes = (
(482,1555,l),
(482,1421,ls),
(482,1157,o),
(375,979,o),
(8,850,c),
(176,593,l),
(657,778,o),
(840,1072,o),
(840,1555,c)
);
},
{
closed = 1;
nodes = (
(107,1555,l),
(107,1275,l),
(616,1275,l),
(616,1555,l)
);
}
);
width = 1770;
}
);
unicode = 44078;
}
{
glyphname = uniAC2F;
layers = (
{
layerId = m01;
shapes = (
{
closed = 1;
nodes = (
(696,1450,l),
(696,1404,ls),
(696,1058,o),
(503,784,o),
(87,612,c),
(169,494,l),
(636,695,o),
(854,1025,o),
(854,1450,c)
);
},
{
closed = 1;
nodes = (
(163,1450,l),
(163,1321,l),
(760,1321,l),
(760,1450,l)
);
},
{
closed = 1;
nodes = (
(1432,1613,l),
(1432,453,l),
(1582,453,l),
(1582,1613,l)
);
},
{
closed = 1;
nodes = (
(1144,1145,l),
(1144,1013,l),
(1486,1013,l),
(1486,1145,l)
);
},
{
closed = 1;
nodes = (
(1040,1581,l),
(1040,617,l),
(1189,617,l),
(1189,1581,l)
);
},
{
closed = 1;
nodes = (
(912,533,l),
(912,453,ls),
(912,216,o),
(612,18,o),
(303,-30,c),
(364,-155,l),
(718,-92,o),
(1047,137,o),
(1047,453,cs),
(1047,533,l)
);
},
{
closed = 1;
nodes = (
(935,533,l),
(935,453,ls),
(935,137,o),
(1264,-92,o),
(1618,-155,c),
(1679,-30,l),
(1370,18,o),
(1069,216,o),
(1069,453,cs),
(1069,533,l)
);
}
);
width = 1770;
},
{
layerId = "94F54C43-8AEE-4ED6-B3C2-2A9D33534E61";
shapes = (
{
closed = 1;
nodes = (
(496,1516,l),
(496,1386,ls),
(496,1084,o),
(371,895,o),
(2,747,c),
(180,491,l),
(664,696,o),
(851,1015,o),
(851,1516,c)
);
},
{
closed = 1;
nodes = (
(102,1516,l),
(102,1233,l),
(611,1233,l),
(611,1516,l)
);
},
{
closed = 1;
nodes = (
(1317,1658,l),
(1317,445,l),
(1653,445,l),
(1653,1658,l)
);
},
{
closed = 1;
nodes = (
(1155,1242,l),
(1155,959,l),
(1406,959,l),
(1406,1242,l)
);
},
{
closed = 1;
nodes = (
(906,1625,l),
(906,625,l),
(1235,625,l),
(1235,1625,l)
);
},
{
closed = 1;
nodes = (
(816,544,l),
(816,513,ls),
(816,355,o),
(721,134,o),
(249,77,c),
(382,-200,l),
(929,-126,o),
(1118,182,o),
(1118,513,cs),
(1118,544,l)
);
},
{
closed = 1;
nodes = (
(867,544,l),
(867,513,ls),
(867,182,o),
(1057,-126,o),
(1604,-200,c),
(1736,77,l),
(1267,134,o),
(1170,355,o),
(1170,513,cs),
(1170,544,l)
);
}
);
width = 1770;
}
);
unicode = 44079;
}
{
glyphname = uniAC30;
layers = (
{
layerId = m01;
shapes = (
{
closed = 1;
nodes = (
(1432,1613,l),
(1432,594,l),
(1582,594,l),
(1582,1613,l)
);
},
{
closed = 1;
nodes = (
(1143,1164,l),
(1143,1034,l),
(1486,1034,l),
(1486,1164,l)
);
},
{
closed = 1;
nodes = (
(1040,1581,l),
(1040,604,l),
(1189,604,l),
(1189,1581,l)
);
},
{
closed = 1;
nodes = (
(692,1482,l),
(692,1431,ls),
(692,1097,o),
(480,835,o),
(86,676,c),
(165,558,l),
(611,745,o),
(852,1060,o),
(852,1482,c)
);
},
{
closed = 1;
nodes = (
(158,1482,l),
(158,1352,l),
(755,1352,l),
(755,1482,l)
);
},
{
closed = 1;
nodes = (
(542,526,l),
(542,408,ls),
(542,231,o),
(399,40,o),
(180,-37,c),
(257,-156,l),
(513,-59,o),
(663,177,o),
(663,408,cs),
(663,526,l)
);
},
{
closed = 1;
nodes = (
(576,526,l),
(576,408,ls),
(576,174,o),
(690,-71,o),
(948,-171,c),
(1014,-53,l),
(799,36,o),
(693,228,o),
(693,408,cs),
(693,526,l)
);
},
{
closed = 1;
nodes = (
(1201,526,l),
(1201,408,ls),
(1201,254,o),
(1092,44,o),
(879,-53,c),
(948,-171,l),
(1201,-63,o),
(1318,201,o),
(1318,408,cs),
(1318,526,l)
);
},
{
closed = 1;
nodes = (
(1233,526,l),
(1233,408,ls),
(1233,164,o),
(1380,-63,o),
(1639,-156,c),
(1717,-37,l),
(1490,37,o),
(1354,222,o),
(1354,408,cs),
(1354,526,l)
);
}
);
width = 1770;
},
{
layerId = "94F54C43-8AEE-4ED6-B3C2-2A9D33534E61";
shapes = (
{
closed = 1;
nodes = (
(1317,1658,l),
(1317,638,l),
(1653,638,l),
(1653,1658,l)
);
},
{
closed = 1;
nodes = (
(1154,1257,l),
(1154,973,l),
(1404,973,l),
(1404,1257,l)
);
},
{
closed = 1;
nodes = (
(906,1625,l),
(906,638,l),
(1235,638,l),
(1235,1625,l)
);
},
{
closed = 1;
nodes = (
(484,1536,l),
(484,1398,ls),
(484,1130,o),
(375,954,o),
(-2,823,c),
(164,566,l),
(657,747,o),
(844,1045,o),
(844,1536,c)
);
},
{
closed = 1;
nodes = (
(100,1536,l),
(100,1255,l),
(609,1255,l),
(609,1536,l)
);
},
{
closed = 1;
nodes = (
(421,563,l),
(421,517,ls),
(421,320,o),
(340,154,o),
(96,75,c),
(268,-183,l),
(584,-74,o),
(684,196,o),
(684,517,cs),
(684,563,l)
);
},
{
closed = 1;
nodes = (
(516,563,l),
(516,517,ls),
(516,216,o),
(611,-86,o),
(932,-200,c),
(1075,57,l),
(839,155,o),
(765,340,o),
(765,517,cs),
(765,563,l)
);
},
{
closed = 1;
nodes = (
(1098,563,l),
(1098,517,ls),
(1098,344,o),
(1022,163,o),
(787,57,c),
(932,-200,l),
(1247,-83,o),
(1347,224,o),
(1347,517,cs),
(1347,563,l)
);
},
{
closed = 1;
nodes = (
(1186,563,l),
(1186,517,ls),
(1186,188,o),
(1281,-78,o),
(1603,-183,c),
(1774,75,l),
(1518,149,o),
(1449,321,o),
(1449,517,cs),
(1449,563,l)
);
}
);
width = 1770;
}
);
unicode = 44080;
}
{
glyphname = uniAC31;
layers = (
{
layerId = m01;
shapes = (
{
closed = 1;
nodes = (
(1431,1613,l),
(1431,523,l),
(1581,523,l),
(1581,1613,l)
);
},
{
closed = 1;
nodes = (
(1142,1146,l),
(1142,1016,l),
(1485,1016,l),
(1485,1146,l)
);
},
{
closed = 1;
nodes = (
(1039,1581,l),
(1039,585,l),
(1188,585,l),
(1188,1581,l)
);
},
{
closed = 1;
nodes = (
(693,1469,l),
(693,1419,ls),
(693,1081,o),
(481,810,o),
(83,647,c),
(164,529,l),
(613,720,o),
(853,1043,o),
(853,1469,c)
);
},
{
closed = 1;
nodes = (
(160,1469,l),
(160,1338,l),
(755,1338,l),
(755,1469,l)
);
},
{
closed = 1;
nodes = (
(619,504,o),
(387,380,o),
(387,174,cs),
(387,-33,o),
(618,-155,o),
(993,-155,cs),
(1368,-155,o),
(1601,-33,o),
(1601,174,cs),
(1601,380,o),
(1367,504,o),
(993,504,cs)
);
},
{
closed = 1;
nodes = (
(1269,380,o),
(1443,303,o),
(1443,174,cs),
(1443,45,o),
(1270,-31,o),
(993,-31,cs),
(717,-31,o),
(543,45,o),
(543,174,cs),
(543,303,o),
(718,380,o),
(993,380,cs)
);
}
);
width = 1770;
},
{
layerId = "94F54C43-8AEE-4ED6-B3C2-2A9D33534E61";
shapes = (
{
closed = 1;
nodes = (
(1313,1660,l),
(1313,566,l),
(1654,566,l),
(1654,1660,l)
);
},
{
closed = 1;
nodes = (
(1153,1265,l),
(1153,979,l),
(1401,979,l),
(1401,1265,l)
);
},
{
closed = 1;
nodes = (
(901,1627,l),
(901,621,l),
(1235,621,l),
(1235,1627,l)
);
},
{
closed = 1;
nodes = (
(485,1542,l),
(485,1407,ls),
(485,1122,o),
(379,929,o),
(-12,784,c),
(159,520,l),
(667,721,o),
(848,1037,o),
(848,1542,c)
);
},
{
closed = 1;
nodes = (
(111,1542,l),
(111,1257,l),
(615,1257,l),
(615,1542,l)
);
},
{
closed = 1;
nodes = (
(602,562,o),
(337,414,o),
(337,182,cs),
(337,-52,o),
(601,-202,o),
(998,-202,cs),
(1398,-202,o),
(1661,-52,o),
(1661,182,cs),
(1661,414,o),
(1397,562,o),
(998,562,cs)
);
},
{
closed = 1;
nodes = (
(1198,291,o),
(1300,262,o),
(1300,182,cs),
(1300,100,o),
(1200,70,o),
(998,70,cs),
(798,70,o),
(696,100,o),
(696,182,cs),
(696,262,o),
(800,291,o),
(998,291,cs)
);
}
);
width = 1770;
}
);
unicode = 44081;
}
{
glyphname = uniAC34;
layers = (
{
layerId = m01;
shapes = (
{
closed = 1;
nodes = (
(371,506,l),
(371,378,l),
(1427,378,l),
(1427,-162,l),
(1581,-162,l),
(1581,506,l)
);
},
{
closed = 1;
nodes = (
(1481,200,l),
(329,159,l),
(348,28,l),
(1481,85,l)
);
},
{
closed = 1;
nodes = (
(1431,1613,l),
(1431,595,l),
(1581,595,l),
(1581,1613,l)
);
},
{
closed = 1;
nodes = (
(1142,1170,l),
(1142,1040,l),
(1485,1040,l),
(1485,1170,l)
);
},
{
closed = 1;
nodes = (
(1039,1581,l),
(1039,607,l),
(1188,607,l),
(1188,1581,l)
);
},
{
closed = 1;
nodes = (
(693,1482,l),
(693,1433,ls),
(693,1095,o),
(486,832,o),
(88,670,c),
(169,553,l),
(618,743,o),
(852,1058,o),
(852,1482,c)
);
},
{
closed = 1;
nodes = (
(155,1482,l),
(155,1353,l),
(751,1353,l),
(751,1482,l)
);
}
);
width = 1770;
},
{
layerId = "94F54C43-8AEE-4ED6-B3C2-2A9D33534E61";
shapes = (
{
closed = 1;
nodes = (
(333,533,l),
(333,255,l),
(1299,255,l),
(1299,-206,l),
(1654,-206,l),
(1654,533,l)
);
},
{
closed = 1;
nodes = (
(1407,190,l),
(298,157,l),
(331,-122,l),
(1407,-59,l)
);
},
{
closed = 1;
nodes = (
(1313,1660,l),
(1313,603,l),
(1654,603,l),
(1654,1660,l)
);
},
{
closed = 1;
nodes = (
(1153,1270,l),
(1153,985,l),
(1401,985,l),
(1401,1270,l)
);
},
{
closed = 1;
nodes = (
(901,1627,l),
(901,615,l),
(1235,615,l),
(1235,1627,l)
);
},
{
closed = 1;
nodes = (
(487,1537,l),
(487,1403,ls),
(487,1122,o),
(396,946,o),
(7,805,c),
(177,549,l),
(683,743,o),
(845,1037,o),
(845,1537,c)
);
},
{
closed = 1;
nodes = (
(99,1537,l),
(99,1255,l),
(605,1255,l),
(605,1537,l)
);
}
);
width = 1770;
}
);
unicode = 44084;
}
{
glyphname = uniAC35;
layers = (
{
layerId = m01;
shapes = (
{
closed = 1;
nodes = (
(419,589,l),
(419,-74,l),
(576,-74,l),
(576,467,l),
(1592,467,l),
(1592,589,l)
);
},
{
closed = 1;
nodes = (
(419,-18,l),
(419,-141,l),
(1630,-141,l),
(1630,-18,l)
);
},
{
closed = 1;
nodes = (
(537,286,l),
(537,168,l),
(1571,168,l),
(1571,286,l)
);
},
{
closed = 1;
nodes = (
(1432,1613,l),
(1432,677,l),
(1582,677,l),
(1582,1613,l)
);
},
{
closed = 1;
nodes = (
(1141,1199,l),
(1141,1070,l),
(1484,1070,l),
(1484,1199,l)
);
},
{
closed = 1;
nodes = (
(1040,1581,l),
(1040,690,l),
(1189,690,l),
(1189,1581,l)
);
},
{
closed = 1;
nodes = (
(690,1501,l),
(690,1450,ls),
(690,1130,o),
(486,884,o),
(88,739,c),
(162,622,l),
(612,793,o),
(849,1090,o),
(849,1501,c)
);
},
{
closed = 1;
nodes = (
(160,1501,l),
(160,1373,l),
(757,1373,l),
(757,1501,l)
);
}
);
width = 1770;
},
{
layerId = "94F54C43-8AEE-4ED6-B3C2-2A9D33534E61";
shapes = (
{
closed = 1;
nodes = (
(362,651,l),
(362,-41,l),
(718,-41,l),
(718,390,l),
(1663,390,l),
(1663,651,l)
);
},
{
closed = 1;
nodes = (
(362,61,l),
(362,-201,l),
(1694,-201,l),
(1694,61,l)
);
},
{
closed = 1;
nodes = (
(659,345,l),
(659,102,l),
(1643,102,l),
(1643,345,l)
);
},
{
closed = 1;
nodes = (
(1317,1658,l),
(1317,708,l),
(1653,708,l),
(1653,1658,l)
);
},
{
closed = 1;
nodes = (
(1149,1310,l),
(1149,1030,l),
(1398,1030,l),
(1398,1310,l)
);
},
{
closed = 1;
nodes = (
(906,1625,l),
(906,719,l),
(1235,719,l),
(1235,1625,l)
);
},
{
closed = 1;
nodes = (
(474,1547,l),
(474,1405,ls),
(474,1162,o),
(371,997,o),
(0,886,c),
(167,629,l),
(648,794,o),
(835,1070,o),
(835,1547,c)
);
},
{
closed = 1;
nodes = (
(107,1547,l),
(107,1267,l),
(616,1267,l),
(616,1547,l)
);
}
);
width = 1770;
}
);
unicode = 44085;
}
{
glyphname = uniAC37;
layers = (
{
layerId = m01;
shapes = (
{
closed = 1;
nodes = (
(1432,1613,l),
(1432,661,l),
(1582,661,l),
(1582,1613,l)
);
},
{
closed = 1;
nodes = (
(1141,1216,l),
(1141,1086,l),
(1484,1086,l),
(1484,1216,l)
);
},
{
closed = 1;
nodes = (
(1040,1581,l),
(1040,747,l),
(1189,747,l),
(1189,1581,l)
);
},
{
closed = 1;
nodes = (
(690,1494,l),
(690,1439,ls),
(690,1127,o),
(484,890,o),
(89,752,c),
(164,635,l),
(607,798,o),
(849,1087,o),
(849,1494,c)
);
},
{
closed = 1;
nodes = (
(160,1494,l),
(160,1367,l),
(757,1367,l),
(757,1494,l)
);
},
{
closed = 1;
nodes = (
(349,528,l),
(349,405,l),
(1627,405,l),
(1627,528,l)
);
},
{
closed = 1;
nodes = (
(668,326,o),
(480,240,o),
(480,83,cs),
(480,-74,o),
(668,-160,o),
(989,-160,cs),
(1309,-160,o),
(1497,-74,o),
(1497,83,cs),
(1497,240,o),
(1308,326,o),
(989,326,cs)
);
},
{
closed = 1;
nodes = (
(1217,213,o),
(1346,168,o),
(1346,83,cs),
(1346,-2,o),
(1218,-47,o),
(989,-47,cs),
(760,-47,o),
(631,-2,o),
(631,83,cs),
(631,168,o),
(760,213,o),
(989,213,cs)
);
},
{
closed = 1;
nodes = (
(912,698,l),
(912,455,l),
(1066,455,l),
(1066,698,l)
);
}
);
width = 1771;
},
{
layerId = "94F54C43-8AEE-4ED6-B3C2-2A9D33534E61";
shapes = (
{
closed = 1;
nodes = (
(1317,1658,l),
(1317,677,l),
(1653,677,l),
(1653,1658,l)
);
},
{
closed = 1;
nodes = (
(1149,1323,l),
(1149,1043,l),
(1398,1043,l),
(1398,1323,l)
);
},
{
closed = 1;
nodes = (
(906,1625,l),
(906,764,l),
(1235,764,l),
(1235,1625,l)
);
},
{
closed = 1;
nodes = (
(474,1548,l),
(474,1399,ls),
(474,1173,o),
(371,1021,o),
(3,917,c),
(166,661,l),
(643,815,o),
(835,1080,o),
(835,1548,c)
);
},
{
closed = 1;
nodes = (
(107,1548,l),
(107,1271,l),
(616,1271,l),
(616,1548,l)
);
},
{
closed = 1;
nodes = (
(320,594,l),
(320,334,l),
(1670,334,l),
(1670,594,l)
);
},
{
closed = 1;
nodes = (
(649,311,o),
(444,220,o),
(444,50,cs),
(444,-117,o),
(648,-209,o),
(997,-209,cs),
(1343,-209,o),
(1546,-117,o),
(1546,50,cs),
(1546,220,o),
(1342,311,o),
(997,311,cs)
);
},
{
closed = 1;
nodes = (
(1156,75,o),
(1207,76,o),
(1207,50,cs),
(1207,24,o),
(1157,25,o),
(997,25,cs),
(836,25,o),
(785,24,o),
(785,50,cs),
(785,76,o),
(836,75,o),
(997,75,cs)
);
},
{
closed = 1;
nodes = (
(817,703,l),
(817,414,l),
(1172,414,l),
(1172,703,l)
);
}
);
width = 1771;
}
);
unicode = 44087;
}
{
glyphname = uniAC38;
layers = (
{
layerId = m01;
shapes = (
{
closed = 1;
nodes = (
(1403,1136,l),
(1403,1004,l),
(1735,1004,l),
(1735,1136,l)
);
},
{
closed = 1;
nodes = (
(1403,604,l),
(1403,471,l),
(1735,471,l),
(1735,604,l)
);
},
{
closed = 1;
nodes = (
(1291,1615,l),
(1291,-161,l),
(1448,-161,l),
(1448,1615,l)
);
},
{
closed = 1;
nodes = (
(833,1424,l),
(833,1400,ls),
(833,923,o),
(576,543,o),
(85,298,c),
(172,177,l),
(752,464,o),
(987,921,o),
(987,1424,c)
);
},
{
closed = 1;
nodes = (
(168,1424,l),
(168,1293,l),
(914,1293,l),
(914,1424,l)
);
}
);
width = 1771;
},
{
layerId = "94F54C43-8AEE-4ED6-B3C2-2A9D33534E61";
shapes = (
{
closed = 1;
nodes = (
(1440,1232,l),
(1440,943,l),
(1758,943,l),
(1758,1232,l)
);
},
{
closed = 1;
nodes = (
(1440,682,l),
(1440,391,l),
(1758,391,l),
(1758,682,l)
);
},
{
closed = 1;
nodes = (
(1175,1661,l),
(1175,-202,l),
(1532,-202,l),
(1532,1661,l)
);
},
{
closed = 1;
nodes = (
(669,1476,l),
(669,1410,ls),
(669,888,o),
(453,600,o),
(-9,357,c),
(189,89,l),
(830,410,o),
(1019,888,o),
(1019,1476,c)
);
},
{
closed = 1;
nodes = (
(108,1476,l),
(108,1191,l),
(852,1191,l),
(852,1476,l)
);
}
);
width = 1771;
}
);
unicode = 44088;
}
{
glyphname = uniAC3B;
layers = (
{
layerId = m01;
shapes = (
{
closed = 1;
nodes = (
(1305,1614,l),
(1305,598,l),
(1462,598,l),
(1462,1614,l)
);
},
{
closed = 1;
nodes = (
(810,1499,l),
(810,1431,ls),
(810,1100,o),
(536,841,o),
(70,716,c),
(135,591,l),
(659,733,o),
(974,1052,o),
(974,1499,c)
);
},
{
closed = 1;
nodes = (
(150,1499,l),
(150,1372,l),
(897,1372,l),
(897,1499,l)
);
},
{
closed = 1;
nodes = (
(1160,523,l),
(1160,392,ls),
(1160,217,o),
(1047,34,o),
(834,-46,c),
(920,-167,l),
(1163,-70,o),
(1285,158,o),
(1285,392,cs),
(1285,523,l)
);
},
{
closed = 1;
nodes = (
(1192,523,l),
(1192,392,ls),
(1192,158,o),
(1315,-70,o),
(1558,-167,c),
(1642,-46,l),
(1431,33,o),
(1317,216,o),
(1317,392,cs),
(1317,523,l)
);
},
{
closed = 1;
nodes = (
(242,501,l),
(242,371,l),
(663,371,l),
(663,-159,l),
(818,-159,l),
(818,501,l)
);
},
{
closed = 1;
nodes = (
(1419,1357,l),
(1419,1228,l),
(1728,1228,l),
(1728,1357,l)
);
},
{
closed = 1;
nodes = (
(1419,977,l),
(1419,848,l),
(1728,848,l),
(1728,977,l)
);
}
);
width = 1771;
},
{
layerId = "94F54C43-8AEE-4ED6-B3C2-2A9D33534E61";
shapes = (
{
closed = 1;
nodes = (
(1177,1658,l),
(1177,627,l),
(1531,627,l),
(1531,1658,l)
);
},
{
closed = 1;
nodes = (
(621,1567,l),
(621,1379,ls),
(621,1155,o),
(434,944,o),
(-8,841,c),
(136,570,l),
(701,709,o),
(999,1046,o),
(999,1567,c)
);
},
{
closed = 1;
nodes = (
(95,1567,l),
(95,1286,l),
(839,1286,l),
(839,1567,l)
);
},
{
closed = 1;
nodes = (
(1060,549,l),
(1060,460,ls),
(1060,292,o),
(993,148,o),
(773,75,c),
(953,-198,l),
(1241,-96,o),
(1332,158,o),
(1332,460,cs),
(1332,549,l)
);
},
{
closed = 1;
nodes = (
(1143,549,l),
(1143,460,ls),
(1143,156,o),
(1233,-96,o),
(1521,-198,c),
(1703,75,l),
(1483,146,o),
(1415,288,o),
(1415,460,cs),
(1415,549,l)
);
},
{
closed = 1;
nodes = (
(182,516,l),
(182,236,l),
(464,236,l),
(464,-196,l),
(816,-196,l),
(816,516,l)
);
},
{
closed = 1;
nodes = (
(1435,1484,l),
(1435,1204,l),
(1757,1204,l),
(1757,1484,l)
);
},
{
closed = 1;
nodes = (
(1435,1089,l),
(1435,811,l),
(1757,811,l),
(1757,1089,l)
);
}
);
width = 1771;
}
);
unicode = 44091;
}
{
glyphname = "gyan-ko";
layers = (
{
layerId = m01;
shapes = (
{
closed = 1;
nodes = (
(1412,1278,l),
(1412,1147,l),
(1727,1147,l),
(1727,1278,l)
);
},
{
closed = 1;
nodes = (
(1412,842,l),
(1412,711,l),
(1727,711,l),
(1727,842,l)
);
},
{
closed = 1;
nodes = (
(1303,1614,l),
(1303,315,l),
(1461,315,l),
(1461,1614,l)
);
},
{
closed = 1;
nodes = (
(814,1477,l),
(814,1409,ls),
(814,1064,o),
(527,788,o),
(74,647,c),
(141,520,l),
(654,681,o),
(981,1020,o),
(981,1477,c)
);
},
{
closed = 1;
nodes = (
(148,1477,l),
(148,1347,l),
(894,1347,l),
(894,1477,l)
);
},
{
closed = 1;
nodes = (
(346,8,l),
(346,-122,l),
(1541,-122,l),
(1541,8,l)
);
},
{
closed = 1;
nodes = (
(346,447,l),
(346,-44,l),
(503,-44,l),
(503,447,l)
);
}
);
width = 1770;
},
{
layerId = "94F54C43-8AEE-4ED6-B3C2-2A9D33534E61";
shapes = (
{
closed = 1;
nodes = (
(1435,1383,l),
(1435,1093,l),
(1757,1093,l),
(1757,1383,l)
);
},
{
closed = 1;
nodes = (
(1435,939,l),
(1435,650,l),
(1757,650,l),
(1757,939,l)
);
},
{
closed = 1;
nodes = (
(1170,1657,l),
(1170,351,l),
(1531,351,l),
(1531,1657,l)
);
},
{
closed = 1;
nodes = (
(638,1524,l),
(638,1338,ls),
(638,1100,o),
(453,889,o),
(5,781,c),
(154,499,l),
(733,649,o),
(1022,994,o),
(1022,1524,c)
);
},
{
closed = 1;
nodes = (
(90,1524,l),
(90,1240,l),
(836,1240,l),
(836,1524,l)
);
},
{
closed = 1;
nodes = (
(277,103,l),
(277,-182,l),
(1579,-182,l),
(1579,103,l)
);
},
{
closed = 1;
nodes = (
(277,484,l),
(277,-32,l),
(639,-32,l),
(639,484,l)
);
}
);
width = 1770;
}
);
unicode = 44092;
}
{
glyphname = uniAC3C;
layers = (
{
layerId = m01;
shapes = (
{
closed = 1;
nodes = (
(1413,1278,l),
(1413,1147,l),
(1728,1147,l),
(1728,1278,l)
);
},
{
closed = 1;
nodes = (
(1413,842,l),
(1413,711,l),
(1728,711,l),
(1728,842,l)
);
},
{
closed = 1;
nodes = (
(1304,1614,l),
(1304,315,l),
(1462,315,l),
(1462,1614,l)
);
},
{
closed = 1;
nodes = (
(815,1477,l),
(815,1409,ls),
(815,1064,o),
(528,788,o),
(75,647,c),
(142,520,l),
(655,681,o),
(982,1020,o),
(982,1477,c)
);
},
{
closed = 1;
nodes = (
(149,1477,l),
(149,1347,l),
(895,1347,l),
(895,1477,l)
);
},
{
closed = 1;
nodes = (
(347,8,l),
(347,-122,l),
(1542,-122,l),
(1542,8,l)
);
},
{
closed = 1;
nodes = (
(347,447,l),
(347,-44,l),
(504,-44,l),
(504,447,l)
);
}
);
width = 1771;
},
{
layerId = "94F54C43-8AEE-4ED6-B3C2-2A9D33534E61";
shapes = (
{
closed = 1;
nodes = (
(1436,1381,l),
(1436,1094,l),
(1757,1094,l),
(1757,1381,l)
);
},
{
closed = 1;
nodes = (
(1436,937,l),
(1436,651,l),
(1757,651,l),
(1757,937,l)
);
},
{
closed = 1;
nodes = (
(1174,1656,l),
(1174,351,l),
(1531,351,l),
(1531,1656,l)
);
},
{
closed = 1;
nodes = (
(643,1523,l),
(643,1339,ls),
(643,1099,o),
(456,886,o),
(7,779,c),
(154,499,l),
(732,649,o),
(1023,995,o),
(1023,1523,c)
);
},
{
closed = 1;
nodes = (
(92,1523,l),
(92,1242,l),
(837,1242,l),
(837,1523,l)
);
},
{
closed = 1;
nodes = (
(279,101,l),
(279,-182,l),
(1579,-182,l),
(1579,101,l)
);
},
{
closed = 1;
nodes = (
(279,483,l),
(279,-32,l),
(637,-32,l),
(637,483,l)
);
}
);
width = 1771;
}
);
unicode = 44092;
}
{
glyphname = uniAC3E;
layers = (
{
layerId = m01;
shapes = (
{
closed = 1;
nodes = (
(1305,1614,l),
(1305,707,l),
(1462,707,l),
(1462,1614,l)
);
},
{
closed = 1;
nodes = (
(261,15,l),
(261,-115,l),
(347,-115,ls),
(467,-115,o),
(634,-107,o),
(805,-51,c),
(780,76,l),
(624,25,o),
(452,15,o),
(347,15,cs)
);
},
{
closed = 1;
nodes = (
(261,542,l),
(261,-21,l),
(415,-21,l),
(415,542,l)
);
},
{
closed = 1;
nodes = (
(741,526,l),
(741,407,l),
(1640,407,l),
(1640,526,l)
);
},
{
closed = 1;
nodes = (
(996,342,o),
(860,244,o),
(860,92,cs),
(860,-62,o),
(996,-160,o),
(1192,-160,cs),
(1385,-160,o),
(1523,-62,o),
(1523,92,cs),
(1523,244,o),
(1385,342,o),
(1192,342,cs)
);
},
{
closed = 1;
nodes = (
(1301,228,o),
(1382,175,o),
(1382,92,cs),
(1382,8,o),
(1302,-47,o),
(1192,-47,cs),
(1079,-47,o),
(1001,8,o),
(1001,92,cs),
(1001,175,o),
(1080,228,o),
(1192,228,cs)
);
},
{
closed = 1;
nodes = (
(1115,683,l),
(1115,441,l),
(1269,441,l),
(1269,683,l)
);
},
{
closed = 1;
nodes = (
(810,1522,l),
(810,1445,ls),
(810,1132,o),
(533,887,o),
(72,776,c),
(134,651,l),
(647,775,o),
(977,1079,o),
(977,1522,c)
);
},
{
closed = 1;
nodes = (
(150,1522,l),
(150,1392,l),
(897,1392,l),
(897,1522,l)
);
},
{
closed = 1;
nodes = (
(1410,1367,l),
(1410,1238,l),
(1720,1238,l),
(1720,1367,l)
);
},
{
closed = 1;
nodes = (
(1410,1039,l),
(1410,910,l),
(1720,910,l),
(1720,1039,l)
);
}
);
width = 1771;
},
{
layerId = "94F54C43-8AEE-4ED6-B3C2-2A9D33534E61";
shapes = (
{
closed = 1;
nodes = (
(1177,1656,l),
(1177,756,l),
(1531,756,l),
(1531,1656,l)
);
},
{
closed = 1;
nodes = (
(175,124,l),
(175,-158,l),
(292,-158,ls),
(528,-158,o),
(648,-149,o),
(782,-100,c),
(733,177,l),
(614,136,o),
(504,124,o),
(292,124,cs)
);
},
{
closed = 1;
nodes = (
(175,602,l),
(175,50,l),
(518,50,l),
(518,602,l)
);
},
{
closed = 1;
nodes = (
(716,590,l),
(716,343,l),
(1652,343,l),
(1652,590,l)
);
},
{
closed = 1;
nodes = (
(963,315,o),
(809,211,o),
(809,54,cs),
(809,-108,o),
(963,-209,o),
(1184,-209,cs),
(1406,-209,o),
(1559,-108,o),
(1559,54,cs),
(1559,211,o),
(1406,315,o),
(1184,315,cs)
);
},
{
closed = 1;
nodes = (
(1215,78,o),
(1244,79,o),
(1244,54,cs),
(1244,25,o),
(1216,25,o),
(1184,25,cs),
(1150,25,o),
(1124,25,o),
(1124,54,cs),
(1124,79,o),
(1151,78,o),
(1184,78,cs)
);
},
{
closed = 1;
nodes = (
(1014,694,l),
(1014,406,l),
(1358,406,l),
(1358,694,l)
);
},
{
closed = 1;
nodes = (
(621,1593,l),
(621,1386,ls),
(621,1208,o),
(439,1011,o),
(-3,933,c),
(134,658,l),
(689,768,o),
(1003,1082,o),
(1003,1593,c)
);
},
{
closed = 1;
nodes = (
(95,1593,l),
(95,1314,l),
(839,1314,l),
(839,1593,l)
);
},
{
closed = 1;
nodes = (
(1442,1499,l),
(1442,1219,l),
(1764,1219,l),
(1764,1499,l)
);
},
{
closed = 1;
nodes = (
(1442,1141,l),
(1442,859,l),
(1764,859,l),
(1764,1141,l)
);
}
);
width = 1771;
}
);
unicode = 44094;
}
{
glyphname = uniAC3F;
layers = (
{
layerId = m01;
shapes = (
{
closed = 1;
nodes = (
(1305,1614,l),
(1305,606,l),
(1462,606,l),
(1462,1614,l)
);
},
{
closed = 1;
nodes = (
(810,1499,l),
(810,1430,ls),
(810,1100,o),
(538,839,o),
(72,713,c),
(134,587,l),
(661,730,o),
(976,1052,o),
(976,1499,c)
);
},
{
closed = 1;
nodes = (
(150,1499,l),
(150,1371,l),
(897,1371,l),
(897,1499,l)
);
},
{
closed = 1;
nodes = (
(338,508,l),
(338,-74,l),
(495,-74,l),
(495,379,l),
(1472,379,l),
(1472,508,l)
);
},
{
closed = 1;
nodes = (
(338,-9,l),
(338,-138,l),
(1504,-138,l),
(1504,-9,l)
);
},
{
closed = 1;
nodes = (
(1419,1359,l),
(1419,1229,l),
(1728,1229,l),
(1728,1359,l)
);
},
{
closed = 1;
nodes = (
(1419,977,l),
(1419,848,l),
(1728,848,l),
(1728,977,l)
);
}
);
width = 1771;
},
{
layerId = "94F54C43-8AEE-4ED6-B3C2-2A9D33534E61";
shapes = (
{
closed = 1;
nodes = (
(1177,1658,l),
(1177,635,l),
(1531,635,l),
(1531,1658,l)
);
},
{
closed = 1;
nodes = (
(621,1565,l),
(621,1377,ls),
(621,1153,o),
(436,944,o),
(-3,841,c),
(136,563,l),
(703,705,o),
(999,1044,o),
(999,1565,c)
);
},
{
closed = 1;
nodes = (
(95,1565,l),
(95,1285,l),
(839,1285,l),
(839,1565,l)
);
},
{
closed = 1;
nodes = (
(281,566,l),
(281,-51,l),
(637,-51,l),
(637,286,l),
(1551,286,l),
(1551,566,l)
);
},
{
closed = 1;
nodes = (
(281,89,l),
(281,-190,l),
(1588,-190,l),
(1588,89,l)
);
},
{
closed = 1;
nodes = (
(1435,1469,l),
(1435,1189,l),
(1757,1189,l),
(1757,1469,l)
);
},
{
closed = 1;
nodes = (
(1435,1070,l),
(1435,789,l),
(1757,789,l),
(1757,1070,l)
);
}
);
width = 1771;
}
);
unicode = 44095;
}
{
glyphname = "gyalg-ko";
layers = (
{
layerId = m01;
shapes = (
{
closed = 1;
nodes = (
(1304,1613,l),
(1304,664,l),
(1461,664,l),
(1461,1613,l)
);
},
{
closed = 1;
nodes = (
(256,-20,l),
(256,-143,l),
(362,-143,ls),
(653,-143,o),
(792,-138,o),
(970,-102,c),
(953,18,l),
(781,-16,o),
(643,-20,o),
(362,-20,cs)
);
},
{
closed = 1;
nodes = (
(252,581,l),
(252,460,l),
(684,460,l),
(684,286,l),
(256,286,l),
(256,-99,l),
(408,-99,l),
(408,172,l),
(836,172,l),
(836,581,l)
);
},
{
closed = 1;
nodes = (
(912,581,l),
(912,455,l),
(1306,455,l),
(1306,-153,l),
(1461,-153,l),
(1461,581,l)
);
},
{
closed = 1;
nodes = (
(807,1520,l),
(807,1439,ls),
(807,1130,o),
(546,890,o),
(75,780,c),
(135,650,l),
(662,775,o),
(978,1074,o),
(978,1520,c)
);
},
{
closed = 1;
nodes = (
(157,1520,l),
(157,1391,l),
(903,1391,l),
(903,1520,l)
);
},
{
closed = 1;
nodes = (
(1418,1375,l),
(1418,1247,l),
(1727,1247,l),
(1727,1375,l)
);
},
{
closed = 1;
nodes = (
(1418,1026,l),
(1418,897,l),
(1727,897,l),
(1727,1026,l)
);
}
);
width = 1770;
},
{
layerId = "94F54C43-8AEE-4ED6-B3C2-2A9D33534E61";
shapes = (
{
closed = 1;
nodes = (
(1173,1660,l),
(1173,702,l),
(1531,702,l),
(1531,1660,l)
);
},
{
closed = 1;
nodes = (
(186,70,l),
(186,-192,l),
(323,-192,ls),
(749,-192,o),
(858,-191,o),
(975,-156,c),
(942,103,l),
(830,71,o),
(730,70,o),
(323,70,cs)
);
},
{
closed = 1;
nodes = (
(184,627,l),
(184,365,l),
(481,365,l),
(481,339,l),
(186,339,l),
(186,-121,l),
(534,-121,l),
(534,98,l),
(829,98,l),
(829,627,l)
);
},
{
closed = 1;
nodes = (
(902,627,l),
(902,349,l),
(1179,349,l),
(1179,-194,l),
(1531,-194,l),
(1531,627,l)
);
},
{
closed = 1;
nodes = (
(622,1602,l),
(622,1384,ls),
(622,1210,o),
(493,1030,o),
(12,955,c),
(138,663,l),
(743,774,o),
(1025,1069,o),
(1025,1602,c)
);
},
{
closed = 1;
nodes = (
(113,1602,l),
(113,1320,l),
(858,1320,l),
(858,1602,l)
);
},
{
closed = 1;
nodes = (
(1432,1504,l),
(1432,1224,l),
(1754,1224,l),
(1754,1504,l)
);
},
{
closed = 1;
nodes = (
(1432,1145,l),
(1432,863,l),
(1754,863,l),
(1754,1145,l)
);
}
);
width = 1770;
}
);
unicode = 44097;
}
{
glyphname = uniAC41;
layers = (
{
layerId = m01;
shapes = (
{
closed = 1;
nodes = (
(1305,1613,l),
(1305,664,l),
(1462,664,l),
(1462,1613,l)
);
},
{
closed = 1;
nodes = (
(257,-20,l),
(257,-143,l),
(363,-143,ls),
(654,-143,o),
(793,-138,o),
(971,-102,c),
(954,18,l),
(782,-16,o),
(644,-20,o),
(363,-20,cs)
);
},
{
closed = 1;
nodes = (
(253,581,l),
(253,460,l),
(685,460,l),
(685,286,l),
(257,286,l),
(257,-99,l),
(409,-99,l),
(409,172,l),
(837,172,l),
(837,581,l)
);
},
{
closed = 1;
nodes = (
(913,581,l),
(913,455,l),
(1307,455,l),
(1307,-153,l),
(1462,-153,l),
(1462,581,l)
);
},
{
closed = 1;
nodes = (
(808,1520,l),
(808,1439,ls),
(808,1130,o),
(547,890,o),
(76,780,c),
(136,650,l),
(663,775,o),
(979,1074,o),
(979,1520,c)
);
},
{
closed = 1;
nodes = (
(158,1520,l),
(158,1391,l),
(904,1391,l),
(904,1520,l)
);
},
{
closed = 1;
nodes = (
(1419,1375,l),
(1419,1247,l),
(1728,1247,l),
(1728,1375,l)
);
},
{
closed = 1;
nodes = (
(1419,1026,l),
(1419,897,l),
(1728,897,l),
(1728,1026,l)
);
}
);
width = 1770;
},
{
layerId = "94F54C43-8AEE-4ED6-B3C2-2A9D33534E61";
shapes = (
{
closed = 1;
nodes = (
(1177,1658,l),
(1177,701,l),
(1531,701,l),
(1531,1658,l)
);
},
{
closed = 1;
nodes = (
(188,68,l),
(188,-191,l),
(325,-191,ls),
(749,-191,o),
(857,-190,o),
(976,-155,c),
(943,102,l),
(831,70,o),
(729,68,o),
(325,68,cs)
);
},
{
closed = 1;
nodes = (
(186,626,l),
(186,367,l),
(486,367,l),
(486,338,l),
(188,338,l),
(188,-120,l),
(532,-120,l),
(532,100,l),
(830,100,l),
(830,626,l)
);
},
{
closed = 1;
nodes = (
(903,626,l),
(903,351,l),
(1183,351,l),
(1183,-194,l),
(1531,-194,l),
(1531,626,l)
);
},
{
closed = 1;
nodes = (
(627,1600,l),
(627,1385,ls),
(627,1208,o),
(495,1028,o),
(14,952,c),
(139,662,l),
(742,774,o),
(1025,1069,o),
(1025,1600,c)
);
},
{
closed = 1;
nodes = (
(115,1600,l),
(115,1322,l),
(860,1322,l),
(860,1600,l)
);
},
{
closed = 1;
nodes = (
(1433,1502,l),
(1433,1224,l),
(1754,1224,l),
(1754,1502,l)
);
},
{
closed = 1;
nodes = (
(1433,1142,l),
(1433,864,l),
(1754,864,l),
(1754,1142,l)
);
}
);
width = 1770;
}
);
unicode = 44097;
}
{
glyphname = uniAC42;
layers = (
{
layerId = m01;
shapes = (
{
closed = 1;
nodes = (
(223,583,l),
(223,462,l),
(637,462,l),
(637,296,l),
(228,296,l),
(228,-69,l),
(380,-69,l),
(380,180,l),
(789,180,l),
(789,583,l)
);
},
{
closed = 1;
nodes = (
(899,583,l),
(899,-146,l),
(1461,-146,l),
(1461,583,l)
);
},
{
closed = 1;
nodes = (
(1322,465,l),
(1322,-25,l),
(1038,-25,l),
(1038,465,l)
);
},
{
closed = 1;
nodes = (
(228,-14,l),
(228,-139,l),
(321,-139,ls),
(551,-139,o),
(676,-136,o),
(843,-106,c),
(828,18,l),
(669,-12,o),
(544,-14,o),
(321,-14,cs)
);
},
{
closed = 1;
nodes = (
(1304,1613,l),
(1304,667,l),
(1461,667,l),
(1461,1613,l)
);
},
{
closed = 1;
nodes = (
(806,1520,l),
(806,1438,ls),
(806,1134,o),
(546,896,o),
(75,791,c),
(134,660,l),
(657,781,o),
(978,1074,o),
(978,1520,c)
);
},
{
closed = 1;
nodes = (
(157,1520,l),
(157,1391,l),
(903,1391,l),
(903,1520,l)
);
},
{
closed = 1;
nodes = (
(1418,1375,l),
(1418,1247,l),
(1727,1247,l),
(1727,1375,l)
);
},
{
closed = 1;
nodes = (
(1418,1024,l),
(1418,895,l),
(1727,895,l),
(1727,1024,l)
);
}
);
width = 1770;
},
{
layerId = "94F54C43-8AEE-4ED6-B3C2-2A9D33534E61";
shapes = (
{
closed = 1;
nodes = (
(154,633,l),
(154,372,l),
(446,372,l),
(446,352,l),
(155,352,l),
(155,-25,l),
(503,-25,l),
(503,109,l),
(794,109,l),
(794,633,l)
);
},
{
closed = 1;
nodes = (
(874,633,l),
(874,-179,l),
(1531,-179,l),
(1531,633,l)
);
},
{
closed = 1;
nodes = (
(1227,376,l),
(1227,78,l),
(1178,78,l),
(1178,376,l)
);
},
{
closed = 1;
nodes = (
(155,88,l),
(155,-181,l),
(278,-181,ls),
(550,-181,o),
(684,-179,o),
(838,-152,c),
(812,115,l),
(660,90,o),
(538,88,o),
(278,88,cs)
);
},
{
closed = 1;
nodes = (
(1173,1660,l),
(1173,711,l),
(1531,711,l),
(1531,1660,l)
);
},
{
closed = 1;
nodes = (
(620,1602,l),
(620,1378,ls),
(620,1218,o),
(490,1045,o),
(12,977,c),
(135,685,l),
(737,785,o),
(1025,1072,o),
(1025,1602,c)
);
},
{
closed = 1;
nodes = (
(111,1602,l),
(111,1320,l),
(855,1320,l),
(855,1602,l)
);
},
{
closed = 1;
nodes = (
(1432,1504,l),
(1432,1224,l),
(1754,1224,l),
(1754,1504,l)
);
},
{
closed = 1;
nodes = (
(1432,1141,l),
(1432,859,l),
(1754,859,l),
(1754,1141,l)
);
}
);
width = 1770;
}
);
unicode = 44098;
}
{
glyphname = uniAC44;
layers = (
{
layerId = m01;
shapes = (
{
closed = 1;
nodes = (
(1304,1614,l),
(1304,666,l),
(1461,666,l),
(1461,1614,l)
);
},
{
closed = 1;
nodes = (
(224,576,l),
(224,455,l),
(654,455,l),
(654,286,l),
(228,286,l),
(228,-72,l),
(381,-72,l),
(381,178,l),
(806,178,l),
(806,576,l)
);
},
{
closed = 1;
nodes = (
(228,-16,l),
(228,-137,l),
(321,-137,ls),
(561,-137,o),
(685,-135,o),
(850,-101,c),
(836,16,l),
(678,-13,o),
(558,-16,o),
(321,-16,cs)
);
},
{
closed = 1;
nodes = (
(806,1530,l),
(806,1448,ls),
(806,1142,o),
(546,904,o),
(75,798,c),
(134,668,l),
(657,791,o),
(978,1083,o),
(978,1530,c)
);
},
{
closed = 1;
nodes = (
(157,1530,l),
(157,1401,l),
(903,1401,l),
(903,1530,l)
);
},
{
closed = 1;
nodes = (
(1159,596,l),
(1159,443,ls),
(1159,255,o),
(1051,56,o),
(836,-33,c),
(923,-155,l),
(1167,-47,o),
(1284,196,o),
(1284,443,cs),
(1284,596,l)
);
},
{
closed = 1;
nodes = (
(1191,596,l),
(1191,443,ls),
(1191,195,o),
(1309,-47,o),
(1552,-155,c),
(1640,-33,l),
(1425,55,o),
(1316,255,o),
(1316,443,cs),
(1316,596,l)
);
},
{
closed = 1;
nodes = (
(1418,1375,l),
(1418,1247,l),
(1727,1247,l),
(1727,1375,l)
);
},
{
closed = 1;
nodes = (
(1418,1024,l),
(1418,895,l),
(1727,895,l),
(1727,1024,l)
);
}
);
width = 1770;
},
{
layerId = "94F54C43-8AEE-4ED6-B3C2-2A9D33534E61";
shapes = (
{
closed = 1;
nodes = (
(1173,1659,l),
(1173,688,l),
(1531,688,l),
(1531,1659,l)
);
},
{
closed = 1;
nodes = (
(161,610,l),
(161,349,l),
(469,349,l),
(469,320,l),
(162,320,l),
(162,-49,l),
(510,-49,l),
(510,94,l),
(817,94,l),
(817,610,l)
);
},
{
closed = 1;
nodes = (
(162,62,l),
(162,-191,l),
(283,-191,ls),
(565,-191,o),
(696,-192,o),
(849,-163,c),
(827,87,l),
(678,63,o),
(560,62,o),
(283,62,cs)
);
},
{
closed = 1;
nodes = (
(620,1612,l),
(620,1390,ls),
(620,1226,o),
(490,1049,o),
(12,980,c),
(135,688,l),
(737,792,o),
(1022,1082,o),
(1022,1612,c)
);
},
{
closed = 1;
nodes = (
(111,1612,l),
(111,1330,l),
(855,1330,l),
(855,1612,l)
);
},
{
closed = 1;
nodes = (
(1058,628,l),
(1058,509,ls),
(1058,323,o),
(995,161,o),
(771,71,c),
(961,-202,l),
(1248,-86,o),
(1333,186,o),
(1333,509,cs),
(1333,628,l)
);
},
{
closed = 1;
nodes = (
(1138,628,l),
(1138,509,ls),
(1138,184,o),
(1224,-86,o),
(1510,-202,c),
(1704,71,l),
(1479,160,o),
(1417,320,o),
(1417,509,cs),
(1417,628,l)
);
},
{
closed = 1;
nodes = (
(1432,1504,l),
(1432,1224,l),
(1754,1224,l),
(1754,1504,l)
);
},
{
closed = 1;
nodes = (
(1432,1141,l),
(1432,859,l),
(1754,859,l),
(1754,1141,l)
);
}
);
width = 1770;
}
);
unicode = 44100;
}
{
glyphname = "gyalp-ko";
layers = (
{
layerId = m01;
shapes = (
{
closed = 1;
nodes = (
(871,588,l),
(871,462,l),
(1508,462,l),
(1508,588,l)
);
},
{
closed = 1;
nodes = (
(859,-13,l),
(859,-138,l),
(1519,-138,l),
(1519,-13,l)
);
},
{
closed = 1;
nodes = (
(975,520,l),
(975,-74,l),
(1104,-74,l),
(1104,520,l)
);
},
{
closed = 1;
nodes = (
(1275,520,l),
(1275,-74,l),
(1403,-74,l),
(1403,520,l)
);
},
{
closed = 1;
nodes = (
(1304,1614,l),
(1304,666,l),
(1461,666,l),
(1461,1614,l)
);
},
{
closed = 1;
nodes = (
(806,1530,l),
(806,1448,ls),
(806,1144,o),
(546,906,o),
(75,801,c),
(134,670,l),
(657,791,o),
(978,1083,o),
(978,1530,c)
);
},
{
closed = 1;
nodes = (
(157,1530,l),
(157,1401,l),
(903,1401,l),
(903,1530,l)
);
},
{
closed = 1;
nodes = (
(225,588,l),
(225,466,l),
(633,466,l),
(633,295,l),
(230,295,l),
(230,-57,l),
(382,-57,l),
(382,180,l),
(785,180,l),
(785,588,l)
);
},
{
closed = 1;
nodes = (
(230,-18,l),
(230,-138,l),
(321,-138,ls),
(543,-138,o),
(667,-137,o),
(836,-106,c),
(821,15,l),
(660,-16,o),
(538,-18,o),
(321,-18,cs)
);
},
{
closed = 1;
nodes = (
(1418,1375,l),
(1418,1247,l),
(1727,1247,l),
(1727,1375,l)
);
},
{
closed = 1;
nodes = (
(1418,1024,l),
(1418,895,l),
(1727,895,l),
(1727,1024,l)
);
}
);
width = 1770;
},
{
layerId = "94F54C43-8AEE-4ED6-B3C2-2A9D33534E61";
shapes = (
{
closed = 1;
nodes = (
(869,629,l),
(869,360,l),
(1557,360,l),
(1557,629,l)
);
},
{
closed = 1;
nodes = (
(859,78,l),
(859,-191,l),
(1567,-191,l),
(1567,78,l)
);
},
{
closed = 1;
nodes = (
(917,467,l),
(917,-63,l),
(1189,-63,l),
(1189,467,l)
);
},
{
closed = 1;
nodes = (
(1237,467,l),
(1237,-63,l),
(1511,-63,l),
(1511,467,l)
);
},
{
closed = 1;
nodes = (
(1173,1659,l),
(1173,688,l),
(1531,688,l),
(1531,1659,l)
);
},
{
closed = 1;
nodes = (
(620,1612,l),
(620,1387,ls),
(620,1228,o),
(490,1054,o),
(12,987,c),
(135,695,l),
(737,795,o),
(1025,1082,o),
(1025,1612,c)
);
},
{
closed = 1;
nodes = (
(111,1612,l),
(111,1330,l),
(855,1330,l),
(855,1612,l)
);
},
{
closed = 1;
nodes = (
(159,629,l),
(159,371,l),
(452,371,l),
(452,337,l),
(160,337,l),
(160,-18,l),
(508,-18,l),
(508,99,l),
(800,99,l),
(800,629,l)
);
},
{
closed = 1;
nodes = (
(160,66,l),
(160,-191,l),
(281,-191,ls),
(528,-191,o),
(663,-191,o),
(832,-164,c),
(809,91,l),
(645,66,o),
(517,66,o),
(281,66,cs)
);
},
{
closed = 1;
nodes = (
(1432,1504,l),
(1432,1224,l),
(1754,1224,l),
(1754,1504,l)
);
},
{
closed = 1;
nodes = (
(1432,1141,l),
(1432,859,l),
(1754,859,l),
(1754,1141,l)
);
}
);
width = 1770;
}
);
unicode = 44102;
}
{
glyphname = uniAC47;
layers = (
{
layerId = m01;
shapes = (
{
closed = 1;
nodes = (
(1305,1614,l),
(1305,730,l),
(1462,730,l),
(1462,1614,l)
);
},
{
closed = 1;
nodes = (
(223,582,l),
(223,464,l),
(631,464,l),
(631,294,l),
(228,294,l),
(228,-68,l),
(379,-68,l),
(379,180,l),
(781,180,l),
(781,582,l)
);
},
{
closed = 1;
nodes = (
(228,-14,l),
(228,-136,l),
(322,-136,ls),
(560,-136,o),
(685,-132,o),
(850,-101,c),
(836,21,l),
(677,-11,o),
(554,-14,o),
(322,-14,cs)
);
},
{
closed = 1;
nodes = (
(842,515,l),
(842,395,l),
(1590,395,l),
(1590,515,l)
);
},
{
closed = 1;
nodes = (
(1034,324,o),
(903,230,o),
(903,82,cs),
(903,-68,o),
(1034,-160,o),
(1209,-160,cs),
(1385,-160,o),
(1514,-68,o),
(1514,82,cs),
(1514,230,o),
(1385,324,o),
(1209,324,cs)
);
},
{
closed = 1;
nodes = (
(1311,214,o),
(1380,162,o),
(1380,82,cs),
(1380,0,o),
(1311,-50,o),
(1209,-50,cs),
(1106,-50,o),
(1038,0,o),
(1038,82,cs),
(1038,162,o),
(1106,214,o),
(1209,214,cs)
);
},
{
closed = 1;
nodes = (
(1134,676,l),
(1134,441,l),
(1288,441,l),
(1288,676,l)
);
},
{
closed = 1;
nodes = (
(807,1530,l),
(807,1448,ls),
(807,1144,o),
(547,906,o),
(76,801,c),
(135,670,l),
(658,791,o),
(979,1083,o),
(979,1530,c)
);
},
{
closed = 1;
nodes = (
(158,1530,l),
(158,1401,l),
(904,1401,l),
(904,1530,l)
);
},
{
closed = 1;
nodes = (
(1419,1375,l),
(1419,1247,l),
(1728,1247,l),
(1728,1375,l)
);
},
{
closed = 1;
nodes = (
(1419,1028,l),
(1419,898,l),
(1728,898,l),
(1728,1028,l)
);
}
);
width = 1771;
},
{
layerId = "94F54C43-8AEE-4ED6-B3C2-2A9D33534E61";
shapes = (
{
closed = 1;
nodes = (
(1177,1658,l),
(1177,753,l),
(1531,753,l),
(1531,1658,l)
);
},
{
closed = 1;
nodes = (
(159,643,l),
(159,393,l),
(432,393,l),
(432,356,l),
(160,356,l),
(160,-9,l),
(498,-9,l),
(498,125,l),
(771,125,l),
(771,643,l)
);
},
{
closed = 1;
nodes = (
(160,82,l),
(160,-172,l),
(285,-172,ls),
(576,-172,o),
(709,-170,o),
(864,-143,c),
(836,107,l),
(685,83,o),
(561,82,o),
(285,82,cs)
);
},
{
closed = 1;
nodes = (
(819,593,l),
(819,345,l),
(1628,345,l),
(1628,593,l)
);
},
{
closed = 1;
nodes = (
(1027,332,o),
(879,222,o),
(879,61,cs),
(879,-102,o),
(1027,-209,o),
(1224,-209,cs),
(1420,-209,o),
(1567,-102,o),
(1567,61,cs),
(1567,222,o),
(1420,332,o),
(1224,332,cs)
);
},
{
closed = 1;
nodes = (
(1245,99,o),
(1271,94,o),
(1271,61,cs),
(1271,26,o),
(1245,21,o),
(1224,21,cs),
(1200,21,o),
(1174,26,o),
(1174,61,cs),
(1174,94,o),
(1200,99,o),
(1224,99,cs)
);
},
{
closed = 1;
nodes = (
(1055,705,l),
(1055,416,l),
(1398,416,l),
(1398,705,l)
);
},
{
closed = 1;
nodes = (
(625,1610,l),
(625,1388,ls),
(625,1225,o),
(493,1052,o),
(14,983,c),
(136,695,l),
(737,794,o),
(1025,1082,o),
(1025,1610,c)
);
},
{
closed = 1;
nodes = (
(113,1610,l),
(113,1331,l),
(858,1331,l),
(858,1610,l)
);
},
{
closed = 1;
nodes = (
(1433,1502,l),
(1433,1224,l),
(1754,1224,l),
(1754,1502,l)
);
},
{
closed = 1;
nodes = (
(1433,1149,l),
(1433,869,l),
(1754,869,l),
(1754,1149,l)
);
}
);
width = 1771;
}
);
unicode = 44103;
}
{
glyphname = uniAC48;
layers = (
{
layerId = m01;
shapes = (
{
closed = 1;
nodes = (
(1305,1614,l),
(1305,606,l),
(1462,606,l),
(1462,1614,l)
);
},
{
closed = 1;
nodes = (
(810,1499,l),
(810,1430,ls),
(810,1101,o),
(538,841,o),
(72,715,c),
(134,588,l),
(661,731,o),
(977,1052,o),
(977,1499,c)
);
},
{
closed = 1;
nodes = (
(150,1499,l),
(150,1371,l),
(897,1371,l),
(897,1499,l)
);
},
{
closed = 1;
nodes = (
(336,523,l),
(336,-137,l),
(1462,-137,l),
(1462,523,l)
);
},
{
closed = 1;
nodes = (
(1307,395,l),
(1307,-8,l),
(492,-8,l),
(492,395,l)
);
},
{
closed = 1;
nodes = (
(1419,1361,l),
(1419,1233,l),
(1728,1233,l),
(1728,1361,l)
);
},
{
closed = 1;
nodes = (
(1419,982,l),
(1419,854,l),
(1728,854,l),
(1728,982,l)
);
}
);
width = 1771;
},
{
layerId = "94F54C43-8AEE-4ED6-B3C2-2A9D33534E61";
shapes = (
{
closed = 1;
nodes = (
(1177,1658,l),
(1177,635,l),
(1531,635,l),
(1531,1658,l)
);
},
{
closed = 1;
nodes = (
(621,1565,l),
(621,1377,ls),
(621,1155,o),
(436,950,o),
(-3,847,c),
(136,570,l),
(703,710,o),
(1002,1044,o),
(1002,1565,c)
);
},
{
closed = 1;
nodes = (
(95,1565,l),
(95,1285,l),
(839,1285,l),
(839,1565,l)
);
},
{
closed = 1;
nodes = (
(282,575,l),
(282,-190,l),
(1531,-190,l),
(1531,575,l)
);
},
{
closed = 1;
nodes = (
(1183,297,l),
(1183,87,l),
(633,87,l),
(633,297,l)
);
},
{
closed = 1;
nodes = (
(1435,1481,l),
(1435,1201,l),
(1757,1201,l),
(1757,1481,l)
);
},
{
closed = 1;
nodes = (
(1435,1079,l),
(1435,799,l),
(1757,799,l),
(1757,1079,l)
);
}
);
width = 1771;
}
);
unicode = 44104;
}
{
glyphname = uniAC49;
layers = (
{
layerId = m01;
shapes = (
{
closed = 1;
nodes = (
(1304,1614,l),
(1304,653,l),
(1462,653,l),
(1462,1614,l)
);
},
{
closed = 1;
nodes = (
(807,1508,l),
(807,1429,ls),
(807,1116,o),
(542,873,o),
(76,762,c),
(136,632,l),
(658,759,o),
(978,1060,o),
(978,1508,c)
);
},
{
closed = 1;
nodes = (
(156,1508,l),
(156,1378,l),
(901,1378,l),
(901,1508,l)
);
},
{
closed = 1;
nodes = (
(332,572,l),
(332,-138,l),
(1462,-138,l),
(1462,572,l),
(1305,572,l),
(1305,347,l),
(488,347,l),
(488,572,l)
);
},
{
closed = 1;
nodes = (
(488,221,l),
(1305,221,l),
(1305,-10,l),
(488,-10,l)
);
},
{
closed = 1;
nodes = (
(1419,1371,l),
(1419,1245,l),
(1728,1245,l),
(1728,1371,l)
);
},
{
closed = 1;
nodes = (
(1419,1011,l),
(1419,883,l),
(1728,883,l),
(1728,1011,l)
);
}
);
width = 1771;
},
{
layerId = "94F54C43-8AEE-4ED6-B3C2-2A9D33534E61";
shapes = (
{
closed = 1;
nodes = (
(1174,1658,l),
(1174,647,l),
(1531,647,l),
(1531,1658,l)
);
},
{
closed = 1;
nodes = (
(617,1572,l),
(617,1366,ls),
(617,1178,o),
(474,993,o),
(12,909,c),
(142,625,l),
(729,747,o),
(1011,1052,o),
(1011,1572,c)
);
},
{
closed = 1;
nodes = (
(123,1572,l),
(123,1293,l),
(867,1293,l),
(867,1572,l)
);
},
{
closed = 1;
nodes = (
(273,584,l),
(273,-190,l),
(1531,-190,l),
(1531,584,l),
(1180,584,l),
(1180,459,l),
(626,459,l),
(626,584,l)
);
},
{
closed = 1;
nodes = (
(626,188,l),
(1180,188,l),
(1180,93,l),
(626,93,l)
);
},
{
closed = 1;
nodes = (
(1435,1477,l),
(1435,1199,l),
(1757,1199,l),
(1757,1477,l)
);
},
{
closed = 1;
nodes = (
(1435,1071,l),
(1435,793,l),
(1757,793,l),
(1757,1071,l)
);
}
);
width = 1771;
}
);
unicode = 44105;
}
{
glyphname = uniAC4A;
layers = (
{
layerId = m01;
shapes = (
{
closed = 1;
nodes = (
(1304,1614,l),
(1304,648,l),
(1461,648,l),
(1461,1614,l)
);
},
{
closed = 1;
nodes = (
(806,1508,l),
(806,1429,ls),
(806,1117,o),
(541,873,o),
(75,761,c),
(135,631,l),
(657,759,o),
(976,1060,o),
(976,1508,c)
);
},
{
closed = 1;
nodes = (
(155,1508,l),
(155,1379,l),
(901,1379,l),
(901,1508,l)
);
},
{
closed = 1;
nodes = (
(268,557,l),
(268,-136,l),
(879,-136,l),
(879,557,l),
(734,557,l),
(734,342,l),
(416,342,l),
(416,557,l)
);
},
{
closed = 1;
nodes = (
(416,220,l),
(734,220,l),
(734,-13,l),
(416,-13,l)
);
},
{
closed = 1;
nodes = (
(1206,574,l),
(1206,426,ls),
(1206,256,o),
(1101,57,o),
(894,-35,c),
(978,-154,l),
(1215,-47,o),
(1330,199,o),
(1330,426,cs),
(1330,574,l)
);
},
{
closed = 1;
nodes = (
(1236,574,l),
(1236,431,ls),
(1236,188,o),
(1354,-51,o),
(1583,-154,c),
(1667,-35,l),
(1461,56,o),
(1357,257,o),
(1357,431,cs),
(1357,574,l)
);
},
{
closed = 1;
nodes = (
(1418,1371,l),
(1418,1245,l),
(1727,1245,l),
(1727,1371,l)
);
},
{
closed = 1;
nodes = (
(1418,1011,l),
(1418,880,l),
(1727,880,l),
(1727,1011,l)
);
}
);
width = 1770;
},
{
layerId = "94F54C43-8AEE-4ED6-B3C2-2A9D33534E61";
shapes = (
{
closed = 1;
nodes = (
(1173,1659,l),
(1173,648,l),
(1531,648,l),
(1531,1659,l)
);
},
{
closed = 1;
nodes = (
(613,1576,l),
(613,1366,ls),
(613,1182,o),
(472,996,o),
(10,911,c),
(140,622,l),
(732,747,o),
(1008,1052,o),
(1008,1576,c)
);
},
{
closed = 1;
nodes = (
(106,1576,l),
(106,1294,l),
(851,1294,l),
(851,1576,l)
);
},
{
closed = 1;
nodes = (
(198,559,l),
(198,-181,l),
(907,-181,l),
(907,559,l),
(582,559,l),
(582,432,l),
(527,432,l),
(527,559,l)
);
},
{
closed = 1;
nodes = (
(527,173,l),
(582,173,l),
(582,88,l),
(527,88,l)
);
},
{
closed = 1;
nodes = (
(1115,581,l),
(1115,459,ls),
(1115,298,o),
(1047,157,o),
(838,69,c),
(1022,-199,l),
(1295,-93,o),
(1386,165,o),
(1386,459,cs),
(1386,581,l)
);
},
{
closed = 1;
nodes = (
(1189,581,l),
(1189,458,ls),
(1189,120,o),
(1296,-105,o),
(1553,-199,c),
(1737,69,l),
(1527,145,o),
(1459,286,o),
(1459,458,cs),
(1459,581,l)
);
},
{
closed = 1;
nodes = (
(1434,1479,l),
(1434,1197,l),
(1757,1197,l),
(1757,1479,l)
);
},
{
closed = 1;
nodes = (
(1434,1074,l),
(1434,791,l),
(1757,791,l),
(1757,1074,l)
);
}
);
width = 1770;
}
);
unicode = 44106;
}
{
glyphname = uniAC4B;
layers = (
{
layerId = m01;
shapes = (
{
closed = 1;
nodes = (
(1419,1307,l),
(1419,1176,l),
(1728,1176,l),
(1728,1307,l)
);
},
{
closed = 1;
nodes = (
(1419,881,l),
(1419,750,l),
(1728,750,l),
(1728,881,l)
);
},
{
closed = 1;
nodes = (
(1305,1614,l),
(1305,434,l),
(1462,434,l),
(1462,1614,l)
);
},
{
closed = 1;
nodes = (
(816,1477,l),
(816,1409,ls),
(816,1069,o),
(537,792,o),
(76,656,c),
(142,528,l),
(664,687,o),
(983,1021,o),
(983,1477,c)
);
},
{
closed = 1;
nodes = (
(157,1477,l),
(157,1347,l),
(904,1347,l),
(904,1477,l)
);
},
{
closed = 1;
nodes = (
(845,565,l),
(845,487,ls),
(845,225,o),
(559,27,o),
(244,-30,c),
(308,-155,l),
(662,-84,o),
(982,146,o),
(982,487,cs),
(982,565,l)
);
},
{
closed = 1;
nodes = (
(868,565,l),
(868,487,ls),
(868,149,o),
(1182,-81,o),
(1532,-150,c),
(1600,-27,l),
(1287,32,o),
(1001,228,o),
(1001,487,cs),
(1001,565,l)
);
}
);
width = 1770;
},
{
layerId = "94F54C43-8AEE-4ED6-B3C2-2A9D33534E61";
shapes = (
{
closed = 1;
nodes = (
(1430,1412,l),
(1430,1127,l),
(1752,1127,l),
(1752,1412,l)
);
},
{
closed = 1;
nodes = (
(1430,983,l),
(1430,697,l),
(1752,697,l),
(1752,983,l)
);
},
{
closed = 1;
nodes = (
(1177,1658,l),
(1177,439,l),
(1531,439,l),
(1531,1658,l)
);
},
{
closed = 1;
nodes = (
(640,1526,l),
(640,1341,ls),
(640,1098,o),
(444,880,o),
(2,771,c),
(147,486,l),
(723,642,o),
(1025,994,o),
(1025,1526,c)
);
},
{
closed = 1;
nodes = (
(117,1526,l),
(117,1244,l),
(862,1244,l),
(862,1526,l)
);
},
{
closed = 1;
nodes = (
(732,554,l),
(732,527,ls),
(732,367,o),
(637,142,o),
(181,80,c),
(319,-200,l),
(852,-119,o),
(1036,198,o),
(1036,527,cs),
(1036,554,l)
);
},
{
closed = 1;
nodes = (
(786,554,l),
(786,527,ls),
(786,197,o),
(971,-121,o),
(1504,-202,c),
(1640,78,l),
(1185,142,o),
(1088,367,o),
(1088,527,cs),
(1088,554,l)
);
}
);
width = 1770;
}
);
unicode = 44107;
}
{
glyphname = uniAC4C;
layers = (
{
layerId = m01;
shapes = (
{
closed = 1;
nodes = (
(1304,1618,l),
(1304,620,l),
(1461,620,l),
(1461,1618,l)
);
},
{
closed = 1;
nodes = (
(809,1499,l),
(809,1430,ls),
(809,1101,o),
(537,840,o),
(73,714,c),
(133,586,l),
(661,729,o),
(977,1052,o),
(977,1499,c)
);
},
{
closed = 1;
nodes = (
(154,1499,l),
(154,1372,l),
(900,1372,l),
(900,1499,l)
);
},
{
closed = 1;
nodes = (
(507,552,l),
(507,422,ls),
(507,250,o),
(370,56,o),
(147,-26,c),
(225,-144,l),
(480,-45,o),
(627,189,o),
(627,422,cs),
(627,552,l)
);
},
{
closed = 1;
nodes = (
(541,552,l),
(541,422,ls),
(541,185,o),
(657,-57,o),
(913,-159,c),
(981,-41,l),
(764,47,o),
(658,241,o),
(658,422,cs),
(658,552,l)
);
},
{
closed = 1;
nodes = (
(1167,552,l),
(1167,422,ls),
(1167,268,o),
(1060,58,o),
(845,-41,c),
(913,-159,l),
(1168,-50,o),
(1285,214,o),
(1285,422,cs),
(1285,552,l)
);
},
{
closed = 1;
nodes = (
(1199,552,l),
(1199,422,ls),
(1199,176,o),
(1344,-49,o),
(1603,-144,c),
(1681,-26,l),
(1454,50,o),
(1321,237,o),
(1321,422,cs),
(1321,552,l)
);
},
{
closed = 1;
nodes = (
(1418,1361,l),
(1418,1233,l),
(1727,1233,l),
(1727,1361,l)
);
},
{
closed = 1;
nodes = (
(1418,984,l),
(1418,856,l),
(1727,856,l),
(1727,984,l)
);
}
);
width = 1770;
},
{
layerId = "94F54C43-8AEE-4ED6-B3C2-2A9D33534E61";
shapes = (
{
closed = 1;
nodes = (
(1173,1659,l),
(1173,632,l),
(1531,632,l),
(1531,1659,l)
);
},
{
closed = 1;
nodes = (
(616,1568,l),
(616,1376,ls),
(616,1156,o),
(433,950,o),
(0,846,c),
(138,561,l),
(707,702,o),
(1005,1043,o),
(1005,1568,c)
);
},
{
closed = 1;
nodes = (
(106,1568,l),
(106,1285,l),
(851,1285,l),
(851,1568,l)
);
},
{
closed = 1;
nodes = (
(381,558,l),
(381,516,ls),
(381,327,o),
(316,151,o),
(62,64,c),
(239,-193,l),
(553,-85,o),
(646,190,o),
(646,516,cs),
(646,558,l)
);
},
{
closed = 1;
nodes = (
(476,558,l),
(476,516,ls),
(476,209,o),
(573,-97,o),
(895,-213,c),
(1041,45,l),
(802,147,o),
(732,334,o),
(732,516,cs),
(732,558,l)
);
},
{
closed = 1;
nodes = (
(1057,558,l),
(1057,516,ls),
(1057,342,o),
(988,153,o),
(749,45,c),
(895,-213,l),
(1215,-94,o),
(1314,216,o),
(1314,516,cs),
(1314,558,l)
);
},
{
closed = 1;
nodes = (
(1150,558,l),
(1150,516,ls),
(1150,181,o),
(1239,-86,o),
(1557,-193,c),
(1734,64,l),
(1480,144,o),
(1415,316,o),
(1415,516,cs),
(1415,558,l)
);
},
{
closed = 1;
nodes = (
(1434,1483,l),
(1434,1201,l),
(1757,1201,l),
(1757,1483,l)
);
},
{
closed = 1;
nodes = (
(1434,1080,l),
(1434,798,l),
(1757,798,l),
(1757,1080,l)
);
}
);
width = 1770;
}
);
unicode = 44108;
}
{
glyphname = uniAC4D;
layers = (
{
layerId = m01;
shapes = (
{
closed = 1;
nodes = (
(1417,1332,l),
(1417,1202,l),
(1726,1202,l),
(1726,1332,l)
);
},
{
closed = 1;
nodes = (
(1417,944,l),
(1417,813,l),
(1726,813,l),
(1726,944,l)
);
},
{
closed = 1;
nodes = (
(1305,1614,l),
(1305,551,l),
(1462,551,l),
(1462,1614,l)
);
},
{
closed = 1;
nodes = (
(810,1483,l),
(810,1413,ls),
(810,1077,o),
(532,808,o),
(75,674,c),
(141,547,l),
(658,697,o),
(979,1030,o),
(979,1483,c)
);
},
{
closed = 1;
nodes = (
(153,1483,l),
(153,1353,l),
(899,1353,l),
(899,1483,l)
);
},
{
closed = 1;
nodes = (
(547,528,o),
(318,398,o),
(318,185,cs),
(318,-28,o),
(547,-158,o),
(901,-158,cs),
(1257,-158,o),
(1482,-28,o),
(1482,185,cs),
(1482,398,o),
(1257,528,o),
(901,528,cs)
);
},
{
closed = 1;
nodes = (
(1163,403,o),
(1330,320,o),
(1330,185,cs),
(1330,50,o),
(1161,-32,o),
(901,-32,cs),
(642,-32,o),
(474,50,o),
(474,185,cs),
(474,320,o),
(641,403,o),
(901,403,cs)
);
}
);
width = 1771;
},
{
layerId = "94F54C43-8AEE-4ED6-B3C2-2A9D33534E61";
shapes = (
{
closed = 1;
nodes = (
(1427,1448,l),
(1427,1160,l),
(1750,1160,l),
(1750,1448,l)
);
},
{
closed = 1;
nodes = (
(1427,1066,l),
(1427,777,l),
(1750,777,l),
(1750,1066,l)
);
},
{
closed = 1;
nodes = (
(1177,1658,l),
(1177,614,l),
(1531,614,l),
(1531,1658,l)
);
},
{
closed = 1;
nodes = (
(623,1551,l),
(623,1365,ls),
(623,1134,o),
(438,922,o),
(7,816,c),
(150,535,l),
(712,680,o),
(1008,1029,o),
(1008,1551,c)
);
},
{
closed = 1;
nodes = (
(101,1551,l),
(101,1269,l),
(846,1269,l),
(846,1551,l)
);
},
{
closed = 1;
nodes = (
(522,588,o),
(257,431,o),
(257,190,cs),
(257,-54,o),
(522,-212,o),
(906,-212,cs),
(1291,-212,o),
(1553,-54,o),
(1553,190,cs),
(1553,431,o),
(1291,588,o),
(906,588,cs)
);
},
{
closed = 1;
nodes = (
(1100,315,o),
(1203,278,o),
(1203,190,cs),
(1203,96,o),
(1098,61,o),
(906,61,cs),
(714,61,o),
(610,96,o),
(610,190,cs),
(610,278,o),
(712,315,o),
(906,315,cs)
);
}
);
width = 1771;
}
);
unicode = 44109;
}
{
glyphname = uniAC4F;
layers = (
{
layerId = m01;
shapes = (
{
closed = 1;
nodes = (
(807,1497,l),
(807,1418,ls),
(807,1112,o),
(551,863,o),
(76,752,c),
(137,622,l),
(667,750,o),
(978,1053,o),
(978,1497,c)
);
},
{
closed = 1;
nodes = (
(155,1497,l),
(155,1370,l),
(903,1370,l),
(903,1497,l)
);
},
{
closed = 1;
nodes = (
(1304,1614,l),
(1304,636,l),
(1461,636,l),
(1461,1614,l)
);
},
{
closed = 1;
nodes = (
(824,393,l),
(824,376,ls),
(824,179,o),
(551,5,o),
(247,-40,c),
(307,-160,l),
(652,-103,o),
(958,103,o),
(958,376,cs),
(958,393,l)
);
},
{
closed = 1;
nodes = (
(849,393,l),
(849,376,ls),
(849,103,o),
(1156,-103,o),
(1500,-160,c),
(1560,-40,l),
(1256,5,o),
(983,178,o),
(983,376,cs),
(983,393,l)
);
},
{
closed = 1;
nodes = (
(304,489,l),
(304,361,l),
(1500,361,l),
(1500,489,l)
);
},
{
closed = 1;
nodes = (
(824,702,l),
(824,426,l),
(982,426,l),
(982,702,l)
);
},
{
closed = 1;
nodes = (
(1418,1379,l),
(1418,1252,l),
(1727,1252,l),
(1727,1379,l)
);
},
{
closed = 1;
nodes = (
(1418,1019,l),
(1418,890,l),
(1727,890,l),
(1727,1019,l)
);
}
);
width = 1770;
},
{
layerId = "94F54C43-8AEE-4ED6-B3C2-2A9D33534E61";
shapes = (
{
closed = 1;
nodes = (
(622,1566,l),
(622,1345,ls),
(622,1185,o),
(474,1008,o),
(12,943,c),
(135,656,l),
(720,757,o),
(1017,1047,o),
(1017,1566,c)
);
},
{
closed = 1;
nodes = (
(113,1566,l),
(113,1284,l),
(858,1284,l),
(858,1566,l)
);
},
{
closed = 1;
nodes = (
(1173,1659,l),
(1173,652,l),
(1531,652,l),
(1531,1659,l)
);
},
{
closed = 1;
nodes = (
(719,371,l),
(719,349,ls),
(719,244,o),
(642,100,o),
(173,68,c),
(297,-199,l),
(834,-156,o),
(1022,72,o),
(1022,349,cs),
(1022,371,l)
);
},
{
closed = 1;
nodes = (
(785,371,l),
(785,349,ls),
(785,72,o),
(971,-156,o),
(1512,-199,c),
(1631,68,l),
(1165,100,o),
(1088,244,o),
(1088,349,cs),
(1088,371,l)
);
},
{
closed = 1;
nodes = (
(246,565,l),
(246,289,l),
(1547,289,l),
(1547,565,l)
);
},
{
closed = 1;
nodes = (
(722,717,l),
(722,424,l),
(1083,424,l),
(1083,717,l)
);
},
{
closed = 1;
nodes = (
(1434,1503,l),
(1434,1220,l),
(1757,1220,l),
(1757,1503,l)
);
},
{
closed = 1;
nodes = (
(1434,1110,l),
(1434,828,l),
(1757,828,l),
(1757,1110,l)
);
}
);
width = 1770;
}
);
unicode = 44111;
}
{
glyphname = uniAC50;
layers = (
{
layerId = m01;
shapes = (
{
closed = 1;
nodes = (
(1305,1614,l),
(1305,605,l),
(1462,605,l),
(1462,1614,l)
);
},
{
closed = 1;
nodes = (
(810,1499,l),
(810,1431,ls),
(810,1100,o),
(536,841,o),
(70,716,c),
(135,591,l),
(659,733,o),
(974,1052,o),
(974,1499,c)
);
},
{
closed = 1;
nodes = (
(150,1499,l),
(150,1372,l),
(897,1372,l),
(897,1499,l)
);
},
{
closed = 1;
nodes = (
(300,520,l),
(300,392,l),
(1306,392,l),
(1306,-162,l),
(1462,-162,l),
(1462,520,l)
);
},
{
closed = 1;
nodes = (
(1342,218,l),
(258,176,l),
(274,49,l),
(1342,103,l)
);
},
{
closed = 1;
nodes = (
(1419,1361,l),
(1419,1233,l),
(1728,1233,l),
(1728,1361,l)
);
},
{
closed = 1;
nodes = (
(1419,983,l),
(1419,856,l),
(1728,856,l),
(1728,983,l)
);
}
);
width = 1771;
},
{
layerId = "94F54C43-8AEE-4ED6-B3C2-2A9D33534E61";
shapes = (
{
closed = 1;
nodes = (
(1177,1658,l),
(1177,613,l),
(1531,613,l),
(1531,1658,l)
);
},
{
closed = 1;
nodes = (
(621,1567,l),
(621,1379,ls),
(621,1155,o),
(434,944,o),
(-8,841,c),
(136,570,l),
(701,709,o),
(999,1046,o),
(999,1567,c)
);
},
{
closed = 1;
nodes = (
(95,1567,l),
(95,1286,l),
(839,1286,l),
(839,1567,l)
);
},
{
closed = 1;
nodes = (
(249,547,l),
(249,268,l),
(1182,268,l),
(1182,-206,l),
(1531,-206,l),
(1531,547,l)
);
},
{
closed = 1;
nodes = (
(1231,213,l),
(214,175,l),
(245,-96,l),
(1231,-34,l)
);
},
{
closed = 1;
nodes = (
(1435,1481,l),
(1435,1201,l),
(1757,1201,l),
(1757,1481,l)
);
},
{
closed = 1;
nodes = (
(1435,1084,l),
(1435,804,l),
(1757,804,l),
(1757,1084,l)
);
}
);
width = 1771;
}
);
unicode = 44112;
}
{
glyphname = uniAC51;
layers = (
{
layerId = m01;
shapes = (
{
closed = 1;
nodes = (
(1305,1614,l),
(1305,665,l),
(1462,665,l),
(1462,1614,l)
);
},
{
closed = 1;
nodes = (
(810,1490,l),
(810,1405,ls),
(810,1105,o),
(554,863,o),
(80,760,c),
(143,631,l),
(668,751,o),
(984,1044,o),
(984,1490,c)
);
},
{
closed = 1;
nodes = (
(153,1490,l),
(153,1361,l),
(900,1361,l),
(900,1490,l)
);
},
{
closed = 1;
nodes = (
(337,583,l),
(337,-79,l),
(493,-79,l),
(493,463,l),
(1472,463,l),
(1472,583,l)
);
},
{
closed = 1;
nodes = (
(337,-18,l),
(337,-138,l),
(1513,-138,l),
(1513,-18,l)
);
},
{
closed = 1;
nodes = (
(439,286,l),
(439,168,l),
(1450,168,l),
(1450,286,l)
);
},
{
closed = 1;
nodes = (
(1419,1372,l),
(1419,1243,l),
(1728,1243,l),
(1728,1372,l)
);
},
{
closed = 1;
nodes = (
(1419,1002,l),
(1419,873,l),
(1728,873,l),
(1728,1002,l)
);
}
);
width = 1771;
},
{
layerId = "94F54C43-8AEE-4ED6-B3C2-2A9D33534E61";
shapes = (
{
closed = 1;
nodes = (
(1177,1658,l),
(1177,701,l),
(1531,701,l),
(1531,1658,l)
);
},
{
closed = 1;
nodes = (
(627,1539,l),
(627,1308,ls),
(627,1164,o),
(505,1002,o),
(18,949,c),
(157,671,l),
(747,756,o),
(1025,1019,o),
(1025,1539,c)
);
},
{
closed = 1;
nodes = (
(116,1539,l),
(116,1258,l),
(862,1258,l),
(862,1539,l)
);
},
{
closed = 1;
nodes = (
(260,638,l),
(260,-54,l),
(615,-54,l),
(615,383,l),
(1540,383,l),
(1540,638,l)
);
},
{
closed = 1;
nodes = (
(260,64,l),
(260,-190,l),
(1576,-190,l),
(1576,64,l)
);
},
{
closed = 1;
nodes = (
(509,345,l),
(509,102,l),
(1521,102,l),
(1521,345,l)
);
},
{
closed = 1;
nodes = (
(1435,1512,l),
(1435,1233,l),
(1757,1233,l),
(1757,1512,l)
);
},
{
closed = 1;
nodes = (
(1435,1143,l),
(1435,861,l),
(1757,861,l),
(1757,1143,l)
);
}
);
width = 1771;
}
);
unicode = 44113;
}
{
glyphname = uniAC52;
layers = (
{
layerId = m01;
shapes = (
{
closed = 1;
nodes = (
(1304,1613,l),
(1304,624,l),
(1461,624,l),
(1461,1613,l)
);
},
{
closed = 1;
nodes = (
(809,1497,l),
(809,1419,ls),
(809,1106,o),
(522,856,o),
(75,743,c),
(135,612,l),
(640,743,o),
(981,1050,o),
(981,1497,c)
);
},
{
closed = 1;
nodes = (
(160,1497,l),
(160,1369,l),
(906,1369,l),
(906,1497,l)
);
},
{
closed = 1;
nodes = (
(320,537,l),
(320,409,l),
(1508,409,l),
(1508,537,l)
);
},
{
closed = 1;
nodes = (
(306,-2,l),
(306,-130,l),
(1530,-130,l),
(1530,-2,l)
);
},
{
closed = 1;
nodes = (
(572,487,l),
(572,-62,l),
(727,-62,l),
(727,487,l)
);
},
{
closed = 1;
nodes = (
(1106,487,l),
(1106,-62,l),
(1260,-62,l),
(1260,487,l)
);
},
{
closed = 1;
nodes = (
(1418,1367,l),
(1418,1238,l),
(1727,1238,l),
(1727,1367,l)
);
},
{
closed = 1;
nodes = (
(1418,991,l),
(1418,863,l),
(1727,863,l),
(1727,991,l)
);
}
);
width = 1770;
},
{
layerId = "94F54C43-8AEE-4ED6-B3C2-2A9D33534E61";
shapes = (
{
closed = 1;
nodes = (
(1173,1660,l),
(1173,677,l),
(1531,677,l),
(1531,1660,l)
);
},
{
closed = 1;
nodes = (
(622,1563,l),
(622,1348,ls),
(622,1177,o),
(466,990,o),
(7,915,c),
(140,628,l),
(721,738,o),
(1019,1045,o),
(1019,1563,c)
);
},
{
closed = 1;
nodes = (
(123,1563,l),
(123,1281,l),
(867,1281,l),
(867,1563,l)
);
},
{
closed = 1;
nodes = (
(276,611,l),
(276,334,l),
(1557,334,l),
(1557,611,l)
);
},
{
closed = 1;
nodes = (
(259,88,l),
(259,-192,l),
(1579,-192,l),
(1579,88,l)
);
},
{
closed = 1;
nodes = (
(469,508,l),
(469,-36,l),
(824,-36,l),
(824,508,l)
);
},
{
closed = 1;
nodes = (
(1011,508,l),
(1011,-36,l),
(1364,-36,l),
(1364,508,l)
);
},
{
closed = 1;
nodes = (
(1434,1501,l),
(1434,1218,l),
(1757,1218,l),
(1757,1501,l)
);
},
{
closed = 1;
nodes = (
(1434,1112,l),
(1434,829,l),
(1757,829,l),
(1757,1112,l)
);
}
);
width = 1770;
}
);
unicode = 44114;
}
{
glyphname = uniAC54;
layers = (
{
layerId = m01;
shapes = (
{
closed = 1;
nodes = (
(1139,1149,l),
(1139,1020,l),
(1488,1020,l),
(1488,1149,l)
);
},
{
closed = 1;
nodes = (
(1139,648,l),
(1139,518,l),
(1488,518,l),
(1488,648,l)
);
},
{
closed = 1;
nodes = (
(1439,1614,l),
(1439,-162,l),
(1590,-162,l),
(1590,1614,l)
);
},
{
closed = 1;
nodes = (
(687,1385,l),
(687,1356,ls),
(687,947,o),
(528,583,o),
(74,333,c),
(166,221,l),
(678,506,o),
(838,930,o),
(838,1385,c)
);
},
{
closed = 1;
nodes = (
(141,1385,l),
(141,1255,l),
(740,1255,l),
(740,1385,l)
);
},
{
closed = 1;
nodes = (
(1041,1568,l),
(1041,-74,l),
(1190,-74,l),
(1190,1568,l)
);
}
);
width = 1771;
},
{
layerId = "94F54C43-8AEE-4ED6-B3C2-2A9D33534E61";
shapes = (
{
closed = 1;
nodes = (
(1136,1241,l),
(1136,960,l),
(1406,960,l),
(1406,1241,l)
);
},
{
closed = 1;
nodes = (
(1136,723,l),
(1136,442,l),
(1406,442,l),
(1406,723,l)
);
},
{
closed = 1;
nodes = (
(1320,1658,l),
(1320,-204,l),
(1659,-204,l),
(1659,1658,l)
);
},
{
closed = 1;
nodes = (
(515,1440,l),
(515,1364,ls),
(515,902,o),
(380,647,o),
(-9,405,c),
(195,161,l),
(711,469,o),
(854,873,o),
(854,1440,c)
);
},
{
closed = 1;
nodes = (
(105,1440,l),
(105,1159,l),
(612,1159,l),
(612,1440,l)
);
},
{
closed = 1;
nodes = (
(905,1611,l),
(905,-134,l),
(1235,-134,l),
(1235,1611,l)
);
}
);
width = 1771;
}
);
unicode = 44116;
}
{
glyphname = uniAC55;
layers = (
{
layerId = m01;
shapes = (
{
closed = 1;
nodes = (
(1432,1613,l),
(1432,568,l),
(1582,568,l),
(1582,1613,l)
);
},
{
closed = 1;
nodes = (
(1040,1581,l),
(1040,577,l),
(1189,577,l),
(1189,1581,l)
);
},
{
closed = 1;
nodes = (
(381,482,l),
(381,353,l),
(1426,353,l),
(1426,-162,l),
(1582,-162,l),
(1582,482,l)
);
},
{
closed = 1;
nodes = (
(694,1482,l),
(694,1431,ls),
(694,1096,o),
(483,827,o),
(83,665,c),
(161,549,l),
(612,738,o),
(852,1059,o),
(852,1482,c)
);
},
{
closed = 1;
nodes = (
(153,1482,l),
(153,1353,l),
(750,1353,l),
(750,1482,l)
);
},
{
closed = 1;
nodes = (
(1141,1349,l),
(1141,1220,l),
(1484,1220,l),
(1484,1349,l)
);
},
{
closed = 1;
nodes = (
(1141,950,l),
(1141,820,l),
(1484,820,l),
(1484,950,l)
);
}
);
width = 1770;
},
{
layerId = "94F54C43-8AEE-4ED6-B3C2-2A9D33534E61";
shapes = (
{
closed = 1;
nodes = (
(1317,1658,l),
(1317,576,l),
(1653,576,l),
(1653,1658,l)
);
},
{
closed = 1;
nodes = (
(906,1625,l),
(906,576,l),
(1235,576,l),
(1235,1625,l)
);
},
{
closed = 1;
nodes = (
(313,508,l),
(313,229,l),
(1297,229,l),
(1297,-206,l),
(1653,-206,l),
(1653,508,l)
);
},
{
closed = 1;
nodes = (
(489,1536,l),
(489,1398,ls),
(489,1130,o),
(373,952,o),
(-11,826,c),
(151,570,l),
(649,748,o),
(844,1045,o),
(844,1536,c)
);
},
{
closed = 1;
nodes = (
(91,1536,l),
(91,1257,l),
(601,1257,l),
(601,1536,l)
);
},
{
closed = 1;
nodes = (
(1149,1467,l),
(1149,1187,l),
(1398,1187,l),
(1398,1467,l)
);
},
{
closed = 1;
nodes = (
(1149,1052,l),
(1149,770,l),
(1398,770,l),
(1398,1052,l)
);
}
);
width = 1770;
}
);
unicode = 44117;
}
{
glyphname = uniAC56;
layers = (
{
layerId = m01;
shapes = (
{
closed = 1;
nodes = (
(339,493,l),
(339,364,l),
(767,364,l),
(767,-162,l),
(924,-162,l),
(924,493,l)
);
},
{
closed = 1;
nodes = (
(1010,493,l),
(1010,364,l),
(1425,364,l),
(1425,-162,l),
(1581,-162,l),
(1581,493,l)
);
},
{
closed = 1;
nodes = (
(1431,1613,l),
(1431,598,l),
(1581,598,l),
(1581,1613,l)
);
},
{
closed = 1;
nodes = (
(1039,1581,l),
(1039,610,l),
(1188,610,l),
(1188,1581,l)
);
},
{
closed = 1;
nodes = (
(693,1482,l),
(693,1431,ls),
(693,1098,o),
(476,841,o),
(83,687,c),
(160,569,l),
(604,750,o),
(851,1061,o),
(851,1482,c)
);
},
{
closed = 1;
nodes = (
(152,1482,l),
(152,1353,l),
(749,1353,l),
(749,1482,l)
);
},
{
closed = 1;
nodes = (
(1140,1351,l),
(1140,1221,l),
(1483,1221,l),
(1483,1351,l)
);
},
{
closed = 1;
nodes = (
(1140,972,l),
(1140,841,l),
(1483,841,l),
(1483,972,l)
);
}
);
width = 1770;
},
{
layerId = "94F54C43-8AEE-4ED6-B3C2-2A9D33534E61";
shapes = (
{
closed = 1;
nodes = (
(263,525,l),
(263,247,l),
(565,247,l),
(565,-206,l),
(926,-206,l),
(926,525,l)
);
},
{
closed = 1;
nodes = (
(1000,525,l),
(1000,247,l),
(1293,247,l),
(1293,-206,l),
(1654,-206,l),
(1654,525,l)
);
},
{
closed = 1;
nodes = (
(1313,1660,l),
(1313,589,l),
(1654,589,l),
(1654,1660,l)
);
},
{
closed = 1;
nodes = (
(901,1627,l),
(901,601,l),
(1235,601,l),
(1235,1627,l)
);
},
{
closed = 1;
nodes = (
(485,1537,l),
(485,1397,ls),
(485,1130,o),
(372,952,o),
(-14,824,c),
(150,565,l),
(651,746,o),
(843,1044,o),
(843,1537,c)
);
},
{
closed = 1;
nodes = (
(89,1537,l),
(89,1255,l),
(597,1255,l),
(597,1537,l)
);
},
{
closed = 1;
nodes = (
(1149,1458,l),
(1149,1173,l),
(1396,1173,l),
(1396,1458,l)
);
},
{
closed = 1;
nodes = (
(1149,1061,l),
(1149,776,l),
(1396,776,l),
(1396,1061,l)
);
}
);
width = 1770;
}
);
unicode = 44118;
}
{
glyphname = uniAC57;
layers = (
{
layerId = m01;
shapes = (
{
closed = 1;
nodes = (
(290,509,l),
(290,380,l),
(736,380,l),
(736,-153,l),
(891,-153,l),
(891,509,l)
);
},
{
closed = 1;
nodes = (
(1240,538,l),
(1240,397,ls),
(1240,221,o),
(1126,38,o),
(911,-42,c),
(988,-164,l),
(1239,-68,o),
(1366,161,o),
(1366,397,cs),
(1366,538,l)
);
},
{
closed = 1;
nodes = (
(1273,538,l),
(1273,397,ls),
(1273,166,o),
(1399,-67,o),
(1651,-164,c),
(1730,-42,l),
(1512,39,o),
(1398,226,o),
(1398,397,cs),
(1398,538,l)
);
},
{
closed = 1;
nodes = (
(1431,1613,l),
(1431,595,l),
(1581,595,l),
(1581,1613,l)
);
},
{
closed = 1;
nodes = (
(1039,1581,l),
(1039,607,l),
(1188,607,l),
(1188,1581,l)
);
},
{
closed = 1;
nodes = (
(693,1482,l),
(693,1431,ls),
(693,1096,o),
(486,834,o),
(88,674,c),
(169,557,l),
(618,746,o),
(853,1059,o),
(853,1482,c)
);
},
{
closed = 1;
nodes = (
(155,1482,l),
(155,1353,l),
(751,1353,l),
(751,1482,l)
);
},
{
closed = 1;
nodes = (
(1140,1350,l),
(1140,1221,l),
(1483,1221,l),
(1483,1350,l)
);
},
{
closed = 1;
nodes = (
(1140,956,l),
(1140,827,l),
(1483,827,l),
(1483,956,l)
);
}
);
width = 1770;
},
{
layerId = "94F54C43-8AEE-4ED6-B3C2-2A9D33534E61";
shapes = (
{
closed = 1;
nodes = (
(226,523,l),
(226,243,l),
(518,243,l),
(518,-199,l),
(872,-199,l),
(872,523,l)
);
},
{
closed = 1;
nodes = (
(1118,537,l),
(1118,424,ls),
(1118,287,o),
(1041,146,o),
(809,69,c),
(976,-206,l),
(1287,-112,o),
(1398,149,o),
(1398,424,cs),
(1398,537,l)
);
},
{
closed = 1;
nodes = (
(1205,537,l),
(1205,424,ls),
(1205,136,o),
(1310,-115,o),
(1625,-206,c),
(1793,69,l),
(1556,139,o),
(1481,276,o),
(1481,424,cs),
(1481,537,l)
);
},
{
closed = 1;
nodes = (
(1313,1660,l),
(1313,603,l),
(1654,603,l),
(1654,1660,l)
);
},
{
closed = 1;
nodes = (
(901,1627,l),
(901,615,l),
(1235,615,l),
(1235,1627,l)
);
},
{
closed = 1;
nodes = (
(487,1537,l),
(487,1401,ls),
(487,1128,o),
(396,953,o),
(7,819,c),
(177,564,l),
(681,752,o),
(848,1040,o),
(848,1537,c)
);
},
{
closed = 1;
nodes = (
(99,1537,l),
(99,1255,l),
(605,1255,l),
(605,1537,l)
);
},
{
closed = 1;
nodes = (
(1149,1473,l),
(1149,1191,l),
(1396,1191,l),
(1396,1473,l)
);
},
{
closed = 1;
nodes = (
(1149,1074,l),
(1149,790,l),
(1396,790,l),
(1396,1074,l)
);
}
);
width = 1770;
}
);
unicode = 44119;
}
{
glyphname = uniAC58;
layers = (
{
layerId = m01;
shapes = (
{
closed = 1;
nodes = (
(1140,1271,l),
(1140,1141,l),
(1483,1141,l),
(1483,1271,l)
);
},
{
closed = 1;
nodes = (
(1140,839,l),
(1140,711,l),
(1483,711,l),
(1483,839,l)
);
},
{
closed = 1;
nodes = (
(1431,1613,l),
(1431,287,l),
(1581,287,l),
(1581,1613,l)
);
},
{
closed = 1;
nodes = (
(1039,1581,l),
(1039,347,l),
(1188,347,l),
(1188,1581,l)
);
},
{
closed = 1;
nodes = (
(691,1440,l),
(691,1392,ls),
(691,1049,o),
(483,778,o),
(82,610,c),
(162,493,l),
(614,690,o),
(848,1016,o),
(848,1440,c)
);
},
{
closed = 1;
nodes = (
(155,1440,l),
(155,1312,l),
(751,1312,l),
(751,1440,l)
);
},
{
closed = 1;
nodes = (
(410,19,l),
(410,-110,l),
(1638,-110,l),
(1638,19,l)
);
},
{
closed = 1;
nodes = (
(410,448,l),
(410,-54,l),
(567,-54,l),
(567,448,l)
);
}
);
width = 1770;
},
{
layerId = "94F54C43-8AEE-4ED6-B3C2-2A9D33534E61";
shapes = (
{
closed = 1;
nodes = (
(1149,1358,l),
(1149,1072,l),
(1396,1072,l),
(1396,1358,l)
);
},
{
closed = 1;
nodes = (
(1149,924,l),
(1149,641,l),
(1396,641,l),
(1396,924,l)
);
},
{
closed = 1;
nodes = (
(1313,1660,l),
(1313,268,l),
(1654,268,l),
(1654,1660,l)
);
},
{
closed = 1;
nodes = (
(901,1627,l),
(901,313,l),
(1235,313,l),
(1235,1627,l)
);
},
{
closed = 1;
nodes = (
(477,1484,l),
(477,1351,ls),
(477,1062,o),
(367,885,o),
(-7,744,c),
(163,483,l),
(659,680,o),
(837,985,o),
(837,1484,c)
);
},
{
closed = 1;
nodes = (
(99,1484,l),
(99,1201,l),
(605,1201,l),
(605,1484,l)
);
},
{
closed = 1;
nodes = (
(336,99,l),
(336,-186,l),
(1699,-186,l),
(1699,99,l)
);
},
{
closed = 1;
nodes = (
(336,423,l),
(336,-88,l),
(695,-88,l),
(695,423,l)
);
}
);
width = 1770;
}
);
unicode = 44120;
}
{
glyphname = uniAC59;
layers = (
{
layerId = m01;
shapes = (
{
closed = 1;
nodes = (
(1170,441,l),
(1170,337,ls),
(1170,185,o),
(1034,26,o),
(818,-40,c),
(890,-162,l),
(1148,-81,o),
(1294,127,o),
(1294,337,cs),
(1294,441,l)
);
},
{
closed = 1;
nodes = (
(1202,441,l),
(1202,337,ls),
(1202,130,o),
(1349,-81,o),
(1606,-162,c),
(1677,-40,l),
(1465,28,o),
(1326,186,o),
(1326,337,cs),
(1326,441,l)
);
},
{
closed = 1;
nodes = (
(315,479,l),
(315,-48,l),
(468,-48,l),
(468,479,l)
);
},
{
closed = 1;
nodes = (
(315,21,l),
(315,-109,l),
(400,-109,ls),
(531,-109,o),
(720,-93,o),
(861,-20,c),
(818,105,l),
(706,39,o),
(527,21,o),
(400,21,cs)
);
},
{
closed = 1;
nodes = (
(863,506,l),
(863,378,l),
(1627,378,l),
(1627,506,l)
);
},
{
closed = 1;
nodes = (
(1432,1613,l),
(1432,602,l),
(1582,602,l),
(1582,1613,l)
);
},
{
closed = 1;
nodes = (
(1040,1581,l),
(1040,613,l),
(1189,613,l),
(1189,1581,l)
);
},
{
closed = 1;
nodes = (
(694,1482,l),
(694,1433,ls),
(694,1095,o),
(487,832,o),
(89,670,c),
(170,553,l),
(619,743,o),
(853,1058,o),
(853,1482,c)
);
},
{
closed = 1;
nodes = (
(156,1482,l),
(156,1353,l),
(752,1353,l),
(752,1482,l)
);
},
{
closed = 1;
nodes = (
(1141,1344,l),
(1141,1215,l),
(1484,1215,l),
(1484,1344,l)
);
},
{
closed = 1;
nodes = (
(1141,977,l),
(1141,849,l),
(1484,849,l),
(1484,977,l)
);
}
);
width = 1771;
},
{
layerId = "94F54C43-8AEE-4ED6-B3C2-2A9D33534E61";
shapes = (
{
closed = 1;
nodes = (
(1085,435,l),
(1085,362,ls),
(1085,245,o),
(999,127,o),
(763,69,c),
(916,-200,l),
(1237,-123,o),
(1356,108,o),
(1356,362,cs),
(1356,435,l)
);
},
{
closed = 1;
nodes = (
(1168,435,l),
(1168,362,ls),
(1168,119,o),
(1290,-123,o),
(1609,-200,c),
(1761,69,l),
(1536,130,o),
(1440,247,o),
(1440,362,cs),
(1440,435,l)
);
},
{
closed = 1;
nodes = (
(234,528,l),
(234,-8,l),
(575,-8,l),
(575,528,l)
);
},
{
closed = 1;
nodes = (
(234,122,l),
(234,-161,l),
(348,-161,ls),
(528,-161,o),
(702,-137,o),
(847,-69,c),
(772,201,l),
(654,149,o),
(512,122,o),
(348,122,cs)
);
},
{
closed = 1;
nodes = (
(836,566,l),
(836,289,l),
(1668,289,l),
(1668,566,l)
);
},
{
closed = 1;
nodes = (
(1317,1658,l),
(1317,626,l),
(1653,626,l),
(1653,1658,l)
);
},
{
closed = 1;
nodes = (
(906,1625,l),
(906,636,l),
(1235,636,l),
(1235,1625,l)
);
},
{
closed = 1;
nodes = (
(493,1536,l),
(493,1404,ls),
(493,1122,o),
(399,944,o),
(9,802,c),
(178,550,l),
(682,743,o),
(846,1038,o),
(846,1536,c)
);
},
{
closed = 1;
nodes = (
(101,1536,l),
(101,1257,l),
(610,1257,l),
(610,1536,l)
);
},
{
closed = 1;
nodes = (
(1149,1467,l),
(1149,1189,l),
(1398,1189,l),
(1398,1467,l)
);
},
{
closed = 1;
nodes = (
(1149,1075,l),
(1149,796,l),
(1398,796,l),
(1398,1075,l)
);
}
);
width = 1771;
}
);
unicode = 44121;
}
{
glyphname = uniAC5B;
layers = (
{
layerId = m01;
shapes = (
{
closed = 1;
nodes = (
(409,-9,l),
(409,-138,l),
(1614,-138,l),
(1614,-9,l)
);
},
{
closed = 1;
nodes = (
(409,480,l),
(409,-45,l),
(566,-45,l),
(566,352,l),
(1593,352,l),
(1593,480,l)
);
},
{
closed = 1;
nodes = (
(1432,1613,l),
(1432,585,l),
(1582,585,l),
(1582,1613,l)
);
},
{
closed = 1;
nodes = (
(1040,1582,l),
(1040,598,l),
(1189,598,l),
(1189,1582,l)
);
},
{
closed = 1;
nodes = (
(694,1482,l),
(694,1433,ls),
(694,1095,o),
(487,832,o),
(89,670,c),
(170,553,l),
(619,743,o),
(853,1058,o),
(853,1482,c)
);
},
{
closed = 1;
nodes = (
(156,1482,l),
(156,1353,l),
(752,1353,l),
(752,1482,l)
);
},
{
closed = 1;
nodes = (
(1141,1354,l),
(1141,1223,l),
(1484,1223,l),
(1484,1354,l)
);
},
{
closed = 1;
nodes = (
(1141,974,l),
(1141,844,l),
(1484,844,l),
(1484,974,l)
);
}
);
width = 1770;
},
{
layerId = "94F54C43-8AEE-4ED6-B3C2-2A9D33534E61";
shapes = (
{
closed = 1;
nodes = (
(351,89,l),
(351,-190,l),
(1683,-190,l),
(1683,89,l)
);
},
{
closed = 1;
nodes = (
(351,514,l),
(351,47,l),
(706,47,l),
(706,237,l),
(1668,237,l),
(1668,514,l)
);
},
{
closed = 1;
nodes = (
(1317,1658,l),
(1317,571,l),
(1653,571,l),
(1653,1658,l)
);
},
{
closed = 1;
nodes = (
(906,1629,l),
(906,588,l),
(1235,588,l),
(1235,1629,l)
);
},
{
closed = 1;
nodes = (
(493,1536,l),
(493,1404,ls),
(493,1122,o),
(399,944,o),
(9,802,c),
(178,550,l),
(682,743,o),
(846,1038,o),
(846,1536,c)
);
},
{
closed = 1;
nodes = (
(101,1536,l),
(101,1257,l),
(610,1257,l),
(610,1536,l)
);
},
{
closed = 1;
nodes = (
(1149,1456,l),
(1149,1174,l),
(1398,1174,l),
(1398,1456,l)
);
},
{
closed = 1;
nodes = (
(1149,1059,l),
(1149,777,l),
(1398,777,l),
(1398,1059,l)
);
}
);
width = 1770;
}
);
unicode = 44123;
}
{
glyphname = uniAC5C;
layers = (
{
layerId = m01;
shapes = (
{
closed = 1;
nodes = (
(1142,1369,l),
(1142,1246,l),
(1484,1246,l),
(1484,1369,l)
);
},
{
closed = 1;
nodes = (
(1142,1035,l),
(1142,912,l),
(1484,912,l),
(1484,1035,l)
);
},
{
closed = 1;
nodes = (
(1432,1613,l),
(1432,703,l),
(1582,703,l),
(1582,1613,l)
);
},
{
closed = 1;
nodes = (
(1040,1581,l),
(1040,716,l),
(1189,716,l),
(1189,1581,l)
);
},
{
closed = 1;
nodes = (
(690,1508,l),
(690,1453,ls),
(690,1141,o),
(485,900,o),
(89,760,c),
(164,644,l),
(610,808,o),
(849,1100,o),
(849,1508,c)
);
},
{
closed = 1;
nodes = (
(160,1508,l),
(160,1379,l),
(757,1379,l),
(757,1508,l)
);
},
{
closed = 1;
nodes = (
(402,616,l),
(402,489,l),
(1429,489,l),
(1429,303,l),
(406,303,l),
(406,-91,l),
(561,-91,l),
(561,181,l),
(1582,181,l),
(1582,616,l)
);
},
{
closed = 1;
nodes = (
(406,-22,l),
(406,-149,l),
(1652,-149,l),
(1652,-22,l)
);
}
);
width = 1770;
},
{
layerId = "94F54C43-8AEE-4ED6-B3C2-2A9D33534E61";
shapes = (
{
closed = 1;
nodes = (
(1152,1483,l),
(1152,1220,l),
(1401,1220,l),
(1401,1483,l)
);
},
{
closed = 1;
nodes = (
(1152,1144,l),
(1152,878,l),
(1401,878,l),
(1401,1144,l)
);
},
{
closed = 1;
nodes = (
(1317,1658,l),
(1317,748,l),
(1653,748,l),
(1653,1658,l)
);
},
{
closed = 1;
nodes = (
(906,1625,l),
(906,760,l),
(1235,760,l),
(1235,1625,l)
);
},
{
closed = 1;
nodes = (
(474,1552,l),
(474,1404,ls),
(474,1177,o),
(371,1025,o),
(3,923,c),
(166,668,l),
(643,819,o),
(835,1084,o),
(835,1552,c)
);
},
{
closed = 1;
nodes = (
(107,1552,l),
(107,1272,l),
(616,1272,l),
(616,1552,l)
);
},
{
closed = 1;
nodes = (
(342,684,l),
(342,413,l),
(1302,413,l),
(1302,379,l),
(344,379,l),
(344,-45,l),
(698,-45,l),
(698,124,l),
(1653,124,l),
(1653,684,l)
);
},
{
closed = 1;
nodes = (
(344,88,l),
(344,-186,l),
(1704,-186,l),
(1704,88,l)
);
}
);
width = 1770;
}
);
unicode = 44124;
}
{
glyphname = uniAC5E;
layers = (
{
layerId = m01;
shapes = (
{
closed = 1;
nodes = (
(1142,1369,l),
(1142,1246,l),
(1484,1246,l),
(1484,1369,l)
);
},
{
closed = 1;
nodes = (
(1142,1035,l),
(1142,911,l),
(1484,911,l),
(1484,1035,l)
);
},
{
closed = 1;
nodes = (
(308,597,l),
(308,474,l),
(737,474,l),
(737,306,l),
(311,306,l),
(311,-52,l),
(464,-52,l),
(464,190,l),
(889,190,l),
(889,597,l)
);
},
{
closed = 1;
nodes = (
(1006,597,l),
(1006,-138,l),
(1582,-138,l),
(1582,597,l)
);
},
{
closed = 1;
nodes = (
(1443,477,l),
(1443,-18,l),
(1144,-18,l),
(1144,477,l)
);
},
{
closed = 1;
nodes = (
(311,-13,l),
(311,-138,l),
(408,-138,ls),
(648,-138,o),
(774,-136,o),
(943,-104,c),
(928,20,l),
(765,-10,o),
(642,-13,o),
(408,-13,cs)
);
},
{
closed = 1;
nodes = (
(1432,1613,l),
(1432,693,l),
(1582,693,l),
(1582,1613,l)
);
},
{
closed = 1;
nodes = (
(1040,1581,l),
(1040,706,l),
(1189,706,l),
(1189,1581,l)
);
},
{
closed = 1;
nodes = (
(690,1508,l),
(690,1453,ls),
(690,1141,o),
(485,900,o),
(89,760,c),
(164,644,l),
(610,808,o),
(849,1100,o),
(849,1508,c)
);
},
{
closed = 1;
nodes = (
(160,1508,l),
(160,1379,l),
(757,1379,l),
(757,1508,l)
);
}
);
width = 1771;
},
{
layerId = "94F54C43-8AEE-4ED6-B3C2-2A9D33534E61";
shapes = (
{
closed = 1;
nodes = (
(1152,1483,l),
(1152,1220,l),
(1401,1220,l),
(1401,1483,l)
);
},
{
closed = 1;
nodes = (
(1152,1132,l),
(1152,866,l),
(1401,866,l),
(1401,1132,l)
);
},
{
closed = 1;
nodes = (
(248,654,l),
(248,396,l),
(557,396,l),
(557,358,l),
(248,358,l),
(248,-6,l),
(593,-6,l),
(593,118,l),
(901,118,l),
(901,654,l)
);
},
{
closed = 1;
nodes = (
(982,654,l),
(982,-190,l),
(1653,-190,l),
(1653,654,l)
);
},
{
closed = 1;
nodes = (
(1353,400,l),
(1353,65,l),
(1283,65,l),
(1283,400,l)
);
},
{
closed = 1;
nodes = (
(248,76,l),
(248,-190,l),
(373,-190,ls),
(651,-190,o),
(784,-188,o),
(941,-159,c),
(912,105,l),
(759,78,o),
(639,76,o),
(373,76,cs)
);
},
{
closed = 1;
nodes = (
(1317,1658,l),
(1317,717,l),
(1653,717,l),
(1653,1658,l)
);
},
{
closed = 1;
nodes = (
(906,1625,l),
(906,729,l),
(1235,729,l),
(1235,1625,l)
);
},
{
closed = 1;
nodes = (
(474,1552,l),
(474,1404,ls),
(474,1177,o),
(371,1025,o),
(3,923,c),
(166,668,l),
(643,819,o),
(835,1084,o),
(835,1552,c)
);
},
{
closed = 1;
nodes = (
(107,1552,l),
(107,1272,l),
(616,1272,l),
(616,1552,l)
);
}
);
width = 1771;
}
);
unicode = 44126;
}
